<?xml version="1.0" encoding="UTF-8"?>
<svg width="77px" height="77px" viewBox="0 0 77 77" version="1.1" xmlns="http://www.w3.org/2000/svg" xmlns:xlink="http://www.w3.org/1999/xlink">
    <title>Group 12</title>
    <g id="Portfolio_2" stroke="none" stroke-width="1" fill="none" fill-rule="evenodd">
        <g id="Water-Fortune" transform="translate(-100.000000, -5527.000000)">
            <g id="Group-12" transform="translate(100.000000, 5527.000000)">
                <circle id="Oval" fill="#FAFAFA" cx="38.5" cy="38.5" r="38.5"></circle>
                <g id="Group-10" transform="translate(21.000000, 20.000000)">
                    <g id="no-idea" fill="#FFE5C7" fill-rule="nonzero">
                        <path d="M34.9676537,15.683084 C34.9676537,20.0437398 33.1315881,24.0219057 30.3009631,26.852459 C27.6233914,29.4535758 26.1698156,33.0491803 25.9403074,36.7213115 L9.26273566,36.7213115 L9.26273566,32.5136373 L6.20267418,32.5136373 C4.825625,32.5136373 3.67808402,31.3660963 3.67808402,29.9890471 L3.67808402,24.633832 L1.07696721,24.633832 C0.311915984,24.633832 -0.223555328,23.8687807 0.158934426,23.1802561 L3.67808402,15.6830123 C3.67808402,11.3223566 5.43762295,7.42071721 8.26824795,4.59009221 C11.098873,1.75946721 15.0004406,0 19.3610963,0 C23.6452254,0 27.5468648,1.75953893 30.3774898,4.59016393 C33.2846414,7.42078893 34.9676537,11.3224283 34.9676537,15.683084 Z" id="Path"></path>
                    </g>
                    <polyline id="Path-36" stroke="#363B3F" stroke-width="0.5" stroke-linecap="round" stroke-linejoin="round" points="22.6157829 9.84014783 20.8081396 8.37204197 16.5223973 10.7896293 19.0918909 15.9623088 23.6769784 15.9623088 23.6769784 10.7896293 27.5223973 12.1671754 25.2558368 14.6649501 21.326072 12.8917867 24.6236467 8.37204197 19.859046 6.5845167 19.859046 11.2734128 16.992363 14.2027095 20.8081396 17.5845167 25.2558368 12.8917867 27.5223973 14.6649501 18.5900847 10.7896293 20.2403542 14.6649501"></polyline>
                    <polyline id="Path-36" stroke="#363B3F" stroke-width="0.5" stroke-linecap="round" stroke-linejoin="round" transform="translate(24.496079, 13.473511) rotate(97.000000) translate(-24.496079, -13.473511) " points="25.0894649 11.2291419 23.2818216 9.76103606 18.9960793 12.1786234 21.5655729 17.3513029 26.1506604 17.3513029 26.1506604 12.1786234 29.9960793 13.5561695 27.7295188 16.0539442 23.799754 14.2807808 27.0973287 9.76103606 22.332728 7.97351079 22.332728 12.6624069 19.466045 15.5917036 23.2818216 18.9735108 27.7295188 14.2807808 29.9960793 16.0539442 21.0637667 12.1786234 22.7140362 16.0539442"></polyline>
                </g>
            </g>
        </g>
    </g>
</svg>