<?xml version="1.0" encoding="UTF-8"?>
<svg width="50px" height="50px" viewBox="0 0 50 50" version="1.1" xmlns="http://www.w3.org/2000/svg" xmlns:xlink="http://www.w3.org/1999/xlink">
    <title>Group 25</title>
    <g id="Portfolio_2" stroke="none" stroke-width="1" fill="none" fill-rule="evenodd">
        <g id="Goal-Setter" transform="translate(-409.000000, -4291.000000)">
            <g id="Group-25" transform="translate(409.000000, 4291.000000)">
                <circle id="Oval-Copy-5" fill="#F6F9FC" cx="25" cy="25" r="25"></circle>
                <g id="Group-23" transform="translate(15.000000, 12.000000)" fill-rule="nonzero">
                    <g id="Group-22">
                        <circle id="Oval" fill="#FFD9B3" cx="9.42011696" cy="5.67890838" r="5.67890838"></circle>
                        <path d="M17.7775439,24.4430409 L1.06261209,24.4430409 C0.475711501,24.4430409 -2.91322522e-13,23.9672515 -2.91322522e-13,23.3804288 L-2.91322522e-13,20.8235478 C-2.91322522e-13,17.5556335 2.64920078,14.9064327 5.91711501,14.9064327 L12.922963,14.9064327 C16.1908772,14.9064327 18.840078,17.5556335 18.840078,20.8235478 L18.840078,23.3804288 C18.840078,23.9672515 18.3643665,24.4430409 17.7775439,24.4430409 Z" id="Path" fill="#FFC96F"></path>
                        <path d="M12.9230409,14.9063548 L9.46167641,14.9063548 L9.46167641,24.442963 L17.7775439,24.442963 C18.3644444,24.442963 18.8401559,23.9671735 18.8401559,23.3803509 L18.8401559,20.8234698 C18.8401559,17.5555556 16.1909552,14.9063548 12.9230409,14.9063548 Z" id="Path" fill="#F5A623"></path>
                    </g>
                    <path d="M9.46167641,7.79727104e-05 L9.46167641,11.3557895 C12.5787914,11.3333333 15.0989474,8.80038986 15.0989474,5.67797271 C15.0989474,2.55555556 12.5787914,0.0225341131 9.46167641,7.79727104e-05 Z" id="Path" fill="#FFCC99"></path>
                </g>
            </g>
        </g>
    </g>
</svg>