<?xml version="1.0" encoding="UTF-8"?>
<svg width="77px" height="77px" viewBox="0 0 77 77" version="1.1" xmlns="http://www.w3.org/2000/svg" xmlns:xlink="http://www.w3.org/1999/xlink">
    <title>Group 21</title>
    <g id="Portfolio_2" stroke="none" stroke-width="1" fill="none" fill-rule="evenodd">
        <g id="Goal-Setter" transform="translate(-681.000000, -893.000000)">
            <g id="Group-21" transform="translate(681.000000, 893.000000)">
                <circle id="Oval-Copy-4" fill="#F6F9FC" cx="38.5" cy="38.5" r="38.5"></circle>
                <g id="connection" transform="translate(14.000000, 25.000000)" fill-rule="nonzero">
                    <path d="M14.0136719,27.9296875 C21.6993164,27.9296875 27.9296875,21.6504883 27.9296875,13.9648438 L25.274707,10.9863281 L22.0703125,13.9648438 C22.0703125,18.4080078 18.4568359,22.0703125 14.0136719,22.0703125 C9.57050781,22.0703125 5.859375,18.4080078 5.859375,13.9648438 L2.28886719,10.9863281 L0,13.9648438 C0,21.6504883 6.32802734,27.9296875 14.0136719,27.9296875 Z" id="Path" fill="#F67A88"></path>
                    <path d="M35.9863281,5.859375 C40.4294922,5.859375 44.140625,9.52167969 44.140625,13.9648438 L47.0703125,15.7226562 L50,13.9648438 C50,6.27919922 43.6719727,0 35.9863281,0 C28.3006836,0 22.0703125,6.27919922 22.0703125,13.9648438 L27.9296875,13.9648438 C27.9296875,9.52167969 31.5431641,5.859375 35.9863281,5.859375 Z" id="Path" fill="#F85C70"></path>
                    <path d="M35.9863281,27.9296875 C43.6719727,27.9296875 50,21.6504883 50,13.9648438 L44.140625,13.9648438 C44.140625,18.4080078 40.4294922,22.0703125 35.9863281,22.0703125 C31.5431641,22.0703125 27.9296875,18.4080078 27.9296875,13.9648438 L25.0915039,10.9863281 L22.0703125,13.9648438 C22.0703125,21.6504883 28.3006836,27.9296875 35.9863281,27.9296875 Z" id="Path" fill="#0072FF"></path>
                    <path d="M14.0136719,5.859375 C18.4568359,5.859375 22.0703125,9.52167969 22.0703125,13.9648438 L27.9296875,13.9648438 C27.9296875,6.27919922 21.6993164,0 14.0136719,0 C6.32802734,0 0,6.27919922 0,13.9648438 L5.859375,13.9648438 C5.859375,9.52167969 9.57050781,5.859375 14.0136719,5.859375 Z" id="Path" fill="#4F9EFF"></path>
                </g>
            </g>
        </g>
    </g>
</svg>