<?xml version="1.0" encoding="UTF-8"?>
<svg width="77px" height="77px" viewBox="0 0 77 77" version="1.1" xmlns="http://www.w3.org/2000/svg" xmlns:xlink="http://www.w3.org/1999/xlink">
    <title>Group 11</title>
    <g id="Portfolio_2" stroke="none" stroke-width="1" fill="none" fill-rule="evenodd">
        <g id="Recommender" transform="translate(-100.000000, -768.000000)">
            <g id="Group-11" transform="translate(100.000000, 768.000000)">
                <circle id="Oval" fill="#F6F9FC" cx="38.5" cy="38.5" r="38.5"></circle>
                <g id="script" transform="translate(13.000000, 18.000000)" fill-rule="nonzero">
                    <path d="M17.13125,4.5234375 L48.3360352,4.5234375 C48.3098633,1.89248047 46.4147461,0.0123046875 44.0796875,0.0123046875 L12.8748047,0.0123046875 C15.2099609,0.0123046875 17.1050781,1.89248047 17.13125,4.5234375 Z" id="Path" fill="#D8CFBC"></path>
                    <path d="M39.8138672,4.26992188 C39.8138672,1.91845703 41.7201172,0.0123046875 44.0714844,0.0123046875 L12.8666992,0.0123046875 C10.5152344,0.0123046875 8.60908203,1.91845703 8.60908203,4.26992188 L8.60908203,39.2454102 L35.55625,39.2454102 C37.9077148,39.2454102 39.8138672,37.3392578 39.8138672,34.987793 L39.8138672,4.26992188 Z" id="Path" fill="#F2EBDA"></path>
                    <g id="Group" fill="#E2D9C5">
                        <path d="M40.2470134,0.0123046875 C38.5417243,0.0123046875 37.1592489,1.91855469 37.1592489,4.26992188 L37.1592489,34.9878906 C37.1592489,37.3392578 35.7768443,39.2455078 34.0714844,39.2455078 L37.8959553,39.2455078 C39.6013152,39.2455078 40.9837198,37.3392578 40.9837198,34.9878906 L40.9837198,4.26992188 C40.9837198,1.91855469 42.3661953,0.0123046875 44.0714844,0.0123046875 L40.2470134,0.0123046875 Z" id="Path"></path>
                        <path d="M31.2047852,34.734375 L0,34.734375 C0.026171875,37.365332 1.92128906,39.2455078 4.25634766,39.2455078 L35.4611328,39.2455078 C33.1260742,39.2455078 31.230957,37.365332 31.2047852,34.734375 Z" id="Path"></path>
                    </g>
                    <path d="M28.3399414,26.6673828 C29.2163086,23.9424805 30.0044922,21.1594727 31.8664062,19.0338867 C35.9335937,14.390918 44.0864258,13.0268555 50,13.1791992 C48.149707,14.7070313 46.5367187,16.2523438 44.6674805,18.275293 C42.571875,20.5432617 37.9994141,23.5611328 35.7989258,24.2378906 C32.3716797,25.2917969 30.7861328,25.4680664 28.3399414,26.6673828 Z" id="Path" fill="#80BBB2"></path>
                    <path d="M28.3399414,26.6673828 C29.2163086,23.9424805 44.0864258,13.0268555 50,13.1791992 C48.149707,14.7070313 46.5367187,16.2523438 44.6674805,18.275293 C42.571875,20.5432617 37.9994141,23.5611328 35.7989258,24.2378906 C32.3716797,25.2917969 30.7861328,25.4680664 28.3399414,26.6673828 Z" id="Path" fill="#319A93"></path>
                    <path d="M24.5553711,31.8288086 C24.5553711,31.8288086 25.2532227,29.5100586 25.3803711,29.3061523 C26.0769531,28.1888672 26.8113281,27.412793 27.7230469,26.3213867 C30.8723633,22.5507813 41.1958008,15.9442383 41.3886719,16.3140625 C41.581543,16.6837891 31.7942383,23.3881836 28.7732422,27.0050781 C27.9286133,28.0163086 27.3029297,29.0214844 26.6257812,30.1077148 C26.4960938,30.3154297 24.5553711,31.8288086 24.5553711,31.8288086 Z" id="Path" fill="#5EA499"></path>
                    <path d="M35.7339844,9.13681641 L14.2660156,9.13681641 C13.8615234,9.13681641 13.5335938,8.80898437 13.5335938,8.40439453 C13.5335938,7.99980469 13.8615234,7.67197266 14.2660156,7.67197266 L35.7339844,7.67197266 C36.1384766,7.67197266 36.4664062,7.99980469 36.4664062,8.40439453 C36.4664062,8.80898437 36.1384766,9.13681641 35.7339844,9.13681641 Z" id="Path" fill="#F5A623"></path>
                    <path d="M21.9263672,31.5858398 L14.2660156,31.5858398 C13.8615234,31.5858398 13.5335938,31.2580078 13.5335938,30.853418 C13.5335938,30.4488281 13.8615234,30.1209961 14.2660156,30.1209961 L21.9263672,30.1209961 C22.3308594,30.1209961 22.6587891,30.4488281 22.6587891,30.853418 C22.6587891,31.2580078 22.3308594,31.5858398 21.9263672,31.5858398 Z" id="Path" fill="#FFD15C"></path>
                    <path d="M25,24.102832 L14.2660156,24.102832 C13.8615234,24.102832 13.5335938,23.775 13.5335938,23.3704102 C13.5335938,22.9658203 13.8615234,22.6379883 14.2660156,22.6379883 L25,22.6379883 C25.4044922,22.6379883 25.7324219,22.9658203 25.7324219,23.3704102 C25.7324219,23.775 25.4044922,24.102832 25,24.102832 Z" id="Path" fill="#F5A623"></path>
                    <path d="M30.2250977,16.6199219 L14.2660156,16.6199219 C13.8615234,16.6199219 13.5335938,16.2920898 13.5335938,15.8875 C13.5335938,15.4829102 13.8615234,15.1550781 14.2660156,15.1550781 L30.2250977,15.1550781 C30.6295898,15.1550781 30.9575195,15.4829102 30.9575195,15.8875 C30.9575195,16.2920898 30.6295898,16.6199219 30.2250977,16.6199219 Z" id="Path" fill="#FFD15C"></path>
                </g>
            </g>
        </g>
    </g>
</svg>