<?xml version="1.0" encoding="UTF-8"?>
<svg width="40px" height="41px" viewBox="0 0 40 41" version="1.1" xmlns="http://www.w3.org/2000/svg" xmlns:xlink="http://www.w3.org/1999/xlink">
    <title>positive-vote</title>
    <g id="Portfolio_2" stroke="none" stroke-width="1" fill="none" fill-rule="evenodd">
        <g id="Goal-Setter" transform="translate(-417.000000, -4970.000000)" fill-rule="nonzero">
            <g id="positive-vote" transform="translate(437.000000, 4990.500000) scale(1, -1) translate(-437.000000, -4990.500000) translate(417.000000, 4970.000000)">
                <path d="M36.607584,22.190588 C36.607584,32.2884758 28.4208251,40.4743083 18.323246,40.4743083 C15.8460968,40.4743083 13.4847455,39.9817811 11.3309042,39.0890563 C5.44404648,36.6505064 1.10795455,31.2252964 0.21152419,24.7035573 C0.0975790514,23.882164 0.0395256917,23.0431695 0.0395256917,22.190588 C0.0395256917,12.0920825 8.22535818,3.90624996 18.323246,3.90624996 C28.4208251,3.90624996 36.607584,12.0920825 36.607584,22.190588 Z" id="Path" fill="#F67A88"></path>
                <path d="M38.8901927,20.8389945 L28.449543,27.7525938 C27.7056571,28.2454299 26.8045949,28.4408968 25.923913,28.3000865 C25.0410696,28.159585 24.1378458,28.3522727 23.3921072,28.8460351 L21.9948123,29.7721097 L14.1699605,18.23771 L16.0897357,9.94410822 C16.2388834,9.29841897 16.3126853,8.64408348 16.3126853,7.99221834 C16.3126853,6.30589178 15.8195406,4.64148964 14.8737031,3.21269763 C14.6411809,2.86128949 14.5300149,2.46387107 14.5300149,2.07139328 C14.5300149,1.4006917 14.8554842,0.742650672 15.4570158,0.34430585 C16.2676013,-0.192687747 17.3418972,-0.0929471146 18.0397727,0.583930356 L19.2835968,1.78853755 C20.7059042,3.16854 21.8030509,4.84869075 22.4919714,6.70701581 L23.1663785,8.52272727 L30.1114748,3.9340415 C31.2206645,3.19972822 32.7210968,3.52087447 33.4294713,4.65692933 C34.1125247,5.75129692 33.7617342,7.19738142 32.6855855,7.90977028 C32.6726161,7.91841652 32.6716897,7.93231225 32.6760128,7.94281123 C32.6821888,7.95423668 32.6951581,7.96195652 32.7096715,7.95578063 C32.9841897,7.85017296 33.2713685,7.79891304 33.5560771,7.79891304 C34.0106225,7.79891304 34.4611537,7.9298419 34.8465292,8.17903905 C35.1120924,8.35072877 35.3473938,8.57892791 35.5329793,8.8593132 C35.8914896,9.40093874 35.9983325,10.0361289 35.8809906,10.626544 C35.6969491,11.5566329 35.020998,12.0358819 34.8882164,12.1260499 C34.8656744,12.1417984 34.8594985,12.1729866 34.875247,12.196455 C34.875247,12.1970726 34.8761734,12.1979991 34.876791,12.1979991 C34.8916131,12.218997 34.921875,12.2248641 34.9434906,12.2112772 C35.1327817,12.1652668 35.3254694,12.1433424 35.5181572,12.1433424 C35.9884511,12.1433424 36.4562747,12.2770504 36.854002,12.5305707 C37.122962,12.7025692 37.3607337,12.9298419 37.5447752,13.2083745 C38.2667367,14.298419 37.9684412,15.7676631 36.8771616,16.4899333 C36.8502964,16.5081522 36.8234313,16.5263711 36.7965662,16.5436636 C36.7811265,16.5560153 36.7764945,16.5757782 36.7845232,16.5896739 C36.7860672,16.5930707 36.7897727,16.5967762 36.7931695,16.5983202 C36.8052125,16.6078928 36.8243577,16.6088191 36.8401062,16.5967762 C37.51791,16.3657979 38.2556201,16.4707881 38.849123,16.8552372 C39.1224062,17.0306324 39.3648098,17.2668602 39.5565711,17.5565094 C40.2788414,18.6474802 39.9802372,20.1167243 38.8901927,20.8389945 L38.8901927,20.8389945 Z" id="Path" fill="#FFD9B3"></path>
                <path d="M22.0945529,31.9611537 L17.6899086,34.8780262 L11.3309042,39.0890563 C5.44404648,36.6501976 1.10795455,31.225914 0.21152419,24.7035573 L7.59109439,19.8165761 L12.0834363,16.8413414 C12.600667,16.4985795 13.2985425,16.6409338 13.6413043,17.1590909 L22.4123024,30.4023592 C22.7550642,30.9205163 22.61271,31.6171566 22.0945529,31.9611537 L22.0945529,31.9611537 Z" id="Path" fill="#FFC96F"></path>
                <path d="M22.0945529,31.9611537 L17.6899086,34.8780262 L7.59109439,19.8165761 L12.0834363,16.8413414 C12.600667,16.4985795 13.2985425,16.6409338 13.6413043,17.1590909 L22.4123024,30.4020504 C22.7550642,30.9205163 22.61271,31.6171566 22.0945529,31.9611537 L22.0945529,31.9611537 Z" id="Path" fill="#F5A623"></path>
                <g id="Group" transform="translate(29.881423, 7.747036)" fill="#FFCC99">
                    <path d="M4.96510625,0.431694704 L1.49085968,2.29094617 C0.998023715,2.55403905 0.386919447,2.41662545 0.055583004,1.96794711 L2.79458988,0.195775652 C2.80076585,0.207201107 2.81373518,0.214920949 2.82824854,0.208745059 C3.1027668,0.103137391 3.38994561,0.0518774704 3.67465415,0.0518774704 C4.12950838,0.0518774704 4.57973075,0.182806324 4.96510625,0.431694704 L4.96510625,0.431694704 Z" id="Path"></path>
                    <path d="M6.97257905,4.7835351 L3.57398719,6.60079051 C3.08115115,6.8648098 2.47004696,6.72770506 2.13840166,6.27902672 L4.87740862,4.5065464 L4.99567684,4.45096348 C5.01049897,4.47196142 5.04076087,4.47782854 5.06237644,4.46424158 C5.25166751,4.41823123 5.44435526,4.3963068 5.637043,4.3963068 C6.10733692,4.3963068 6.57516055,4.53001486 6.97257905,4.7835351 Z" id="Path"></path>
                    <path d="M8.96800885,9.10820158 L5.97455534,10.7096096 C5.48233692,10.9723938 4.8715415,10.835289 4.53896988,10.3866107 L6.91174656,8.85128458 C6.92409834,8.86085723 6.94324356,8.86178356 6.95868332,8.84943178 C7.63648711,8.61876237 8.37419715,8.72375249 8.96800885,9.10820158 L8.96800885,9.10820158 Z" id="Path"></path>
                </g>
            </g>
        </g>
    </g>
</svg>