<?xml version="1.0" encoding="UTF-8"?>
<svg width="68px" height="79px" viewBox="0 0 68 79" version="1.1" xmlns="http://www.w3.org/2000/svg" xmlns:xlink="http://www.w3.org/1999/xlink">
    <title>Group 6</title>
    <g id="Portfolio" stroke="none" stroke-width="1" fill="none" fill-rule="evenodd">
        <g id="Landing-Copy" transform="translate(-478.000000, -118.000000)">
            <g id="Group-6" transform="translate(480.000000, 120.000000)">
                <path d="M5.48656915,15.2189498 C6.62578822,8.86704545 9.02984367,4.36907935 12.6987355,1.72505152 C18.2020733,-2.24099023 25.1757833,1.72505152 30.0033865,2.80817596 C34.8309898,3.89130041 45.7531985,-0.519816475 51.812068,3.68793031 C55.8513143,6.49309483 57.8709374,12.0072617 57.8709374,20.2304308 C62.125489,23.7244568 64.2527648,28.3208156 64.2527648,34.0195072 C64.2527648,42.5675446 51.812068,42.5738521 49.445048,47.2825521 C47.078028,51.991252 48.7876657,57.6726198 46.9474293,57.6726198 C45.1071928,57.6726198 37.6464249,51.9376503 37.1655226,51.1563301 C36.8797683,50.6920663 40.7310644,47.3305707 42.2272714,42.9950882 C43.2490656,40.0342873 44.4378786,35.665739 40.5678207,35.2 C37.4746012,34.827749 33.7464877,41.6608307 31.2476477,40.4189726 C28.7488076,39.1771145 31.8431304,33.5053932 28.224646,28.6213998 C24.6061615,23.7374063 21.9591445,27.2762553 18.3924485,23.067866 C14.8257524,18.8594766 17.36725,9.35175501 15.3334503,9.35175501 C13.2996507,9.35175501 9.17653947,17.5732399 7.24744741,22.0209848 C5.31835534,26.4687297 6.23989761,31.2668005 5.48656915,32.6431539 C4.73324068,34.0195072 -0.685054764,38.6318544 0.0724039153,39.5254135 C0.577376368,40.1211196 1.7934294,41.1372658 3.72056301,42.5738521 C4.75163657,47.8135353 5.34030528,50.6743613 5.48656915,51.1563301 C6.7509142,55.3226008 8.9045477,58.2102075 10.1342933,59.0851649 C11.3640389,59.9601223 20.480165,58.1038911 22.7506654,59.0851649 C25.0211657,60.0664386 29.0397222,72.6552371 31.2476477,74.9447836 C33.4555732,77.2343302 50.9115218,65.3521118 50.9115218,64.2662292" id="Path-4" stroke="#5D6168" stroke-width="2.4" stroke-linecap="round"></path>
                <circle id="Oval" fill-opacity="0.4" fill="#354052" cx="8.91986613" cy="36.5" r="1"></circle>
                <circle id="Oval-Copy" fill-opacity="0.4" fill="#354052" cx="7.31986613" cy="35.7" r="1"></circle>
                <circle id="Oval-Copy-2" fill-opacity="0.4" fill="#354052" cx="7.31986613" cy="37.3" r="1"></circle>
                <circle id="Oval-Copy-3" fill-opacity="0.4" fill="#354052" cx="8.91986613" cy="34.9" r="1"></circle>
                <line x1="17.6198661" y1="28.4" x2="17.6198661" y2="28.4" id="Line" stroke="#979797" stroke-width="0.8" stroke-linecap="square"></line>
                <line x1="18.4198661" y1="29.2" x2="18.4198661" y2="29.2" id="Line-2" stroke="#979797" stroke-width="0.8" stroke-linecap="square"></line>
                <path d="M22,9 C22.1341445,15.083402 23.0214144,19.0340956 24.6618099,20.8520808 C27.1224031,23.5790586 31.0049738,22.1935215 32.7312276,24.7800538 C33.8820634,26.5044087 34.4574814,29.729269 34.4574814,34.4546348" id="Path-5" stroke="#5D6168" stroke-width="2.4" stroke-linecap="round"></path>
                <path d="M27,9 C27.26447,13.0876527 28.1961778,16.0278577 29.7951235,17.820615 C32.193542,20.5097509 33.8979741,19.3495539 36.2635712,22.160197 C37.8406359,24.0339591 38.5854985,27.5624923 38.498159,32.7457968" id="Path-6" stroke="#5D6168" stroke-width="2.4" stroke-linecap="round"></path>
                <circle id="Oval" fill="#5D6168" cx="36.5" cy="47.1" r="1"></circle>
                <circle id="Oval-Copy-4" fill="#5D6168" cx="38.1" cy="45.5" r="1"></circle>
            </g>
        </g>
    </g>
</svg>