<?xml version="1.0" encoding="UTF-8"?>
<svg width="77px" height="77px" viewBox="0 0 77 77" version="1.1" xmlns="http://www.w3.org/2000/svg" xmlns:xlink="http://www.w3.org/1999/xlink">
    <title>Group 12</title>
    <g id="Portfolio_2" stroke="none" stroke-width="1" fill="none" fill-rule="evenodd">
        <g id="Recommender" transform="translate(-390.000000, -768.000000)">
            <g id="Group-12" transform="translate(390.000000, 768.000000)">
                <circle id="Oval-Copy-3" fill="#F6F9FC" cx="38.5" cy="38.5" r="38.5"></circle>
                <g id="puzzle-(1)" transform="translate(25.000000, 16.000000)" fill-rule="nonzero">
                    <path d="M15.2234473,10.7458594 L23.842793,19.1222754 C26.0934082,21.3094336 26.4437402,24.7987793 24.6729199,27.389707 L20.5990137,33.3503613 C20.110166,34.0655273 19.8486914,34.9116504 19.8486914,35.7779004 L19.8486914,40.3179785 L13.3952344,40.3179785 L13.3952344,20.8733203 L13.3952344,12.1988672 L15.2234473,10.7458594 Z" id="Path" fill="#FFE4CA"></path>
                    <path d="M23.842793,19.1222754 L15.2234473,10.7458594 L13.7035547,11.9538281 L21.0798633,19.1221875 C23.3304785,21.3093457 23.6808105,24.7986914 21.9099902,27.3896191 L17.8359961,33.3502734 C17.3472363,34.0654395 17.0856738,34.9115625 17.0856738,35.7778125 L17.0856738,40.3178906 L19.8486035,40.3178906 L19.8486035,35.7778125 C19.8486035,34.9115625 20.110166,34.0654395 20.5989258,33.3502734 L24.672832,27.3896191 C26.4437402,24.7986914 26.0934082,21.3093457 23.842793,19.1222754 L23.842793,19.1222754 Z" id="Path" fill="#FCD1A8"></path>
                    <path d="M12.3487207,4.01677734 L12.3487207,2.86242188 C12.3487207,1.2815332 11.0670996,0 9.48629883,0 C7.90541016,0 6.62387695,1.2815332 6.62387695,2.86242188 L6.62387695,4.01677734 C6.62387695,4.32975586 6.37013672,4.5834082 6.05724609,4.5834082 L0.611894531,4.5834082 C0.296894531,4.5834082 0.0415722656,4.83873047 0.0415722656,5.15373047 L0.0415722656,10.8319922 C0.0415722656,11.0162988 0.190986328,11.1657129 0.375292969,11.1657129 L1.70797852,11.1657129 C3.26768555,11.1657129 4.58604492,12.3885352 4.62884766,13.9477148 C4.67323242,15.5653418 3.37517578,16.8905566 1.76756836,16.8905566 L0.375380859,16.8905566 C0.191074219,16.8905566 0.0415722656,17.0399707 0.0415722656,17.2242773 L0.0415722656,22.902627 C0.0415722656,23.217627 0.296982422,23.4729492 0.611982422,23.4729492 L14.0726074,23.4729492 C16.7559082,23.4729492 18.9311133,21.2977441 18.9311133,18.6144434 L18.9311133,5.15381836 C18.9311133,4.83881836 18.675791,4.58349609 18.360791,4.58349609 L12.9154395,4.58349609 C12.602373,4.58349609 12.3487207,4.32975586 12.3487207,4.01677734 Z" id="Path" fill="#F2ABBA"></path>
                    <g id="Group" transform="translate(8.437500, 0.000000)" fill="#F492A7">
                        <path d="M1.83761719,2.86242187 L1.83761719,4.01677734 C1.83761719,4.32975586 2.09135742,4.5834082 2.40424805,4.5834082 L4.47776367,4.5834082 C4.16478516,4.5834082 3.91113281,4.32966797 3.91113281,4.01677734 L3.91113281,2.86242187 C3.9112207,1.2815332 2.62959961,0 1.04879883,0 C0.682998047,0 0.333632812,0.0693457031 0.0120410156,0.194414063 C1.08017578,0.609873047 1.83761719,1.64733398 1.83761719,2.86242188 L1.83761719,2.86242187 Z" id="Path"></path>
                        <path d="M9.92320313,4.58349609 L7.8496875,4.58349609 C8.1646875,4.58349609 8.42000977,4.83881836 8.42000977,5.15381836 L8.42000977,18.6144434 C8.42000977,21.2977441 6.24480469,23.4729492 3.56150391,23.4729492 L5.63501953,23.4729492 C8.31832031,23.4729492 10.4935254,21.2977441 10.4935254,18.6144434 L10.4935254,5.15381836 C10.4935254,4.83881836 10.2382031,4.58349609 9.92320313,4.58349609 Z" id="Path"></path>
                    </g>
                    <path d="M10.9553906,35.3582227 C10.9389551,34.652373 10.812041,33.9533789 10.5793066,33.2868164 C9.92540039,31.4143945 10.2957715,29.3364844 11.5562109,27.805166 C11.8215527,27.4827832 11.8630371,27.0311133 11.6608887,26.665752 L7.64121094,18.8955176 C7.22856445,18.0978223 7.38544922,17.1241699 8.0278418,16.4964551 C8.83907227,15.7037695 10.1407324,15.7239844 10.927002,16.5413672 L17.7329896,23.6169897 C18.1625133,24.06353 18.3321863,24.6995895 18.1821393,25.3007341 L16.479668,32.1214746 L16.479668,32.1214746 L15.4681348,40.3178906 L11.0583105,40.3178906 L10.9553906,35.3582227 Z" id="Path" fill="#FFE4CA"></path>
                    <path d="M21.9914648,45 L9.37010742,45 C8.81200195,45 8.35945313,44.5475391 8.35945313,43.9893457 L8.35945313,41.328457 C8.35945313,40.7703516 8.81191406,40.3178027 9.37010742,40.3178027 L21.9914648,40.3178027 C22.5495703,40.3178027 23.0021191,40.7702637 23.0021191,41.328457 L23.0021191,43.9893457 C23.0021191,44.5475391 22.5495703,45 21.9914648,45 Z" id="Path" fill="#509EFF"></path>
                    <path d="M21.9674707,40.3178906 L19.6838086,40.3178906 C20.2551855,40.3178906 20.718457,40.7598926 20.718457,41.3050781 L20.718457,44.0128125 C20.718457,44.557998 20.2552734,45 19.6838086,45 L21.9674707,45 C22.5388477,45 23.0021191,44.557998 23.0021191,44.0128125 L23.0021191,41.3050781 C23.0021191,40.7598926 22.5388477,40.3178906 21.9674707,40.3178906 L21.9674707,40.3178906 Z" id="Path" fill="#0072FF"></path>
                </g>
            </g>
        </g>
    </g>
</svg>