<?xml version="1.0" encoding="UTF-8"?>
<svg width="77px" height="77px" viewBox="0 0 77 77" version="1.1" xmlns="http://www.w3.org/2000/svg" xmlns:xlink="http://www.w3.org/1999/xlink">
    <title>Group 19</title>
    <g id="Portfolio_2" stroke="none" stroke-width="1" fill="none" fill-rule="evenodd">
        <g id="Water-Fortune" transform="translate(-681.000000, -6015.000000)">
            <g id="Group-19" transform="translate(681.000000, 6015.000000)">
                <circle id="Oval-Copy-19" fill="#FAFAFA" cx="38.5" cy="38.5" r="38.5"></circle>
                <g id="chat-box" transform="translate(19.000000, 23.000000)" fill-rule="nonzero">
                    <g id="Group">
                        <g id="Group-16" transform="translate(15.000000, 11.000000)">
                            <path d="M24.1071429,0 L0.892857143,0 C0.399732143,0 0,0.397831694 0,0.888612228 L0,17.0067051 C0,17.4974857 0.399732143,17.8953174 0.892857143,17.8953174 L16.1625,17.8953174 C16.2808929,17.8953174 16.3944643,17.9421472 16.4782143,18.0254102 L19.3353571,20.8689693 C19.6166071,21.1488822 20.0975,20.9506328 20.0975,20.554756 L20.0975,18.3396235 C20.0975,18.0942776 20.2974107,17.8953174 20.5439286,17.8953174 L24.1071429,17.8953174 C24.6002679,17.8953174 25,17.4974857 25,17.0067051 L25,0.888612228 C25,0.397831694 24.6002679,0 24.1071429,0 Z" id="Path-Copy" fill="#FCD462" transform="translate(12.500000, 10.500000) scale(-1, 1) translate(-12.500000, -10.500000) "></path>
                            <path d="M3.2,17.1061896 L3.2,0.893810363 C3.2,0.4001589 3.55816,0 4,0 L0.8,0 C0.35816,0 0,0.4001589 0,0.893810363 L0,17.1061896 C0,17.5998411 0.35816,18 0.8,18 L4,18 C3.55816,18 3.2,17.5998411 3.2,17.1061896 Z" id="Path-Copy-2" fill="#EEB131"></path>
                            <path d="M19.2062598,5.63825364 L5.50683787,5.63825364 C5.14770493,5.63825364 4.85654886,5.41438697 4.85654886,5.13825364 C4.85654886,4.8621203 5.14770493,4.63825364 5.50683787,4.63825364 L19.2062598,4.63825364 C19.5653928,4.63825364 19.8565489,4.8621203 19.8565489,5.13825364 C19.8565489,5.41438697 19.5653928,5.63825364 19.2062598,5.63825364 Z" id="Path-Copy-3" fill="#EEB131" transform="translate(12.356549, 5.138254) scale(-1, 1) translate(-12.356549, -5.138254) "></path>
                            <path d="M19.2062598,9.63825364 L5.50683787,9.63825364 C5.14770493,9.63825364 4.85654886,9.41438697 4.85654886,9.13825364 C4.85654886,8.8621203 5.14770493,8.63825364 5.50683787,8.63825364 L19.2062598,8.63825364 C19.5653928,8.63825364 19.8565489,8.8621203 19.8565489,9.13825364 C19.8565489,9.41438697 19.5653928,9.63825364 19.2062598,9.63825364 Z" id="Path-Copy-4" fill="#EEB131" transform="translate(12.356549, 9.138254) scale(-1, 1) translate(-12.356549, -9.138254) "></path>
                            <path d="M12.2113876,13.6382536 L5.50171015,13.6382536 C5.14540907,13.6382536 4.85654886,13.414387 4.85654886,13.1382536 C4.85654886,12.8621203 5.14540907,12.6382536 5.50171015,12.6382536 L12.2113876,12.6382536 C12.5676886,12.6382536 12.8565489,12.8621203 12.8565489,13.1382536 C12.8565489,13.414387 12.5676886,13.6382536 12.2113876,13.6382536 Z" id="Path-Copy-5" fill="#EEB131" transform="translate(8.856549, 13.138254) scale(-1, 1) translate(-8.856549, -13.138254) "></path>
                        </g>
                        <path d="M19.6465696,0.0447505198 L0.727650728,0.0447505198 C0.325769231,0.0447505198 5.32907052e-15,0.370519751 5.32907052e-15,0.772401247 L5.32907052e-15,13.970894 C5.32907052e-15,14.3727755 0.325769231,14.6985447 0.727650728,14.6985447 L13.1719335,14.6985447 C13.26842,14.6985447 13.3609771,14.7368919 13.4292308,14.8050728 L15.7577131,17.1335551 C15.9869231,17.3627651 16.3788358,17.2004262 16.3788358,16.8762578 L16.3788358,15.0623701 C16.3788358,14.8614657 16.5417568,14.6985447 16.7426611,14.6985447 L19.6465696,14.6985447 C20.0484511,14.6985447 20.3742204,14.3727755 20.3742204,13.970894 L20.3742204,0.772401247 C20.3742204,0.370519751 20.0484511,0.0447505198 19.6465696,0.0447505198 Z" id="Path" fill="#7BB3F3"></path>
                        <path d="M2.91060291,13.970894 L2.91060291,0.772401247 C2.91060291,0.370519751 3.23637214,0.0447505198 3.63825364,0.0447505198 L0.727650728,0.0447505198 C0.325769231,0.0447505198 -9.65894031e-14,0.370519751 -9.65894031e-14,0.772401247 L-9.65894031e-14,13.970894 C-9.65894031e-14,14.3727755 0.325769231,14.6985447 0.727650728,14.6985447 L3.63825364,14.6985447 C3.23637214,14.6985447 2.91060291,14.3727755 2.91060291,13.970894 Z" id="Path" fill="#65A8F3"></path>
                    </g>
                    <g id="Group" transform="translate(3.856549, 3.638254)" fill="#D8ECFE">
                        <path d="M12.0790021,1.15398129 L0.582120582,1.15398129 C0.280727651,1.15398129 0.0363825364,0.909636175 0.0363825364,0.608243243 C0.0363825364,0.306850312 0.280727651,0.0625051975 0.582120582,0.0625051975 L12.0790021,0.0625051975 C12.380395,0.0625051975 12.6247401,0.306850312 12.6247401,0.608243243 C12.6247401,0.909636175 12.380395,1.15398129 12.0790021,1.15398129 Z" id="Path"></path>
                        <path d="M12.0790021,4.27909563 L0.582120582,4.27909563 C0.280727651,4.27909563 0.0363825364,4.03475052 0.0363825364,3.73335759 C0.0363825364,3.43196466 0.280727651,3.18761954 0.582120582,3.18761954 L12.0790021,3.18761954 C12.380395,3.18761954 12.6247401,3.43196466 12.6247401,3.73335759 C12.6247401,4.03475052 12.380395,4.27909563 12.0790021,4.27909563 Z" id="Path"></path>
                        <path d="M6.25779626,7.40428274 L0.582120582,7.40428274 C0.280727651,7.40428274 0.0363825364,7.15993763 0.0363825364,6.8585447 C0.0363825364,6.55715177 0.280727651,6.31280665 0.582120582,6.31280665 L6.25779626,6.31280665 C6.55918919,6.31280665 6.8035343,6.55715177 6.8035343,6.8585447 C6.8035343,7.15993763 6.55918919,7.40428274 6.25779626,7.40428274 Z" id="Path"></path>
                    </g>
                    <path d="M33.7477131,9.69594595 L23.677973,9.69594595 C23.2760915,9.69594595 22.9503222,9.37017672 22.9503222,8.96829522 L22.9503222,3.07432432 C22.9503222,2.67244283 23.2760915,2.3466736 23.677973,2.3466736 L33.7477131,2.3466736 C34.1495946,2.3466736 34.4753638,2.67244283 34.4753638,3.07432432 L34.4753638,8.96829522 C34.4753638,9.37017672 34.1495946,9.69594595 33.7477131,9.69594595 Z" id="Path" fill="#FCA7B1"></path>
                    <path d="M25.3281175,8.96829522 L25.3281175,3.07432432 C25.3281175,2.67244283 25.6067111,2.3466736 25.950395,2.3466736 L23.5726725,2.3466736 C23.2289887,2.3466736 22.950395,2.67244283 22.950395,3.07432432 L22.950395,8.96829522 C22.950395,9.37017672 23.2289887,9.69594595 23.5726725,9.69594595 L25.950395,9.69594595 C25.6067111,9.69594595 25.3281175,9.37017672 25.3281175,8.96829522 Z" id="Path" fill="#FB8896"></path>
                    <g id="Group" transform="translate(25.613306, 5.239085)" fill="#FFFFFF">
                        <path d="M5.06423077,1.50987526 L5.7918815,1.50987526 C5.99278586,1.50987526 6.15570686,1.34695426 6.15570686,1.1460499 L6.15570686,0.418399168 C6.15570686,0.217494802 5.99278586,0.0545738046 5.7918815,0.0545738046 L5.06423077,0.0545738046 C4.8633264,0.0545738046 4.70040541,0.217494802 4.70040541,0.418399168 L4.70040541,1.1460499 C4.70040541,1.34695426 4.86325364,1.50987526 5.06423077,1.50987526 Z" id="Path"></path>
                        <path d="M2.73574844,1.50987526 L3.46339917,1.50987526 C3.66430353,1.50987526 3.82722453,1.34695426 3.82722453,1.1460499 L3.82722453,0.418399168 C3.82722453,0.217494802 3.66430353,0.0545738046 3.46339917,0.0545738046 L2.73574844,0.0545738046 C2.53484407,0.0545738046 2.37192308,0.217494802 2.37192308,0.418399168 L2.37192308,1.1460499 C2.37192308,1.34695426 2.53477131,1.50987526 2.73574844,1.50987526 Z" id="Path"></path>
                        <path d="M0.407266112,1.50987526 L1.13491684,1.50987526 C1.33582121,1.50987526 1.4987422,1.34695426 1.4987422,1.1460499 L1.4987422,0.418399168 C1.4987422,0.217494802 1.33582121,0.0545738046 1.13491684,0.0545738046 L0.407266112,0.0545738046 C0.206361746,0.0545738046 0.0434407484,0.217494802 0.0434407484,0.418399168 L0.0434407484,1.1460499 C0.0434407484,1.34695426 0.206288981,1.50987526 0.407266112,1.50987526 Z" id="Path"></path>
                    </g>
                </g>
            </g>
        </g>
    </g>
</svg>