<?xml version="1.0" encoding="UTF-8"?>
<svg width="77px" height="77px" viewBox="0 0 77 77" version="1.1" xmlns="http://www.w3.org/2000/svg" xmlns:xlink="http://www.w3.org/1999/xlink">
    <title>Group 18</title>
    <g id="Portfolio_2" stroke="none" stroke-width="1" fill="none" fill-rule="evenodd">
        <g id="Water-Fortune" transform="translate(-390.000000, -6015.000000)">
            <g id="Group-18" transform="translate(390.000000, 6015.000000)">
                <circle id="Oval-Copy-18" fill="#FAFAFA" cx="38.5" cy="38.5" r="38.5"></circle>
                <g id="Group-15" transform="translate(27.000000, 20.000000)">
                    <path d="M23.5678498,3.85698529 C23.3792504,3.64852941 23.1132258,3.52941176 22.8313193,3.52941176 L0.993485299,3.52941176 C0.713563973,3.52941176 0.445554192,3.64852941 0.256954717,3.85698529 C0.0703404995,4.06345588 -0.0229666092,4.34139706 0.00482699763,4.62132353 L2.98271345,34.4007353 C3.03433015,34.9089706 3.46116054,35.2941176 3.97137175,35.2941176 L19.8534328,35.2941176 C20.363644,35.2941176 20.7904744,34.9089706 20.8401059,34.4007353 L23.8179923,4.62132353 C23.8477712,4.34139706 23.7564493,4.06345588 23.5678498,3.85698529 Z" id="Path-Copy-9" fill="#EFEFEF"></path>
                    <path d="M21.1764706,13.616043 L19.1825448,33.5294118 L4.88267263,33.5294118 L2.64705882,11.2626449 C5.16464194,10.4580644 8.99136829,9.91497248 12.0326087,12.4091722 C14.9731458,14.8229139 18.6790281,14.3803946 21.1764706,13.616043 Z" id="Path-Copy-10" fill="#7BB3F3"></path>
                    <g id="question" transform="translate(21.176471, 0.000000)" fill-rule="nonzero">
                        <path d="M4.41176471,0.00921415441 C1.98331801,0.00921415441 0.00762867647,1.98490349 0.00762867647,4.41335018 C0.00762867647,5.84896599 0.7109375,7.19855239 1.88894761,8.02346048 C2.04806985,8.13488051 2.11835937,8.33543199 2.06362592,8.52180607 C1.95436581,8.89393382 1.82543658,9.23959099 1.67775735,9.55691636 C2.06105239,9.3548943 2.48632812,9.0919807 2.88471967,8.76199449 C2.99712776,8.66888787 3.14740349,8.6357307 3.28860294,8.6728171 C3.65369945,8.76879596 4.03157169,8.81748621 4.41176471,8.81748621 C6.8402114,8.81748621 8.81592371,6.84179687 8.81592371,4.41332721 C8.81592371,1.98485754 6.8402114,0.00921415441 4.41176471,0.00921415441 Z" id="Path" fill="#FCD462"></path>
                        <g id="Group" transform="translate(2.895221, 1.723346)" fill="#EEB131">
                            <path d="M1.42359835,4.36192555 C1.0943704,4.36192555 0.826493566,4.63311121 0.826493566,4.96647518 C0.826493566,5.29981618 1.09434743,5.57102482 1.42359835,5.57102482 C1.75128676,5.57102482 2.02814798,5.2941636 2.02814798,4.96647518 C2.02814798,4.63876379 1.75128676,4.36192555 1.42359835,4.36192555 Z" id="Path"></path>
                            <path d="M1.52054228,0.0130514706 C0.497495404,0.0130514706 0.0208409926,0.627504596 0.0208409926,1.04278493 C0.0208409926,1.33855699 0.266980699,1.49816176 0.498575368,1.49816176 C0.927964154,1.49816176 0.750367647,0.923782169 1.49816176,0.923782169 C1.80813419,0.923782169 2.13933824,1.04910386 2.13933824,1.40085018 C2.13933824,2.12201287 0.975643382,2.04790901 0.975643382,3.37761949 C0.975643382,3.7738511 1.08678768,3.90758272 1.41608456,3.90758272 C1.80477941,3.90758272 1.88637408,3.72486213 1.88637408,3.57157629 C1.88637408,3.20298713 1.88639706,2.98046875 2.29246324,2.66295956 C3.81663603,1.4775046 3.11470588,0.0130514706 1.52054228,0.0130514706 Z" id="Path"></path>
                        </g>
                    </g>
                </g>
            </g>
        </g>
    </g>
</svg>