<?xml version="1.0" encoding="UTF-8"?>
<svg width="77px" height="77px" viewBox="0 0 77 77" version="1.1" xmlns="http://www.w3.org/2000/svg" xmlns:xlink="http://www.w3.org/1999/xlink">
    <title>Group 14</title>
    <g id="Portfolio_2" stroke="none" stroke-width="1" fill="none" fill-rule="evenodd">
        <g id="Water-Fortune" transform="translate(-681.000000, -5527.000000)">
            <g id="Group-14" transform="translate(681.000000, 5527.000000)">
                <circle id="Oval-Copy-4" fill="#FAFAFA" cx="38.5" cy="38.5" r="38.5"></circle>
                <g id="nap" transform="translate(19.000000, 29.000000)" fill-rule="nonzero">
                    <path d="M34.9957245,3.78710233 L34.9957245,17.9942905 L10.7251114,17.9942905 L10.7251114,4.3790685 C10.7251114,3.28005882 11.1616191,2.22604736 11.9387363,1.44893016 C12.7158535,0.671812966 13.769865,0.235305285 14.8688746,0.235305285 L16.5507985,0.235305285 C19.342707,0.235305285 22.1013505,0.841289106 24.6363165,2.01120381 C25.9002108,2.59399109 27.2232568,3.03880801 28.5825169,3.33794281 C28.942126,3.41712322 29.3039634,3.48569264 29.668029,3.54365106 C30.6779097,3.70555307 31.6990582,3.78695792 32.7218345,3.78709715 L34.9957245,3.78710233 Z" id="Path" fill="#FFD15C"></path>
                    <path d="M8.9492129,17.9942905 L8.9492129,14.4424934 L3.62151734,14.4424934 L0.676439006,15.9150322 C0.304601925,16.1009508 0.069720296,16.4809965 0.069720296,16.896723 C0.069720296,17.5028912 0.561116653,17.9942905 1.16728478,17.9942905 L8.9492129,17.9942905 Z" id="Path" fill="#FFBFA1"></path>
                    <path d="M16.6447732,18.5862567 L11.3170776,18.5862567 C10.9901437,18.5862567 10.7251114,18.3212244 10.7251114,17.9942905 C10.7251114,17.6673566 10.9901437,17.4023243 11.3170776,17.4023243 L16.6447732,17.4023243 C18.9333104,17.4023243 20.7885364,15.5470983 20.7885364,13.2585611 L20.7885364,4.97103467 C20.7885364,4.64410078 21.0535686,4.3790685 21.3805025,4.3790685 C21.7074364,4.3790685 21.9724687,4.64410078 21.9724687,4.97103467 L21.9724687,13.2585611 C21.9724687,14.6715538 21.4111595,16.026674 20.4120228,17.0258108 C19.4128861,18.0249475 18.0577659,18.5862567 16.6447732,18.5862567 Z" id="Path" fill="#F7C442"></path>
                    <path d="M10.7251114,17.9942905 L10.7251114,14.4424934 L8.35724672,14.4424934 L5.41216839,15.9150322 C5.04033131,16.1009508 4.80544968,16.4809965 4.80544968,16.896723 C4.80544968,17.5028912 5.29684604,17.9942905 5.90301416,17.9942905 L10.7251114,17.9942905 Z" id="Path" fill="#FFCEB6"></path>
                    <path d="M15.1145458,9.11479789 L13.3379073,10.8906964 L14.788954,12.3410135 L15.2876855,12.839745 L14.4500667,13.6773735 L13.6716312,12.8989453 L12.082202,11.3095088 C11.8513261,11.0780266 11.8513261,10.7033625 12.082202,10.4718803 L13.8321946,8.7226203 L10.7251122,7.39069641 L10.7251122,6.10243298 L14.7134768,7.8124649 L15.1019547,7.97895539 C15.2826477,8.05616529 15.4132243,8.21804005 15.4504479,8.41097985 C15.4876715,8.60391966 15.4266857,8.80275226 15.287684,8.94164038 L15.1145458,9.11479789 Z" id="Path" fill="#F7C442"></path>
                    <path d="M34.9957245,3.78710233 L34.9957245,17.9942905 L29.668029,17.9942905 L29.668029,3.54365624 C30.6779097,3.70555825 31.6990582,3.7869631 32.7218345,3.78710233 L34.9957245,3.78710233 Z" id="Path" fill="#718799"></path>
                    <path d="M11.9090438,15.0344596 L11.3170776,15.0344596 C10.9901437,15.0344596 10.7251114,14.7694273 10.7251114,14.4424934 C10.7251114,14.1155596 10.9901437,13.8505273 11.3170776,13.8505273 L11.7692909,13.8505273 L15.9314791,11.7694317 L13.885197,5.11896406 C13.8390241,4.96890129 13.8543557,4.8066425 13.9278188,4.66788391 C14.0012818,4.52912532 14.1268585,4.42523371 14.2769225,4.3790648 C14.5894043,4.28292511 14.9206584,4.45829995 15.0168062,4.77077918 L17.2105803,11.9005507 C17.2956389,12.1771191 17.1683262,12.4746506 16.9095389,12.6040885 L12.1737969,14.9719598 C12.0915937,15.0130614 12.0009498,15.0344596 11.9090438,15.0344596 L11.9090438,15.0344596 Z" id="Path" fill="#F7C442"></path>
                    <path d="M4.21348351,7.33889937 L8.9492166,7.33889937 C10.9108185,7.33889937 12.5010099,8.92909451 12.5010099,10.8906964 L12.5010099,10.8907031 C12.5010099,12.852305 10.9108185,14.4425001 8.9492166,14.4425001 L6.5813519,14.4425001 L4.21348351,12.0746354 L4.21348351,7.33889937 Z" id="Path" fill="#FFCEB6"></path>
                    <path d="M6.5813482,14.4424934 L4.80544968,14.4424934 C2.84384634,14.4424934 1.25365264,12.8522997 1.25365264,10.8906964 L1.25365264,7.61838584 C1.25365264,7.23026291 1.40783393,6.85803649 1.68227835,6.5835922 C1.95672278,6.30914792 2.32894927,6.15496702 2.7170722,6.15496702 C3.27137452,6.15496702 3.77810266,6.46814214 4.0259945,6.96392505 L4.21348129,7.33889937 L4.21348129,12.0746288 L6.5813482,14.4424934 Z" id="Path" fill="#C47220"></path>
                </g>
            </g>
        </g>
    </g>
</svg>