<?xml version="1.0" encoding="UTF-8"?>
<svg width="50px" height="50px" viewBox="0 0 50 50" version="1.1" xmlns="http://www.w3.org/2000/svg" xmlns:xlink="http://www.w3.org/1999/xlink">
    <title>Group 26</title>
    <g id="Portfolio_2" stroke="none" stroke-width="1" fill="none" fill-rule="evenodd">
        <g id="Goal-Setter" transform="translate(-696.000000, -4291.000000)">
            <g id="Group-26" transform="translate(696.000000, 4291.000000)">
                <circle id="Oval-Copy-6" fill="#F6F9FC" cx="25" cy="25" r="25"></circle>
                <g id="teamwork" transform="translate(10.000000, 16.000000)" fill-rule="nonzero">
                    <path d="M8.01374269,15.1247368 L0.485555556,15.1247368 C0.217368421,15.1247368 0,14.9073684 0,14.6391813 L0,14.13 C0,12.1809357 1.58005848,10.6008772 3.52912281,10.6008772 L6.95695906,10.6008772 C8.14011696,10.6008772 9.16555556,11.2759649 9.66918129,12.2619298" id="Path" fill="#4F9EFF"></path>
                    <path d="M6.95695906,10.6008772 L4.91824561,10.6008772 L4.91824561,15.1247368 L8.01374269,15.1247368 L9.66918129,12.2619298 C9.16561404,11.2759649 8.14011696,10.6008772 6.95695906,10.6008772 Z" id="Path" fill="#0072FF"></path>
                    <path d="M20.2671345,12.2483626 C20.7747953,11.2747368 21.8224561,10.5550877 22.9964912,10.5550877 L26.909883,10.5550877 C28.5908187,10.5550877 29.9534503,11.9177193 29.9534503,13.598655 L29.9534503,14.2819883 C29.9534503,14.7221637 29.5966082,15.0789474 29.1564912,15.0789474 L21.9388304,15.0789474" id="Path" fill="#F67A88"></path>
                    <circle id="Oval" fill="#FFD9B3" cx="14.9515205" cy="4.2802924" r="4.25918129"></circle>
                    <path d="M21.2195906,18.3533918 L8.68339181,18.3533918 C8.24321637,18.3533918 7.88643275,17.9965497 7.88643275,17.5564327 L7.88643275,15.6387719 C7.88643275,13.1878363 9.87333333,11.2009357 12.324269,11.2009357 L17.578655,11.2009357 C20.0295906,11.2009357 22.0164912,13.1878363 22.0164912,15.6387719 L22.0164912,17.5564327 C22.0164912,17.9965497 21.6597076,18.3533918 21.2195906,18.3533918 Z" id="Path" fill="#FFC96F"></path>
                    <g id="Group" transform="translate(1.871345, 0.000000)" fill="#FFCC99">
                        <circle id="Oval" cx="23.0818129" cy="5.3374269" r="3.01444444"></circle>
                        <circle id="Oval" cx="3.04690058" cy="5.3374269" r="3.01444444"></circle>
                        <path d="M13.111345,0.0211695906 L13.111345,8.53795322 C15.4491813,8.52111111 17.3392982,6.62140351 17.3392982,4.27959064 C17.3392982,1.93777778 15.4491813,0.0380116959 13.111345,0.0211695906 Z" id="Path"></path>
                    </g>
                    <path d="M17.5787135,11.2008772 L14.9826901,11.2008772 L14.9826901,18.3533333 L21.2195906,18.3533333 C21.6597661,18.3533333 22.0165497,17.9964912 22.0165497,17.5563743 L22.0165497,15.6387135 C22.0165497,13.1877778 20.0296491,11.2008772 17.5787135,11.2008772 Z" id="Path" fill="#F5A623"></path>
                    <path d="M24.9531579,2.32304094 L24.9531579,8.35187135 C26.6179532,8.35187135 27.9676023,7.0022807 27.9676023,5.3374269 C27.9676023,3.6725731 26.6180117,2.32304094 24.9531579,2.32304094 L24.9531579,2.32304094 Z" id="Path" fill="#FFB366"></path>
                    <path d="M26.909883,10.5550877 L24.9372515,10.5550877 L24.9372515,15.0789474 L29.1564912,15.0789474 C29.5966667,15.0789474 29.9534503,14.7221053 29.9534503,14.2819883 L29.9534503,13.598655 C29.9534503,11.9177193 28.5908187,10.5550877 26.909883,10.5550877 L26.909883,10.5550877 Z" id="Path" fill="#F85C70"></path>
                    <path d="M4.91824561,2.32304094 C4.91292398,2.32304094 4.90766082,2.32339181 4.90233918,2.32345029 L4.90233918,8.35146199 C4.90766082,8.35146199 4.91292398,8.35187135 4.91824561,8.35187135 C6.58309942,8.35187135 7.93269006,7.0022807 7.93269006,5.3374269 C7.93269006,3.67263158 6.58309942,2.32304094 4.91824561,2.32304094 L4.91824561,2.32304094 Z" id="Path" fill="#FFB366"></path>
                </g>
            </g>
        </g>
    </g>
</svg>