<?xml version="1.0" encoding="UTF-8"?>
<svg width="77px" height="77px" viewBox="0 0 77 77" version="1.1" xmlns="http://www.w3.org/2000/svg" xmlns:xlink="http://www.w3.org/1999/xlink">
    <title>Group 17</title>
    <g id="Portfolio_2" stroke="none" stroke-width="1" fill="none" fill-rule="evenodd">
        <g id="Water-Fortune" transform="translate(-100.000000, -6015.000000)">
            <g id="Group-17" transform="translate(100.000000, 6015.000000)">
                <circle id="Oval-Copy-14" fill="#FAFAFA" cx="38.5" cy="38.5" r="38.5"></circle>
                <g id="puzzle" transform="translate(18.000000, 21.000000)" fill-rule="nonzero">
                    <path d="M10.7324219,0 C8.6559375,0 6.97265625,1.68328125 6.97265625,3.75976562 L6.97265625,12.9882812 C6.97265625,13.5545703 7.43175781,14.0136719 7.99804688,14.0136719 L11.4160156,14.0136719 L11.4160156,15.5517578 C11.4160156,16.9675488 12.5637012,18.1152344 13.9794922,18.1152344 C15.3952832,18.1152344 16.5429688,16.9675488 16.5429688,15.5517578 L16.5429688,14.0136719 L20.9863281,14.0136719 L22.3535156,9.5703125 L22.3535156,4.44335938 L20.9863281,0 L10.7324219,0 Z" id="Path" fill="#80BBB2"></path>
                    <path d="M31.2402344,0 L20.9863281,0 L20.9863281,4.44335937 L19.4482422,4.44335937 C18.0324512,4.44335937 16.8847656,5.59104492 16.8847656,7.00683594 C16.8847656,8.42262695 18.0324512,9.5703125 19.4482422,9.5703125 L20.9863281,9.5703125 L20.9863281,14.0136719 L25.4296875,15.3808594 L30.5566406,15.3808594 L35,14.0136719 L35,3.75976562 C35,1.68328125 33.3167187,0 31.2402344,0 Z" id="Path" fill="#FCD462"></path>
                    <path d="M3.75976562,35 L12.9882812,35 C13.5545703,35 14.0136719,34.5408984 14.0136719,33.9746094 L14.0136719,30.5566406 L15.5517578,30.5566406 C16.9675488,30.5566406 18.1152344,29.4089551 18.1152344,27.9931641 C18.1152344,26.577373 16.9675488,25.4296875 15.5517578,25.4296875 L14.0136719,25.4296875 L14.0136719,22.0117188 C14.0136719,21.4454297 13.5545703,20.9863281 12.9882812,20.9863281 L10.5957031,20.9863281 C10.0294141,20.9863281 9.5703125,21.4454297 9.5703125,22.0117188 L9.5703125,22.5244141 C9.5703125,23.9402051 8.42262695,25.0878906 7.00683594,25.0878906 C5.59104492,25.0878906 4.44335938,23.9402051 4.44335938,22.5244141 L4.44335938,22.0117188 C4.44335938,21.4454297 3.98425781,20.9863281 3.41796875,20.9863281 L1.02539062,20.9863281 C0.459101562,20.9863281 0,21.4454297 0,22.0117188 L0,31.2402344 C0,33.3167187 1.68328125,35 3.75976562,35 Z" id="Path" fill="#FCA7B1"></path>
                    <path d="M25.4296875,12.4755859 L25.4296875,14.0136719 L20.9863281,14.0136719 L20.9863281,17.4316406 C20.9863281,17.9979297 21.4454297,18.4570312 22.0117188,18.4570312 L22.5244141,18.4570312 C23.9402051,18.4570312 25.0878906,19.6047168 25.0878906,21.0205078 C25.0878906,22.4362988 23.9402051,23.5839844 22.5244141,23.5839844 L22.0117188,23.5839844 C21.4454297,23.5839844 20.9863281,24.0430859 20.9863281,24.609375 L20.9863281,27.0019531 C20.9863281,27.5682422 21.4454297,28.0273438 22.0117188,28.0273438 L31.2402344,28.0273438 C33.3167187,28.0273438 35,26.3440625 35,24.2675781 L35,14.0136719 L30.5566406,14.0136719 L30.5566406,12.4755859 C30.5566406,11.0597949 29.4089551,9.91210938 27.9931641,9.91210938 C26.577373,9.91210938 25.4296875,11.0597949 25.4296875,12.4755859 Z" id="Path" fill="#7BB3F3"></path>
                </g>
            </g>
        </g>
    </g>
</svg>