<?xml version="1.0" encoding="UTF-8"?>
<svg width="77px" height="77px" viewBox="0 0 77 77" version="1.1" xmlns="http://www.w3.org/2000/svg" xmlns:xlink="http://www.w3.org/1999/xlink">
    <title>Group 31</title>
    <g id="Portfolio_2" stroke="none" stroke-width="1" fill="none" fill-rule="evenodd">
        <g id="Goal-Setter" transform="translate(-390.000000, -893.000000)">
            <g id="Group-20" transform="translate(390.000000, 893.000000)">
                <circle id="Oval-Copy-3" fill="#F6F9FC" cx="38.5" cy="38.5" r="38.5"></circle>
                <g id="podium" transform="translate(16.000000, 15.000000)" fill-rule="nonzero">
                    <path d="M28.9855479,4.502818 L31.3701076,1.03464775 C31.5090705,0.832544031 31.5246575,0.570117417 31.4104403,0.35295499 C31.2962231,0.135880626 31.071135,0 30.8258806,0 L16.3283072,0 C15.9634638,0 15.6678376,0.295714286 15.6678376,0.660469667 L15.6678376,8.34516634 C15.6678376,8.70992172 15.9634638,9.00563601 16.3283072,9.00563601 L30.8258806,9.00563601 C31.071135,9.00563601 31.2962231,8.86966732 31.4104403,8.65268102 C31.5246575,8.43560665 31.5090705,8.17309198 31.3701076,7.97098826 L28.9855479,4.502818 Z" id="Path" fill="#F85C70"></path>
                    <path d="M8.06530333,21.94318 C7.70045988,21.94318 7.40483366,21.6474658 7.40483366,21.2827104 L7.40483366,8.29981409 C7.40483366,7.93505871 7.70045988,7.63934442 8.06530333,7.63934442 C8.43014677,7.63934442 8.72577299,7.93505871 8.72577299,8.29981409 L8.72577299,21.2826223 C8.72577299,21.6474658 8.43014677,21.94318 8.06530333,21.94318 Z" id="Path" fill="#D0CFD1"></path>
                    <path d="M44.306683,36.5035421 L29.6691781,36.5035421 C29.3043346,36.5035421 29.0087084,36.7992564 29.0087084,37.1640117 L29.0087084,44.3928082 C29.0087084,44.7575636 29.3043346,45.0532779 29.6691781,45.0532779 L44.306683,45.0532779 C44.6714384,45.0532779 44.9671526,44.7575636 44.9671526,44.3928082 L44.9671526,37.1640117 C44.9671526,36.7991683 44.6715264,36.5035421 44.306683,36.5035421 Z" id="Path" fill="#FFC96F"></path>
                    <path d="M30.0214286,29.3740802 L15.3840117,29.3740802 C15.0191683,29.3740802 14.7235421,29.6697945 14.7235421,30.0345499 L14.7235421,44.3928082 C14.7235421,44.7575636 15.0191683,45.0532779 15.3840117,45.0532779 L30.0214286,45.0532779 C30.386272,45.0532779 30.6818982,44.7575636 30.6818982,44.3928082 L30.6818982,30.0345499 C30.6818982,29.6697945 30.386272,29.3740802 30.0214286,29.3740802 Z" id="Path" fill="#F5A623"></path>
                    <path d="M15.3840117,20.6222407 L0.746506849,20.6222407 C0.381751468,20.6222407 0.086037182,20.917955 0.086037182,21.2827104 L0.086037182,44.3928082 C0.086037182,44.7575636 0.381751468,45.0532779 0.746506849,45.0532779 L15.3840117,45.0532779 C15.7488552,45.0532779 16.0444814,44.7575636 16.0444814,44.3928082 L16.0444814,21.2827104 C16.0444814,20.917955 15.7488552,20.6222407 15.3840117,20.6222407 Z" id="Path" fill="#F89A00"></path>
                    <path d="M44.306683,36.5035421 L42.2812427,36.5035421 C42.645998,36.5035421 42.9417123,36.7992564 42.9417123,37.1640117 L42.9417123,44.3928082 C42.9417123,44.7575636 42.645998,45.0532779 42.2812427,45.0532779 L44.306683,45.0532779 C44.6714384,45.0532779 44.9671526,44.7575636 44.9671526,44.3928082 L44.9671526,37.1640117 C44.9671526,36.7991683 44.6715264,36.5035421 44.306683,36.5035421 Z" id="Path" fill="#F5A623"></path>
                    <path d="M30.0214286,29.3740802 L27.9959883,29.3740802 C28.3608317,29.3740802 28.6564579,29.6697945 28.6564579,30.0345499 L28.6564579,44.3928082 C28.6564579,44.7575636 28.3608317,45.0532779 27.9959883,45.0532779 L30.0214286,45.0532779 C30.386272,45.0532779 30.6818982,44.7575636 30.6818982,44.3928082 L30.6818982,30.0345499 C30.6818982,29.6697945 30.386272,29.3740802 30.0214286,29.3740802 Z" id="Path" fill="#F89A00"></path>
                    <path d="M15.3840117,20.6222407 L13.3585714,20.6222407 C13.7234149,20.6222407 14.0190411,20.917955 14.0190411,21.2827104 L14.0190411,44.3928082 C14.0190411,44.7575636 13.7234149,45.0532779 13.3585714,45.0532779 L15.3840117,45.0532779 C15.7488552,45.0532779 16.0444814,44.7575636 16.0444814,44.3928082 L16.0444814,21.2827104 C16.0444814,20.917955 15.7488552,20.6222407 15.3840117,20.6222407 Z" id="Path" fill="#EC9100"></path>
                    <path d="M23.6252642,3.45989237 L16.616184,0.0659589041 C16.4117025,-0.0330234834 16.1702348,-0.0199021526 15.9775538,0.100831703 C15.7848728,0.22165362 15.6678376,0.433003914 15.6678376,0.660381605 L15.6678376,8.34507828 C15.6678376,8.59825832 15.8126125,8.82915851 16.0404305,8.93950098 L23.0495988,12.3333464 C23.1407436,12.3774658 23.2391977,12.3993933 23.3374755,12.3993933 C23.4597065,12.3993933 23.5814971,12.3654892 23.688229,12.2985616 C23.880998,12.1777397 23.9979452,11.9663894 23.9979452,11.7389237 L23.9979452,4.05431507 C23.9979452,3.80113503 23.8531703,3.57023483 23.6252642,3.45989237 Z" id="Path" fill="#F23951"></path>
                    <path d="M23.3374755,3.3938454 L8.06530333,3.3938454 C7.70045988,3.3938454 7.40483366,3.68955969 7.40483366,4.05431507 L7.40483366,11.7390117 C7.40483366,12.1037671 7.70045988,12.3994814 8.06530333,12.3994814 L23.3374755,12.3994814 C23.702319,12.3994814 23.9979452,12.1037671 23.9979452,11.7390117 L23.9979452,4.05431507 C23.9979452,3.68955969 23.7022309,3.3938454 23.3374755,3.3938454 Z" id="Path" fill="#F67A88"></path>
                    <path d="M28.9855479,4.502818 L31.3701076,1.03464775 C31.5090705,0.832544031 31.5246575,0.570117417 31.4104403,0.35295499 C31.2962231,0.135880626 31.071135,0 30.8258806,0 L28.8004403,0 C29.0456947,0 29.2707828,0.135880626 29.385,0.35295499 C29.4992172,0.570029354 29.4836301,0.832544031 29.3446673,1.03464775 L26.9601076,4.502818 L29.3446673,7.97098826 C29.4836301,8.17309198 29.4992172,8.43551859 29.385,8.65268102 C29.2707828,8.86975538 29.0457828,9.00563601 28.8004403,9.00563601 L30.8258806,9.00563601 C31.071135,9.00563601 31.2962231,8.86966732 31.4104403,8.65268102 C31.5246575,8.43560665 31.5090705,8.17309198 31.3701076,7.97098826 L28.9855479,4.502818 Z" id="Path" fill="#F23951"></path>
                    <path d="M23.3374755,3.3938454 L21.3120352,3.3938454 C21.6768787,3.3938454 21.9725049,3.68955969 21.9725049,4.05431507 L21.9725049,11.7390117 C21.9725049,12.1037671 21.6768787,12.3994814 21.3120352,12.3994814 L23.3374755,12.3994814 C23.702319,12.3994814 23.9979452,12.1037671 23.9979452,11.7390117 L23.9979452,4.05431507 C23.9979452,3.68955969 23.7022309,3.3938454 23.3374755,3.3938454 Z" id="Path" fill="#F54A60"></path>
                </g>
            </g>
        </g>
    </g>
</svg>