<?xml version="1.0" encoding="UTF-8"?>
<svg width="50px" height="50px" viewBox="0 0 50 50" version="1.1" xmlns="http://www.w3.org/2000/svg" xmlns:xlink="http://www.w3.org/1999/xlink">
    <title>Group 24</title>
    <g id="Portfolio_2" stroke="none" stroke-width="1" fill="none" fill-rule="evenodd">
        <g id="Goal-Setter" transform="translate(-122.000000, -4291.000000)">
            <g id="Group-24" transform="translate(122.000000, 4291.000000)">
                <circle id="Oval" fill="#F6F9FC" cx="25" cy="25" r="25"></circle>
                <g id="goal-(2)" transform="translate(13.000000, 13.000000)">
                    <path d="M19.8731934,4.96899414 L12.295166,4.96899414 L12.295166,0 L19.8732422,0 C20.065625,0 20.2234375,0.164697266 20.2234375,0.366796875 L20.2234375,4.60219727 C20.2234375,4.80429687 20.065625,4.96899414 19.8731934,4.96899414 L19.8731934,4.96899414 Z" id="Path" fill="#F67A88"></path>
                    <path d="M11.9297363,0.366796875 C11.9297363,0.164697266 12.0930664,0 12.2951172,0 C12.498584,0 12.6619141,0.164697266 12.6619141,0.366796875 L12.6619141,24.6346191 C12.6619141,24.8366699 12.498584,25 12.2951172,25 C12.0930176,25 11.9297363,24.8366211 11.9297363,24.6346191 L11.9297363,0.366796875 Z" id="Path" fill="#6A7C94" fill-rule="nonzero"></path>
                    <g id="Group" transform="translate(0.000000, 7.884115)" fill-rule="nonzero">
                        <path d="M0.481640625,10.3627116 L6.97734375,10.3627116 C7.24306641,10.3627116 7.45898438,10.5799967 7.45898438,10.8444499 L7.45898438,14.1247721 C7.45898438,14.3904948 7.24306641,14.6078288 6.97734375,14.6078288 L0.481640625,14.6078288 C0.217285156,14.6078288 0,14.3905436 0,14.1247721 L0,10.8444499 C0,10.5800456 0.217285156,10.3627116 0.481640625,10.3627116 Z" id="Path" fill="#F67A88"></path>
                        <path d="M11.3414551,10.2893717 L12.7352539,10.0942057 L13.9297363,10.2893717 C14.2785645,10.2893717 14.6121094,10.5758464 14.6121094,10.9247233 L14.6121094,14.0458659 C14.6121094,14.3946452 14.327002,14.6797526 13.9781738,14.6797526 L11.1462891,14.6797526 C10.5178711,14.6797526 9.93520508,14.5261393 9.46181641,14.2673503 C9.14345703,14.0929362 9.21958008,14.1247721 8.84311523,14.1247721 L7.45898438,14.1247721 L7.45898438,10.8444499 L9.43549805,10.8444499 C9.93657227,10.8444499 9.79956055,10.8126139 10.2272461,10.6132487 C10.6646484,10.4084147 10.789209,10.2893717 11.3414551,10.2893717 L11.3414551,10.2893717 Z" id="Path" fill="#FFE4CA"></path>
                        <path d="M13.6585449,5.90035807 L12.1512207,5.70519206 L11.0231445,5.90035807 C10.6743652,5.90035807 10.3878418,6.18546549 10.3878418,6.53424479 L10.3878418,9.65548503 C10.3878418,10.0042643 10.6743652,10.2893717 11.0231445,10.2893717 L13.8550781,10.2893717 C14.4986816,10.2893717 15.0938477,10.128776 15.5741211,9.85753581 C15.823291,9.71627604 15.7526855,9.73570964 16.048877,9.73570964 L17.2973633,9.73570964 L17.8828125,7.92667643 L17.2973633,6.45533854 L15.605957,6.45533854 C15.0882813,6.45533854 15.2405762,6.44703776 14.8031738,6.23658854 C14.3588867,6.0235026 14.2232422,5.90035807 13.6585449,5.90035807 L13.6585449,5.90035807 Z" id="Path" fill="#FFE4CA"></path>
                        <path d="M0.481640625,1.58326823 L7.22094727,1.58326823 C7.48666992,1.58326823 7.70400391,1.79923503 7.70400391,2.06490885 L7.89916992,3.59440104 L7.70400391,5.34527995 C7.70400391,5.60963542 7.48666992,5.8269694 7.22094727,5.8269694 L0.481640625,5.8269694 C0.217285156,5.8269694 0,5.6110026 0,5.34527995 L0,2.06486003 C0,1.7991862 0.217285156,1.58326823 0.481640625,1.58326823 Z" id="Path" fill="#4F9EFF"></path>
                        <path d="M13.9782227,1.50992839 C14.3270508,1.50992839 14.6121582,1.79503581 14.6121582,2.1438151 L14.6121582,5.26500651 C14.6121582,5.61383464 14.3270508,5.90035807 13.9782227,5.90035807 L11.1463379,5.90035807 C10.6397461,5.90035807 10.1649902,5.80069987 9.75117188,5.62628581 C9.01342773,5.31490885 9.24042969,5.34532878 8.37675781,5.34532878 L7.70405273,5.34532878 L7.70405273,2.06490885 L9.78300781,2.06490885 C10.0391113,1.18741862 11.1519043,0.394303385 12.5387695,0.279459635 C12.5692383,0.275309245 12.5996582,0.272526042 12.630127,0.272526042 C12.9719727,0.272526042 13.2488281,0.549332682 13.2488281,0.891227214 C13.2488281,1.23312174 12.9720215,1.50992839 12.630127,1.50992839 L13.9782227,1.50992839 Z" id="Path" fill="#FFE4CA"></path>
                        <path d="M24.5183594,5.9722819 L17.7790527,5.9722819 C17.5133301,5.9722819 17.2974121,6.18956706 17.2974121,6.45538737 L17.2974121,9.73575846 C17.2974121,10.0001139 17.5146973,10.2173991 17.7790527,10.2173991 L24.5183594,10.2173991 C24.784082,10.2173991 25,10.0001139 25,9.73575846 L25,6.45538737 C25,6.18956706 24.784082,5.9722819 24.5183594,5.9722819 L24.5183594,5.9722819 Z" id="Path" fill="#FFC96F"></path>
                        <path d="M23.7791992,8.51495768 C23.7791992,8.77931315 23.5632812,8.99659831 23.2975586,8.99659831 L17.2973633,8.99659831 L17.2973633,9.73570964 C17.2973633,10.0000651 17.5146484,10.2173503 17.7790039,10.2173503 L24.5183105,10.2173503 C24.7840332,10.2173503 24.9999512,10.0000651 24.9999512,9.73570964 L24.9999512,6.45533854 C24.9999512,6.18956706 24.7840332,5.97223307 24.5183105,5.97223307 L23.7791504,5.97223307 L23.7791504,8.51495768 L23.7791992,8.51495768 Z" id="Path" fill="#F5A623"></path>
                        <path d="M6.48320313,4.12447917 C6.48320313,4.39025065 6.26591797,4.60616862 6.00014648,4.60616862 L0,4.60616862 L0,5.34527995 C0,5.60963542 0.217285156,5.8269694 0.481640625,5.8269694 L7.22094727,5.8269694 C7.48666992,5.8269694 7.70400391,5.6110026 7.70400391,5.34527995 L7.70400391,2.06486003 C7.70400391,1.7991862 7.48666992,1.5832194 7.22094727,1.5832194 L6.48320312,1.5832194 L6.48320313,4.12447917 Z" id="Path" fill="#0072FF"></path>
                        <path d="M6.48320313,12.9039714 C6.48320313,13.169694 6.26591797,13.3870768 6.00014648,13.3870768 L0,13.3870768 L0,14.1247721 C0,14.3904948 0.217285156,14.6078288 0.481640625,14.6078288 L7.22094727,14.6078288 C7.48666992,14.6078288 7.70400391,14.3905436 7.70400391,14.1247721 L7.70400391,10.8444499 C7.70400391,10.5799967 7.48666992,10.3627116 7.22094727,10.3627116 L6.48320312,10.3627116 L6.48320313,12.9039714 Z" id="Path" fill="#F85C70"></path>
                        <path d="M16.048877,8.51495768 C15.5505859,8.51495768 15.4066895,8.54816081 14.9720215,8.79454753 C14.6370605,8.98419596 14.2370605,9.06998698 13.8550781,9.06998698 C12.6993164,9.06998698 11.5436035,9.06998698 10.3878418,9.06998698 L10.3878418,9.65548503 C10.3878418,10.0042643 10.6743652,10.2893717 11.0231445,10.2893717 L11.3415039,10.2893717 C12.199707,10.2893717 13.0675293,10.3046061 13.9256836,10.2893717 C14.5430176,10.2782878 15.1118652,10.1191569 15.5741699,9.85753581 C15.8233398,9.71627604 15.7527344,9.73570964 16.0489258,9.73570964 L17.2974121,9.73570964 L17.2974121,8.99659831 L17.2974121,8.51495768 C16.8807129,8.51495768 16.4654785,8.51495768 16.048877,8.51495768 L16.048877,8.51495768 Z" id="Path" fill="#FCD1A8"></path>
                        <path d="M12.6757813,13.4590007 C12.3823242,13.4590007 11.6556641,13.4590007 11.1463379,13.4590007 C10.7712402,13.4590007 10.379541,13.378776 10.0487305,13.1960124 C9.5684082,12.9330241 9.41894531,12.9067057 8.92480469,12.9053385 L7.83271484,12.9053385 L7.70400391,12.9053385 L7.70400391,14.1247721 L8.84316406,14.1247721 C9.21962891,14.1247721 9.14350586,14.0929362 9.46186523,14.2673503 C9.93525391,14.5261882 10.5179199,14.6797526 11.1463379,14.6797526 L13.9782227,14.6797526 C14.3270508,14.6797526 14.6121582,14.3946452 14.6121582,14.0458659 L14.6121582,10.9247233 C14.6121582,10.5758464 14.2785645,10.2893717 13.9297852,10.2893717 C13.8356934,10.2741374 13.5104004,10.2948893 13.3913574,10.2948893 L13.3913574,12.8389323 C13.3913574,13.3150553 12.9691895,13.4590007 12.6757813,13.4590007 L12.6757813,13.4590007 Z" id="Path" fill="#FCD1A8"></path>
                        <path d="M13.3913574,4.04425456 C13.3913574,4.56051432 13.1436035,4.67955729 12.6619141,4.67955729 L11.1463379,4.67955729 C10.8335449,4.67955729 10.5151855,4.6241862 10.2258789,4.50104167 C9.57119141,4.22560221 9.39262695,4.15084635 8.92480469,4.13151042 L7.83964844,4.13151042 L7.70400391,4.13151042 L7.70400391,5.34532878 L8.37670898,5.34532878 C9.24038086,5.34532878 9.01337891,5.31490885 9.75112305,5.62628581 C10.1912598,5.81178385 10.670166,5.90035807 11.1462891,5.90035807 L13.6584961,5.90035807 L13.9782227,5.90035807 C14.3270508,5.90035807 14.6121582,5.61383464 14.6121582,5.26500651 L14.6121582,2.1438151 C14.6121582,1.79498698 14.3270508,1.50992839 13.9782227,1.50992839 L13.3913574,1.50992839 L13.3913574,4.04425456 Z" id="Path" fill="#FCD1A8"></path>
                    </g>
                </g>
            </g>
        </g>
    </g>
</svg>