<?xml version="1.0" encoding="UTF-8"?>
<svg width="77px" height="77px" viewBox="0 0 77 77" version="1.1" xmlns="http://www.w3.org/2000/svg" xmlns:xlink="http://www.w3.org/1999/xlink">
    <title>Group 30</title>
    <g id="Portfolio_2" stroke="none" stroke-width="1" fill="none" fill-rule="evenodd">
        <g id="Goal-Setter" transform="translate(-100.000000, -893.000000)">
            <g id="Group-30" transform="translate(100.000000, 893.000000)">
                <g id="Group-19" fill="#F6F9FC">
                    <circle id="Oval" cx="38.5" cy="38.5" r="38.5"></circle>
                </g>
                <g id="willpower" transform="translate(16.000000, 15.000000)" fill-rule="nonzero">
                    <path d="M32.3618792,9.61606727 L32.0738729,29.806241 C31.9911872,29.9084368 31.9289406,30.0245684 31.8899204,30.1490614 C31.8601907,30.2456829 31.8443968,30.3469497 31.8443968,30.4491455 L31.8443968,44.8405437 C31.8443968,45.6303314 31.2019569,46.2693339 30.4121692,46.2650816 L19.0105555,46.2041144 C18.2268066,46.1999336 17.5935643,45.5633467 17.5935643,44.7795978 L17.5935643,31.3884178 C17.5935643,31.022371 17.4439868,30.6721181 17.1792067,30.4184867 L16.6858798,29.9437408 C15.6165401,28.9180666 15.0126558,27.5003321 15.0126558,26.018493 L15.0126558,15.0352318 L15.0126558,9.61606727 L32.3618792,9.61606727 Z" id="Path" fill="#FFDFCF"></path>
                    <g id="Group">
                        <path d="M15.0126558,15.0352318 L15.0126558,17.4915543 C15.642089,17.8398561 16.3649849,18.0388592 17.1337761,18.0388592 C18.0788085,18.0388592 18.9543478,17.7381249 19.6719481,17.2287253 C20.3895484,17.7381249 21.2650877,18.0388592 22.2101201,18.0388592 C23.2353298,18.0388592 24.1788757,17.6851689 24.9274135,17.0946629 C25.609524,17.5302029 26.4184502,17.7838343 27.2859997,17.7838343 C28.1535491,17.7838343 28.9624753,17.5302029 29.6445858,17.0946629 C30.3636726,17.6619425 31.2630885,18.0097799 32.2416598,18.0362579 L32.3617863,9.61597436 L15.0126558,9.61597436 L15.0126558,15.0352318 L15.0126558,15.0352318 Z" id="Path" fill="#FCBCB1"></path>
                        <g id="Group" transform="translate(14.586128, 5.760127)" fill="#FFDFCF">
                            <path d="M10.1621645,2.80146557 L10.1621645,7.8824549 C10.1621645,9.28439545 9.02593298,10.4206269 7.62399243,10.4206269 C6.22205187,10.4206269 5.0858204,9.28439545 5.0858204,7.8824549 L5.0858204,2.80146557 C5.0858204,1.39952502 6.22205187,0.263293541 7.62399243,0.263293541 C8.32449818,0.263293541 8.95997024,0.547583673 9.41892228,1.00653572 C9.87787433,1.46641681 10.1621645,2.10003077 10.1621645,2.80146557 Z" id="Path"></path>
                            <path d="M15.2381369,2.5464406 L15.2381369,7.62742992 C15.2381369,9.02937048 14.1019054,10.165602 12.6999649,10.165602 C11.2980243,10.165602 10.1617928,9.02937048 10.1617928,7.62742992 L10.1617928,2.5464406 C10.1617928,1.14450005 11.2980243,0.00826856921 12.6999649,0.00826856921 C13.4004706,0.00826856921 14.0359427,0.292558701 14.4948947,0.751510745 C14.9538468,1.21139184 15.2381369,1.8450058 15.2381369,2.5464406 Z" id="Path"></path>
                            <path d="M20.3140164,2.80146557 L20.3140164,7.8824549 C20.3140164,9.28439545 19.177785,10.4206269 17.7758444,10.4206269 C16.3739038,10.4206269 15.2376724,9.28439545 15.2376724,7.8824549 L15.2376724,2.80146557 C15.2376724,1.39952502 16.3739038,0.263293541 17.7758444,0.263293541 C18.4763502,0.263293541 19.1118222,0.547583673 19.5707743,1.00653572 C20.0297263,1.46641681 20.3140164,2.10003077 20.3140164,2.80146557 Z" id="Path"></path>
                            <path d="M5.0858204,2.80146557 L5.0858204,7.8824549 C5.0858204,9.28439545 3.94958892,10.4206269 2.54764837,10.4206269 C1.14663687,10.4206269 0.0104053905,9.28439545 0.0104053905,7.8824549 L0.0104053905,2.80146557 C0.0104053905,1.39952502 1.14663687,0.263293541 2.54764837,0.263293541 C3.24815412,0.263293541 3.88362618,0.547583673 4.34257822,1.00653572 C4.80153027,1.46641681 5.0858204,2.10003077 5.0858204,2.80146557 Z" id="Path"></path>
                        </g>
                        <g id="Group" transform="translate(14.586128, 5.760127)" fill="#FFCEBF">
                            <path d="M7.18873123,7.8824549 L7.18873123,2.80146557 C7.18873123,1.77467651 7.79846853,0.891147369 8.67540139,0.491375983 C8.3548782,0.345328896 7.99895811,0.263293541 7.62399243,0.263293541 C6.22205187,0.263293541 5.0858204,1.39952502 5.0858204,2.80146557 L5.0858204,7.8824549 C5.0858204,9.28439545 6.22205187,10.4206269 7.62399243,10.4206269 C7.99914392,10.4206269 8.35497111,10.3385916 8.67540139,10.1925445 C7.79856143,9.7927731 7.18873123,8.90915106 7.18873123,7.8824549 L7.18873123,7.8824549 Z" id="Path"></path>
                            <path d="M12.2646108,7.62742992 L12.2646108,2.5464406 C12.2646108,1.51974444 12.8743481,0.636122397 13.7512809,0.236351012 C13.4307577,0.0903039244 13.0748376,0.00826856921 12.699872,0.00826856921 C11.2979314,0.00826856921 10.1616999,1.14450005 10.1616999,2.5464406 L10.1616999,7.62742992 C10.1616999,9.02937048 11.2979314,10.165602 12.699872,10.165602 C13.0750235,10.165602 13.4308506,10.0835666 13.7512809,9.93751951 C12.874441,9.53774813 12.2646108,8.65421899 12.2646108,7.62742992 L12.2646108,7.62742992 Z" id="Path"></path>
                            <path d="M12.2646108,7.62742992 L12.2646108,2.5464406 C12.2646108,1.51974444 12.8743481,0.636122397 13.7512809,0.236351012 C13.4307577,0.0903039244 13.0748376,0.00826856921 12.699872,0.00826856921 C11.2979314,0.00826856921 10.1616999,1.14450005 10.1616999,2.5464406 L10.1616999,7.62742992 C10.1616999,9.02937048 11.2979314,10.165602 12.699872,10.165602 C13.0750235,10.165602 13.4308506,10.0835666 13.7512809,9.93751951 C12.874441,9.53774813 12.2646108,8.65421899 12.2646108,7.62742992 L12.2646108,7.62742992 Z" id="Path"></path>
                            <path d="M17.3405832,7.8824549 L17.3405832,2.80146557 C17.3405832,1.77467651 17.9503205,0.891147369 18.8272534,0.491375983 C18.5067302,0.345328896 18.1508101,0.263293541 17.7758444,0.263293541 C16.3739038,0.263293541 15.2376724,1.39952502 15.2376724,2.80146557 L15.2376724,7.8824549 C15.2376724,9.28439545 16.3739038,10.4206269 17.7758444,10.4206269 C18.1509959,10.4206269 18.5068231,10.3385916 18.8272534,10.1925445 C17.9503205,9.7927731 17.3405832,8.90915106 17.3405832,7.8824549 L17.3405832,7.8824549 Z" id="Path"></path>
                            <path d="M17.3405832,7.8824549 L17.3405832,2.80146557 C17.3405832,1.77467651 17.9503205,0.891147369 18.8272534,0.491375983 C18.5067302,0.345328896 18.1508101,0.263293541 17.7758444,0.263293541 C16.3739038,0.263293541 15.2376724,1.39952502 15.2376724,2.80146557 L15.2376724,7.8824549 C15.2376724,9.28439545 16.3739038,10.4206269 17.7758444,10.4206269 C18.1509959,10.4206269 18.5068231,10.3385916 18.8272534,10.1925445 C17.9503205,9.7927731 17.3405832,8.90915106 17.3405832,7.8824549 L17.3405832,7.8824549 Z" id="Path"></path>
                            <path d="M17.3405832,7.8824549 L17.3405832,2.80146557 C17.3405832,1.77467651 17.9503205,0.891147369 18.8272534,0.491375983 C18.5067302,0.345328896 18.1508101,0.263293541 17.7758444,0.263293541 C16.3739038,0.263293541 15.2376724,1.39952502 15.2376724,2.80146557 L15.2376724,7.8824549 C15.2376724,9.28439545 16.3739038,10.4206269 17.7758444,10.4206269 C18.1509959,10.4206269 18.5068231,10.3385916 18.8272534,10.1925445 C17.9503205,9.7927731 17.3405832,8.90915106 17.3405832,7.8824549 L17.3405832,7.8824549 Z" id="Path"></path>
                            <path d="M2.11331622,7.8824549 L2.11331622,2.80146557 C2.11331622,1.77486232 2.72296062,0.891333179 3.59933605,0.491561794 C3.27871995,0.345421801 2.92270695,0.263293541 2.54764837,0.263293541 C1.14663687,0.263293541 0.0104053905,1.39952502 0.0104053905,2.80146557 L0.0104053905,7.8824549 C0.0104053905,9.28439545 1.14663687,10.4206269 2.54764837,10.4206269 C2.92298567,10.4206269 3.27881286,10.3385916 3.59933605,10.1923587 C2.72296062,9.79258729 2.11331622,8.90905815 2.11331622,7.8824549 Z" id="Path"></path>
                        </g>
                        <g id="Group" transform="translate(22.854697, 9.569243)">
                            <path d="M9.22038372,20.1525471 L9.39207266,8.11592584 C9.39207266,8.11592584 7.83897523,8.1168549 6.70515929,8.11778395 C4.83962143,8.11936334 3.03948888,8.88787575 1.80784369,10.2890731 C0.848318038,11.3806171 0.232541896,12.7849732 0.137406897,14.335748 L0.0354898139,16.0060919 L0.0354898139,16.0626712 C0.0354898139,16.0781864 0.0354898139,16.0937945 0.0356756244,16.1093096 C0.0518411418,18.3523216 1.89768309,20.1525471 4.14078797,20.1525471 L9.22038372,20.1525471 L9.22038372,20.1525471 Z" id="Path" fill="#FCBCB1"></path>
                            <g transform="translate(2.972969, 0.000000)" fill="#FFCEBF" id="Path">
                                <path d="M3.99659899,0.0132854539 C1.82112914,0.173825764 0.0682853749,1.96801238 0.0261992867,4.15212241 C0.0124493064,4.86452004 0.173082522,5.55034676 0.487845583,6.16389317 C0.786907654,6.2877359 1.11458455,6.3564858 1.45842696,6.3564858 C2.86036751,6.3564858 3.99659899,5.22025433 3.99659899,3.81831377 L3.99659899,0.0132854539 Z"></path>
                                <path d="M9.07247852,4.07333874 L9.07247852,0.152922078 C8.63963286,0.0525843839 8.19489532,0.000371621088 7.74569833,0.000371621088 L4.31359178,0.000371621088 C4.20675071,0.000371621088 4.10111742,0.00566722159 3.99613446,0.0133783592 L3.99613446,4.07333874 C3.99613446,5.4752793 5.13236594,6.61151077 6.53430649,6.61151077 C7.93624705,6.61151077 9.07247852,5.47518639 9.07247852,4.07333874 Z"></path>
                                <path d="M6.09904529,3.18488563 L6.09904529,0.000371621088 L4.31359178,0.000371621088 C4.20675071,0.000371621088 4.10111742,0.00566722159 3.99613446,0.0133783592 L3.99613446,3.18488563 L6.09904529,3.18488563 Z"></path>
                            </g>
                            <path d="M8.68422739,7.2675149 C8.71219188,6.91382453 8.43273282,6.61141787 8.07802049,6.61141787 L7.23295414,6.61141787 C6.57611387,6.61141787 5.98244918,6.34570879 5.55229777,5.91555738 C5.11192678,5.47518639 4.84389507,4.86238322 4.85690181,4.18798385 C4.88207914,2.88498741 5.98328533,1.85838416 7.28656048,1.85838416 L10.7187599,1.85838416 C11.4870865,1.85838416 12.2210382,2.0776406 12.8472197,2.46877179 C13.4743303,2.86083204 13.9936708,3.42476704 14.3299879,4.11598226 C14.597555,4.66412337 14.7359839,5.26614953 14.7359839,5.87653717 L14.7359839,12.4282169 C14.7359839,13.1185031 14.4972174,13.7874211 14.0605626,14.3216264 L9.21926885,20.2369051 C9.14290072,20.3421667 9.09969977,20.4019048 9.05473362,20.5235178 L6.4005229,20.5695059 C3.91149776,20.5695059 1.89368816,18.5516963 1.89368816,16.0626712 L1.99216775,14.4489066 C2.15103576,11.8596367 4.29714754,9.84173418 6.89013369,9.84173418 L8.48067194,9.84173418 L8.68422739,7.2675149 Z" id="Path" fill="#FFDFCF"></path>
                        </g>
                        <g fill="#F67A88" id="Path">
                            <path d="M42.7333592,45.4399685 L42.7333592,33.1415402 L44.7443867,33.1415402 C44.908922,33.1415402 45.0020131,32.9528496 44.9018612,32.8222248 L40.4774334,27.0570811 C40.3979994,26.9535846 40.2420115,26.9535846 40.1625775,27.0570811 L35.7381497,32.8222248 C35.6379978,32.9527567 35.730996,33.1415402 35.8956241,33.1415402 L37.9065587,33.1415402 L37.9065587,45.4459145 C37.9065587,45.8679831 38.2491934,46.2099674 38.671262,46.2092254 L41.9714431,46.2033711 C42.3923969,46.202535 42.7333592,45.8610152 42.7333592,45.4399685 L42.7333592,45.4399685 Z"></path>
                            <path d="M7.05792061,45.5505258 L7.05792061,33.1415402 L9.06894812,33.1415402 C9.23348336,33.1415402 9.32657444,32.9528496 9.22642256,32.8222248 L4.80199479,27.0570811 C4.72256078,26.9535846 4.56657283,26.9535846 4.48713883,27.0570811 L0.0626181533,32.8222248 C-0.0375337299,32.9527567 0.0554644474,33.1415402 0.220092589,33.1415402 L2.2310272,33.1415402 L2.2310272,45.5568434 C2.2310272,45.9176874 2.52395752,46.2100603 2.8848016,46.2095037 L6.40646884,46.2031853 C6.76647677,46.2024421 7.05792061,45.9104408 7.05792061,45.5505258 L7.05792061,45.5505258 Z"></path>
                            <path d="M9.77465657,18.3697878 L9.77465657,6.16203507 L11.7855912,6.16203507 C11.9501264,6.16203507 12.0432175,5.97325156 11.9430656,5.84271965 L7.51873076,0.0776688074 C7.43929675,-0.0258276656 7.2833088,-0.0258276656 7.20387479,0.0776688074 L2.77944702,5.84281255 C2.67929514,5.97334446 2.77229332,6.16212797 2.93692146,6.16212797 L4.94785607,6.16212797 L4.94785607,18.375455 C4.94785607,18.8478783 5.33127613,19.2305552 5.80360653,19.2297204 L8.92197198,19.2241447 C9.39318752,19.2232156 9.77465657,18.8410033 9.77465657,18.3697878 L9.77465657,18.3697878 Z"></path>
                        </g>
                    </g>
                </g>
            </g>
        </g>
    </g>
</svg>