<?xml version="1.0" encoding="UTF-8"?>
<svg width="77px" height="77px" viewBox="0 0 77 77" version="1.1" xmlns="http://www.w3.org/2000/svg" xmlns:xlink="http://www.w3.org/1999/xlink">
    <title>Group 13</title>
    <g id="Portfolio_2" stroke="none" stroke-width="1" fill="none" fill-rule="evenodd">
        <g id="Water-Fortune" transform="translate(-390.000000, -5527.000000)">
            <g id="Group-13" transform="translate(390.000000, 5527.000000)">
                <circle id="Oval-Copy-3" fill="#FAFAFA" cx="38.5" cy="38.5" r="38.5"></circle>
                <g id="open-book" transform="translate(21.000000, 25.000000)" fill-rule="nonzero">
                    <path d="M35,3.171875 L35,24.609375 C35,25.265625 34.4166895,25.8489355 33.7604395,25.8489355 L19.8333105,25.8489355 C19.5416211,26.8697461 18.59375,27.5989355 17.5,27.5989355 C16.40625,27.5989355 15.4583105,26.8697461 15.1666895,25.8489355 L1.23956055,25.8489355 C0.583310547,25.8489355 0,25.265625 0,24.609375 L0,3.171875 C0,2.515625 0.583310547,1.93231445 1.23956055,1.93231445 L33.7603711,1.93231445 C34.4166895,1.93231445 35,2.44268555 35,3.171875 Z" id="Path" fill="#415A6B"></path>
                    <rect id="Rectangle" fill="#CED6E0" x="2.33331055" y="15.5676855" width="30.2604395" height="7.65625"></rect>
                    <path d="M17.5,23.2239355 C12.6875,20.671875 7.14581055,20.671875 2.33331055,23.2239355 C2.33331055,16.1509961 2.33331055,9.00518555 2.33331055,1.93224609 C7.14581055,-0.619814453 12.6875,-0.619814453 17.5,1.93224609 C17.5,9.00518555 17.5,16.078125 17.5,23.2239355 Z" id="Path" fill="#E8EAE9"></path>
                    <path d="M32.6666895,23.2239355 C27.8541895,20.671875 22.3125,20.671875 17.5,23.2239355 C17.5,16.1509961 17.5,9.00518555 17.5,1.93224609 C22.3125,-0.619814453 27.8541895,-0.619814453 32.6666895,1.93224609 C32.6666895,9.00518555 32.6666895,16.078125 32.6666895,23.2239355 Z" id="Path" fill="#F3F3F3"></path>
                    <path d="M9.98956055,2.515625 C8.23956055,2.515625 6.48956055,2.80731445 4.8125,3.31768555 L4.8125,4.33849609 C6.48956055,3.75518555 8.23956055,3.46349609 9.98956055,3.46349609 L9.98956055,2.515625 Z" id="Path" fill="#F3705A"></path>
                    <g id="Group" transform="translate(4.785156, 5.537109)" fill="#ADB3BA">
                        <path d="M0.02734375,0.770205078 L0.02734375,1.86395508 C3.3815332,0.697265625 6.8815332,0.697265625 10.2356543,1.86395508 L10.2356543,0.770205078 C6.9544043,-0.250673828 3.3815332,-0.250673828 0.02734375,0.770205078 Z" id="Path"></path>
                        <path d="M0.02734375,3.83270508 L0.02734375,4.92645508 C3.3815332,3.75976562 6.8815332,3.75976562 10.2356543,4.92645508 L10.2356543,3.83270508 C6.9544043,2.73895508 3.3815332,2.73895508 0.02734375,3.83270508 Z" id="Path"></path>
                        <path d="M0.02734375,6.82226563 L0.02734375,7.91601563 C3.3815332,6.74932617 6.8815332,6.74932617 10.2356543,7.91601563 L10.2356543,6.82226563 C6.9544043,5.80145508 3.3815332,5.80145508 0.02734375,6.82226563 Z" id="Path"></path>
                        <path d="M0.02734375,9.88476563 L0.02734375,10.9785156 C3.3815332,9.81182617 6.8815332,9.81182617 10.2356543,10.9785156 L10.2356543,9.88476563 C6.9544043,8.79101563 3.3815332,8.79101563 0.02734375,9.88476563 Z" id="Path"></path>
                        <path d="M0.02734375,12.9472656 L0.02734375,14.0410156 C3.3815332,12.8743262 6.8815332,12.8743262 10.2356543,14.0410156 L10.2356543,12.9472656 C6.9544043,11.8535156 3.3815332,11.8535156 0.02734375,12.9472656 Z" id="Path"></path>
                    </g>
                </g>
                <g id="drop" transform="translate(44.000000, 32.000000)" fill-rule="nonzero">
                    <path d="M4.98626168,5.05918224 C4.98626168,3.68848131 2.49404206,0 2.49404206,0 C2.49404206,0 0.00184579439,3.68848131 0.00184579439,5.05918224 C0.00184579439,6.42988318 1.12334112,7.55140187 2.49406542,7.55140187 C3.86478972,7.55140187 4.98626168,6.42990654 4.98626168,5.05918224 Z" id="Path" fill="#8AD7F8"></path>
                    <path d="M2.49404206,6.87850467 C1.49714953,6.87850467 0.674719626,6.05607477 0.674719626,5.05918224 C0.674719626,4.93457944 0.774415888,4.83488318 0.899018692,4.83488318 C1.0236215,4.83488318 1.12331776,4.93457944 1.12331776,5.05918224 C1.12331776,5.80684579 1.7463785,6.42990654 2.49404206,6.42990654 C2.61864486,6.42990654 2.71834112,6.5296028 2.71834112,6.65420561 C2.71834112,6.77880841 2.61866822,6.87850467 2.49404206,6.87850467 Z" id="Path" fill="#FFFFFF"></path>
                </g>
            </g>
        </g>
    </g>
</svg>