<?xml version="1.0" encoding="UTF-8"?>
<svg width="762px" height="405px" viewBox="0 0 762 405" version="1.1" xmlns="http://www.w3.org/2000/svg" xmlns:xlink="http://www.w3.org/1999/xlink">
    <title>Artboard</title>
    <g id="Artboard" stroke="none" stroke-width="1" fill="none" fill-rule="evenodd">
        <g id="Group-2" transform="translate(3.000000, 8.000000)">
            <circle id="Oval" stroke="#F4F2F2" stroke-width="0.5" fill="#F4F2F2" cx="17.5" cy="17.5" r="17.5"></circle>
            <g id="girl" transform="translate(9.000000, 4.500000)" fill-rule="nonzero">
                <path d="M17.3228261,12.9994533 C17.2239092,14.2233663 17.0744527,14.6918522 16.5048913,14.8516315 C15.8967424,15.0440228 14.486963,14.4228196 14.0592391,14.3326098 C13.7021837,14.2559842 13.1625,14.0456533 12.3103299,14.4440228 C11.8652245,14.6733707 11.3249967,14.8608663 10.8608777,14.5951098 L6.54510815,14.0358707 C5.60597772,13.854888 4.65218261,13.9168522 3.62935272,14.2266315 C3.35543967,14.3092402 2.91087446,14.4434793 2.47446141,14.4440228 C1.96521576,14.4440228 1.46630652,14.2608641 1.25869402,13.6005446 C0.986411413,12.7347875 1.30489511,11.7130446 1.65217228,10.8277185 L1.74239837,10.5978272 C2.05598533,9.80325543 2.37989837,8.98152283 2.53913261,8.15108804 C2.62401221,7.72825079 2.64198463,7.29470956 2.59239348,6.86629783 C2.58261467,6.78695 2.56957174,6.7049 2.55598478,6.61793804 C2.51305,6.3489163 2.4684788,6.07119565 2.51468043,5.79292826 C2.51467391,5.09946087 4.52228261,3.08586957 4.52228261,3.08586957 L16.0674011,5.28967663 L16.5217391,6.08913043 C16.8206522,6.776625 17.2554348,8.24292826 17.3777174,9.42934783 C17.5499957,11.0641348 17.4152141,12.1092424 17.3228261,12.9994533 L17.3228261,12.9994533 Z" id="Path" fill="#FFC380"></path>
                <path d="M13.056269,17.8064495 C13.5681685,17.115213 13.8137951,16.4004647 13.7132728,15.8945098 C13.6518663,15.5855658 13.4708304,15.3444505 13.1597636,15.1575239 C12.5356125,14.7826087 11.7076576,14.7826087 11.0423745,14.7826087 L6.77607011,14.7826087 C6.72278351,14.7826087 6.66728569,14.7824672 6.60957663,14.7821842 C6.06662935,14.7802201 5.32391087,14.7775647 4.71902609,14.9472973 C4.05793587,15.1327913 3.70653261,15.4837168 3.64475435,16.0200299 C3.56832772,16.6825533 4.00210163,17.3569125 4.33503533,17.8064495 L13.056269,17.8064495 Z" id="Path" fill="#29CCB1"></path>
                <path d="M5.09571848,16.3983043 C5.70813587,16.1663598 6.2344962,16.0051234 6.5695587,15.7961902 C6.81412391,15.6440272 6.95652174,15.4663087 6.95652174,15.2173913 C6.95652174,13.4782609 3.91304348,13.4782609 3.91304348,10.4347826 L3.91304348,6.08695652 C3.91304348,4.34782609 4.98423913,2.17391304 9.13043478,2.17391304 C15.2173913,2.17391304 13.9130435,6.52173913 13.9130435,8.26086957 L14.0777174,8.09619565 C14.3414999,7.83243765 14.7381892,7.75354226 15.0828206,7.89629607 C15.4274521,8.03904988 15.6521739,8.37534207 15.6521739,8.74836957 L15.6521739,8.94076087 C15.6521739,9.31799899 15.4225722,9.65725102 15.072287,9.79728261 L13.6293522,10.374463 C12.7994565,13.1103261 10.4347826,13.425 10.4347826,15.2173913 C10.4347826,15.4663087 10.5771804,15.6440272 10.8217457,15.7961902 C11.1599576,16.007087 11.6930804,16.169387 12.3128777,16.4048636 L8.68565761,18.7137679 L5.09571848,16.3983043 Z" id="Path" fill="#FAD6BC"></path>
                <path d="M8.06481413,12.6485587 C7.71607036,12.6492932 7.37361843,12.5557009 7.07372717,12.3776897 C6.96008249,12.3082643 6.88472711,12.1903853 6.86942282,12.0580948 C6.85411852,11.9258043 6.90056957,11.7938339 6.99536141,11.7002951 C7.1371201,11.5606815 7.35502748,11.5338073 7.52645924,11.6347957 C7.74852201,11.7614614 8.00778782,11.8067731 8.25964946,11.7629348 C8.54072975,11.7153874 8.79858837,11.5773346 8.99400163,11.3697761 C9.12540124,11.2278777 9.33459545,11.1895423 9.50777337,11.2756261 C9.62964265,11.3359754 9.71616199,11.4499781 9.74149515,11.583591 C9.76682832,11.7172038 9.7280436,11.8549644 9.63672283,11.9557348 C9.30919294,12.3085175 8.8738277,12.5426043 8.39891522,12.6212783 C8.28845974,12.6393142 8.17673238,12.6484357 8.06481413,12.6485587 L8.06481413,12.6485587 Z" id="Path" fill="#EB5857"></path>
                <path d="M4.71821957,7.4551 L5.02604565,7.14678478 C5.14245378,7.03018868 5.31476652,6.98940818 5.4710875,7.0414587 L6.46955,7.373925 C6.50386853,7.385352 6.53504001,7.40464464 6.56057554,7.4302625 C6.62678014,7.49667826 6.64649558,7.59641699 6.61053969,7.68302689 C6.57458381,7.7696368 6.49002687,7.82608696 6.39625,7.82608696 L4.87206522,7.82608696 C4.78416967,7.82608696 4.7049216,7.77316098 4.67125222,7.69196985 C4.63758283,7.61077873 4.65611785,7.51730131 4.71821957,7.4551 L4.71821957,7.4551 Z" id="Path" fill="#FFC380"></path>
                <path d="M10.9339543,7.4551 L10.6261283,7.14678478 C10.5097201,7.03018868 10.3374074,6.98940818 10.1810864,7.0414587 L9.18262391,7.373925 C9.14830538,7.385352 9.1171339,7.40464464 9.09159837,7.4302625 C9.02539342,7.49667861 9.00567815,7.596418 9.04163474,7.68302815 C9.07759132,7.7696383 9.16214926,7.82608696 9.25592663,7.82608696 L10.7801114,7.82608696 C10.8680065,7.82608696 10.9472535,7.77315948 10.9809222,7.6919686 C11.0145909,7.61077772 10.9960557,7.51730096 10.9339543,7.4551 L10.9339543,7.4551 Z" id="Path" fill="#FFC380"></path>
                <path d="M17.3913043,25.6521739 L0,25.6521739 C0,18.7782609 3.01847826,17.1875 5.07880435,16.4048967 C5.21086576,16.3548875 5.33913043,16.3076141 5.46195652,16.2630429 C5.62228261,16.204887 5.77445652,16.1499951 5.9157663,16.0967353 C6.14261544,16.0172182 6.36150512,15.9165962 6.5695587,15.7961918 C7.82188756,16.7635903 9.56941679,16.7635903 10.8217457,15.7961918 C11.0297992,15.9165962 11.2486889,16.0172182 11.475538,16.0967353 C11.6168478,16.1499962 11.7690245,16.2048875 11.9293478,16.2630429 C12.0521739,16.307612 12.1804413,16.3548875 12.3125,16.4048967 C14.3728261,17.1875 17.3913043,18.7782609 17.3913043,25.6521739 Z" id="Path" fill="#F2ABBA"></path>
                <path d="M6.29130435,25.6521739 L-7.72329061e-16,25.6521739 C-7.72329061e-16,18.7782609 3.01847826,17.1875 5.07880435,16.4048967 C4.99402935,19.6010821 5.40055,22.7043478 6.29130435,25.6521739 Z" id="Path" fill="#29CCB1"></path>
                <path d="M17.3913043,25.6521739 L11.1,25.6521739 C11.9907549,22.7043478 12.3972755,19.6010821 12.3125033,16.4048967 C14.3728261,17.1875 17.3913043,18.7782609 17.3913043,25.6521739 Z" id="Path" fill="#29CCB1"></path>
                <path d="M4.33519457,18.023841 C4.26623314,18.0239518 4.20132152,17.9912893 4.16031522,17.935844 C4.0005639,17.7241544 3.85669435,17.5009349 3.72988478,17.2680136 C3.69333646,17.1993965 3.69621381,17.116485 3.73743103,17.0505667 C3.77864825,16.9846483 3.85193012,16.9457591 3.92962283,16.9485744 C4.00731554,16.9513896 4.07759058,16.9954807 4.1139288,17.0642092 C4.23061713,17.2779491 4.36291837,17.4827872 4.50975489,17.6770549 C4.55861885,17.7430145 4.56616074,17.830874 4.52925279,17.9041963 C4.49234483,17.9775186 4.41728202,18.0237977 4.33519457,18.023841 L4.33519457,18.023841 Z" id="Path" fill="#0C6C71"></path>
                <path d="M13.0561098,18.023841 C12.9740359,18.0237689 12.8989984,17.9774809 12.8621054,17.9041662 C12.8252124,17.8308515 12.8327534,17.7430089 12.8816022,17.6770549 C13.0238506,17.486508 13.1492089,17.2839175 13.2562522,17.0715864 C13.3098629,16.9642908 13.4402507,16.9206973 13.5476134,16.9741735 C13.6549761,17.0276498 13.698733,17.1579829 13.6453913,17.2654125 C13.5270567,17.5005496 13.3883757,17.7248822 13.2309348,17.935844 C13.1899503,17.9912862 13.1250558,18.0239504 13.0561098,18.023841 L13.0561098,18.023841 Z" id="Path" fill="#0C6C71"></path>
                <path d="M5.65217391,8.26086957 C5.46454025,8.26094133 5.29812306,8.38138344 5.23941685,8.55959674 C5.20844837,8.55007011 5.1781163,8.53990652 5.14932391,8.52821685 C5.08268398,8.50350112 5.02251599,8.46399614 4.97334565,8.41267337 C4.93790977,8.37029352 4.91991286,8.31602576 4.92300272,8.26086957 L4.9230163,8.25966196 L4.92300272,8.25845489 C4.92266438,8.20823384 4.8955265,8.16201829 4.85183384,8.13725501 C4.80814119,8.11249173 4.75454894,8.11295261 4.71128863,8.13846365 C4.66802832,8.1639747 4.64168926,8.21065013 4.64220696,8.26086957 C4.64277646,8.32370809 4.65559441,8.38583322 4.67995,8.4437625 C4.70517328,8.50216266 4.74264937,8.554462 4.7898413,8.59712011 C4.87356019,8.66956028 4.97457251,8.71914547 5.08308859,8.74107011 C5.12926877,8.75201865 5.1761325,8.75985151 5.22336304,8.76451576 C5.2600944,8.99262493 5.4689013,9.152109 5.69863717,9.12752414 C5.92837304,9.10293928 6.09870416,8.90288227 6.08633495,8.67216602 C6.07396574,8.44144977 5.88322146,8.26075082 5.65217391,8.26086957 L5.65217391,8.26086957 Z" id="Path" fill="#084C4F"></path>
                <path d="M10,8.26086957 C9.81236633,8.26094133 9.64594915,8.38138344 9.58724293,8.55959674 C9.55627446,8.55007011 9.52594239,8.53990652 9.49715,8.52821685 C9.43051006,8.50350112 9.37034207,8.46399614 9.32117174,8.41267337 C9.28573585,8.37029352 9.26773895,8.31602576 9.2708288,8.26086957 L9.27084239,8.25966196 L9.2708288,8.25845489 C9.27049047,8.20823384 9.24335258,8.16201829 9.19965993,8.13725501 C9.15596728,8.11249173 9.10237503,8.11295261 9.05911471,8.13846365 C9.0158544,8.1639747 8.98951534,8.21065013 8.99003304,8.26086957 C8.99060255,8.32370809 9.0034205,8.38583322 9.02777609,8.4437625 C9.05299937,8.50216266 9.09047546,8.554462 9.13766739,8.59712011 C9.22138627,8.66956028 9.32239859,8.71914547 9.43091467,8.74107011 C9.47709486,8.75201865 9.52395858,8.75985151 9.57118913,8.76451576 C9.60792049,8.99262493 9.81672739,9.152109 10.0464633,9.12752414 C10.2761991,9.10293928 10.4465302,8.90288227 10.434161,8.67216602 C10.4217918,8.44144977 10.2310476,8.26075082 10,8.26086957 L10,8.26086957 Z" id="Path" fill="#084C4F"></path>
                <path d="M3.06032935,24.2326022 C3.37282935,24.5929348 3.69565217,24.9657674 3.69565217,25.6521739 L3.26086957,25.6521739 C3.26086957,25.1277228 3.02771739,24.8581598 2.73206522,24.5168402 C2.36848261,24.0972902 1.95652174,23.6217467 1.95652174,22.6086957 C1.95652174,21.2309728 2.57771359,20.6021783 3.29727826,19.8739092 L3.32336522,19.8472788 C3.3779065,19.7918406 3.4578954,19.7697379 3.53316287,19.7893072 C3.60843034,19.8088765 3.66752425,19.8671402 3.68815641,19.9421233 C3.70878858,20.0171064 3.68781977,20.0974 3.6331587,20.1527201 L3.60651522,20.179894 C2.90108043,20.893475 2.39130435,21.4092353 2.39130435,22.6086957 C2.39130435,23.4597777 2.71630435,23.8347859 3.06032935,24.2326022 L3.06032935,24.2326022 Z" id="Path" fill="#0C6C71"></path>
                <path d="M15.4347826,22.6086957 C15.4347826,23.6217467 15.0228217,24.0972902 14.6592391,24.5168402 C14.363587,24.8581598 14.1304348,25.1277228 14.1304348,25.6521739 L13.6956522,25.6521739 C13.6956522,24.9657674 14.018475,24.5929348 14.330975,24.2326022 C14.675,23.8347859 15,23.4597777 15,22.6086957 C15,21.4092353 14.4902239,20.893475 13.7847902,20.1798946 L13.7581467,20.1527207 C13.7034857,20.0974005 13.6825169,20.0171069 13.703149,19.9421239 C13.7237812,19.8671408 13.7828751,19.8088771 13.8581426,19.7893078 C13.93341,19.7697385 14.0133989,19.7918411 14.0679402,19.8472793 L14.0940272,19.8739098 C14.8135908,20.6021783 15.4347826,21.2309728 15.4347826,22.6086957 L15.4347826,22.6086957 Z" id="Path" fill="#0C6C71"></path>
                <path d="M3.3788,20.201087 C2.9113415,19.261491 2.50382532,18.2932483 2.15869565,17.3021663 C2.70815833,17.1168449 3.2576163,16.9317051 3.80706957,16.7467467 C4.12662348,17.6567875 4.50141275,18.5464802 4.92934783,19.4108647 C4.41249783,19.6744571 3.89564855,19.9378645 3.3788,20.201087 L3.3788,20.201087 Z" id="Path" fill="#082F40"></path>
                <path d="M3.88967772,18.719562 L3.50217065,18.9179261 C3.20325761,18.2467388 2.93550399,17.5623225 2.69890978,16.8646772 C2.67385932,16.791035 2.69006124,16.7096204 2.74139693,16.6511795 C2.79273262,16.5927385 2.87137932,16.5661767 2.9476363,16.581525 C3.02389328,16.5968733 3.08614016,16.6517929 3.11086957,16.7255435 C3.34021522,17.4016272 3.59981793,18.0663 3.88967772,18.719562 L3.88967772,18.719562 Z" id="Path" fill="#084C4F"></path>
                <path d="M8.57119565,25.6521739 L7.96957283,25.6521739 C6.21389383,23.7795842 4.76670491,21.6400839 3.68206522,19.3135935 L4.0701163,19.1163038 C5.19392351,21.5315908 6.7154517,23.7409522 8.57119565,25.6521739 L8.57119565,25.6521739 Z" id="Path" fill="#084C4F"></path>
                <path d="M11.9068054,6.56189674 C11.9068054,6.56189674 12.7355071,7.53623207 12.5528217,9.00969185 C12.3188408,10.887681 10.4347826,11.612319 10.260687,13.3831522 C10.2400348,13.9651266 10.514606,14.388587 10.860619,14.5952717 C11.3247283,14.8607337 11.8652641,14.6733897 12.3101337,14.4437837 C13.162362,14.0455163 13.7024457,14.2561141 14.0592565,14.332513 C14.4870924,14.4225543 15.8967391,15.0441576 16.5047022,14.8514174 C17.0742755,14.6920288 17.2237321,14.2232788 17.3228571,12.9992207 C17.4150815,12.109375 17.549819,11.0643114 17.3778277,9.42933478 C17.2554348,8.2427538 16.8206522,6.77649457 16.5217391,6.08907935 L13.1929348,4.4701087 L11.9068054,6.56189674 Z" id="Path" fill="#FFC380"></path>
                <path d="M11.475538,16.0967353 C9.90054441,17.5329722 7.49075994,17.5329722 5.9157663,16.0967353 C6.14261544,16.0172182 6.36150512,15.9165962 6.5695587,15.7961918 C7.82188756,16.7635903 9.56941679,16.7635903 10.8217457,15.7961918 C11.0297992,15.9165962 11.2486889,16.0172182 11.475538,16.0967353 L11.475538,16.0967353 Z" id="Path" fill="#EF6171"></path>
                <path d="M11.475538,16.0967353 C9.90054441,17.5329722 7.49075994,17.5329722 5.9157663,16.0967353 C5.77445652,16.1499962 5.62227989,16.2048875 5.46195652,16.2630429 C6.31763185,17.1243453 7.48155911,17.6086957 8.69565217,17.6086957 C9.90974524,17.6086957 11.0736725,17.1243453 11.9293478,16.2630429 C11.7690245,16.204887 11.6168478,16.1499951 11.475538,16.0967353 Z" id="Path" fill="#F67A88"></path>
                <path d="M16.5217391,6.08913043 C15.9195609,6.27717391 15.5722826,6.14130435 15.030438,5.9798913 C14.4781556,5.84790336 13.9026297,5.84715883 13.3500076,5.97771739 C13.0451087,6.04891576 12.7826087,6.17771304 12.5282609,6.30271739 C12.3630449,6.38767489 12.1932133,6.46333926 12.0195592,6.52935707 C11.6831495,6.65055272 11.223369,6.5739125 10.8173924,6.50652174 C10.7336967,6.4923913 10.652175,6.47880435 10.5739141,6.4673913 C9.59565326,6.323375 8.63586196,6.05054783 7.65707065,5.75978261 C7.4527087,5.69890652 7.2429337,5.63369185 7.03967337,5.5701087 C6.28967337,5.33695652 5.51467011,5.09565217 4.72717337,4.99022174 C4.26453197,4.93009454 3.7952755,4.94385299 3.33695163,5.03098261 C3.30652717,5.03695326 3.27663315,5.04402609 3.2483712,5.05162826 L3.48043641,3.90489728 C3.81087609,2.61086957 4.57390815,0.939130435 6.33315217,0.325 C7.4005375,-0.0472880435 8.62281957,-0.0168478261 9.4489038,0.0385869565 C10.5483728,0.111961957 11.5543516,0.306531522 12.4385918,0.61738587 C13.6532576,1.04402174 14.6043446,1.6532587 15.2646788,2.42771522 C16.0798978,3.38315217 16.5146804,4.64945924 16.5217391,6.08913043 L16.5217391,6.08913043 Z" id="Path" fill="#29CCB1"></path>
                <g id="Group" transform="translate(1.086957, 1.739130)" fill="#0C6C71">
                    <polygon id="Path" points="4.56521739 0.869565217 5.43478261 0 7.17391304 0.434782609 6.30434783 1.30434783"></polygon>
                    <path d="M10.8,4.8266337 C10.4815158,4.89239457 10.0853315,4.82609022 9.73043859,4.76738967 C9.64674293,4.75325924 9.5652212,4.73967228 9.48696033,4.72825924 C8.50869946,4.58424293 7.54890815,4.31141576 6.57011685,4.02065054 C6.36575489,3.95977446 6.15597989,3.89455978 5.95271957,3.83097663 C5.20271957,3.59782446 4.4277163,3.35652011 3.64021957,3.25108967 C3.17757817,3.19096247 2.7083217,3.20472093 2.24999783,3.29185054 C1.65597826,3.41086957 1.47500761,3.7717337 1.42771739,4.05379565 C1.41574545,4.12638678 1.40938423,4.19979242 1.40869022,4.27336087 L1.16576087,4.33586957 C0.765224457,4.43587446 0.377173913,4.16684185 0.186413043,3.875 C0.0945684783,3.73423424 -0.0907527174,3.36901848 0.175,3.02553641 C0.37826087,2.76303207 1.04075707,2.15705815 2.78152174,2.20108424 C3.5173913,2.2195538 4.25761739,2.4070625 5.1097875,2.78967554 C5.50326576,2.96683641 5.89891793,3.16793641 6.28152989,3.36303424 C6.66684348,3.55923913 7.06521739,3.7625 7.47119565,3.94565761 C8.57228261,4.4701087 10.2804299,4.91303804 10.8,4.8266337 Z" id="Path"></path>
                    <path d="M3.99960707,14.6478538 C3.99705978,14.6478538 3.99456522,14.6477995 3.99201739,14.6477451 C3.8720235,14.6436212 3.7780801,14.5430252 3.78216304,14.4230299 C3.78837228,14.2417288 3.79638696,14.0555451 3.80594022,13.8696799 C3.8123021,13.7499041 3.91446214,13.6579074 4.03424751,13.6640855 C4.15403287,13.6702637 4.24618623,13.7722825 4.24019185,13.8920772 C4.23074457,14.0754467 4.22283696,14.2590842 4.21673315,14.4378924 C4.21271455,14.5549333 4.11671689,14.6477632 3.99960707,14.6478538 L3.99960707,14.6478538 Z" id="Path"></path>
                    <path d="M11.2177842,14.6478538 C11.1006746,14.6477632 11.004677,14.5549336 11.0006582,14.4378929 C10.9945543,14.2590886 10.9866467,14.0754473 10.9771995,13.8920777 C10.9730754,13.8144329 11.0107298,13.7404964 11.0759535,13.6981691 C11.1411771,13.6558419 11.2240397,13.6515681 11.2932718,13.6869606 C11.362504,13.7223531 11.4075652,13.7920234 11.4114511,13.8696804 C11.4210043,14.0555457 11.429019,14.2417293 11.4352283,14.4230304 C11.4393112,14.5430257 11.3453678,14.6436217 11.2253739,14.6477457 C11.2228804,14.6478005 11.2203315,14.6478538 11.2177842,14.6478538 L11.2177842,14.6478538 Z" id="Path"></path>
                </g>
                <path d="M7.82608696,10.6521739 L7.60869565,10.6521739 C7.12844804,10.6521739 6.73913043,10.2628563 6.73913043,9.7826087 C6.73913043,9.30236109 7.12844804,8.91304348 7.60869565,8.91304348 L7.82608696,8.91304348 C7.94614886,8.91304348 8.04347826,9.01037288 8.04347826,9.13043478 C8.04347826,9.25049668 7.94614886,9.34782609 7.82608696,9.34782609 L7.60869565,9.34782609 C7.36857185,9.34782609 7.17391304,9.54248489 7.17391304,9.7826087 C7.17391304,10.0227325 7.36857185,10.2173913 7.60869565,10.2173913 L7.82608696,10.2173913 C7.94614886,10.2173913 8.04347826,10.3147207 8.04347826,10.4347826 C8.04347826,10.5548445 7.94614886,10.6521739 7.82608696,10.6521739 Z" id="Path" fill="#2C3440"></path>
            </g>
        </g>
        <text id="User" font-family="Inter-Regular, Inter" font-size="10" font-weight="normal" fill="#2C3440">
            <tspan x="9.40625" y="57">User</tspan>
        </text>
        <path id="Line-10" d="M101.809343,20.3190816 L102.245131,20.5642122 L110.245131,25.0642122 L111.019864,25.5 L110.245131,25.9357878 L102.245131,30.4357878 L101.809343,30.6809184 L101.319082,29.8093429 L101.754869,29.5642122 L108.089,26 L38,26 L38,25 L108.093,25 L101.754869,21.4357878 L101.319082,21.1906571 L101.809343,20.3190816 Z" fill="#2C3440" fill-rule="nonzero"></path>
        <path id="Line-10-Copy-2" d="M293.934343,95.3190816 L294.370131,95.5642122 L302.370131,100.064212 L303.144864,100.5 L302.370131,100.935788 L294.370131,105.435788 L293.934343,105.680918 L293.444082,104.809343 L293.879869,104.564212 L300.214,101 L247.875,101 L247.875,100 L300.218,100 L293.879869,96.4357878 L293.444082,96.1906571 L293.934343,95.3190816 Z" fill="#2C3440" fill-rule="nonzero"></path>
        <path id="Line-10-Copy-3" d="M453.934343,95.3190816 L454.370131,95.5642122 L462.370131,100.064212 L463.144864,100.5 L462.370131,100.935788 L454.370131,105.435788 L453.934343,105.680918 L453.444082,104.809343 L453.879869,104.564212 L460.214,101 L407.875,101 L407.875,100 L460.218,100 L453.879869,96.4357878 L453.444082,96.1906571 L453.934343,95.3190816 Z" fill="#2C3440" fill-rule="nonzero"></path>
        <path id="Line-10-Copy-4" d="M339.934343,169.319082 L340.370131,169.564212 L348.370131,174.064212 L349.144864,174.5 L348.370131,174.935788 L340.370131,179.435788 L339.934343,179.680918 L339.444082,178.809343 L339.879869,178.564212 L346.214,175 L293.875,175 L293.875,174 L346.218,174 L339.879869,170.435788 L339.444082,170.190657 L339.934343,169.319082 Z" fill="#2C3440" fill-rule="nonzero"></path>
        <path id="Line-10-Copy-6" d="M648.934343,169.319082 L649.370131,169.564212 L657.370131,174.064212 L658.144864,174.5 L657.370131,174.935788 L649.370131,179.435788 L648.934343,179.680918 L648.444082,178.809343 L648.879869,178.564212 L655.214,175 L602.875,175 L602.875,174 L655.218,174 L648.879869,170.435788 L648.444082,170.190657 L648.934343,169.319082 Z" fill="#2C3440" fill-rule="nonzero"></path>
        <path id="Line-10-Copy-5" d="M482.934343,169.319082 L483.370131,169.564212 L491.370131,174.064212 L492.144864,174.5 L491.370131,174.935788 L483.370131,179.435788 L482.934343,179.680918 L482.444082,178.809343 L482.879869,178.564212 L489.214,175 L436.875,175 L436.875,174 L489.218,174 L482.879869,170.435788 L482.444082,170.190657 L482.934343,169.319082 Z" fill="#2C3440" fill-rule="nonzero"></path>
        <rect id="Rectangle" stroke="#2C3440" fill="#2C3440" x="111" y="11" width="80" height="27" rx="5"></rect>
        <rect id="Rectangle-Copy" stroke="#2C3440" fill="#2C3440" x="109" y="86" width="139" height="27" rx="5"></rect>
        <rect id="Rectangle-Copy-2" stroke="#2C3440" fill="#2C3440" x="304" y="86" width="104" height="27" rx="5"></rect>
        <rect id="Rectangle-Copy-3" stroke="#2C3440" fill="#2C3440" x="464" y="86" width="104" height="27" rx="5"></rect>
        <rect id="Rectangle-Copy-7" stroke="#FC4A4A" fill="#FB8282" x="658" y="118" width="101" height="27" rx="5"></rect>
        <rect id="Rectangle-Copy-10" stroke="#5DA6FA" fill="#D8EAFF" x="491" y="302" width="268" height="27" rx="5"></rect>
        <rect id="Rectangle-Copy-11" stroke="#5DA6FA" fill="#D8EAFF" x="464" y="34" width="295" height="27" rx="5"></rect>
        <rect id="Rectangle-Copy-4" stroke="#2C3440" fill="#2C3440" x="107" y="161" width="186" height="27" rx="5"></rect>
        <rect id="Rectangle-Copy-5" stroke="#2C3440" fill="#2C3440" x="493" y="161" width="110" height="27" rx="5"></rect>
        <rect id="Rectangle-Copy-8" stroke="#2C3440" fill="#2C3440" x="339" y="230" width="110" height="27" rx="5"></rect>
        <rect id="Rectangle-Copy-9" stroke="#2C3440" fill="#2C3440" x="339" y="302" width="110" height="27" rx="5"></rect>
        <rect id="Rectangle-Copy-12" stroke="#2C3440" fill="#2C3440" x="339" y="374" width="110" height="27" rx="5"></rect>
        <rect id="Rectangle-Copy-13" stroke="#2C3440" fill="#2C3440" x="493" y="374" width="110" height="27" rx="5"></rect>
        <rect id="Rectangle-Copy-14" stroke="#2C3440" fill="#FFFFFF" x="107" y="374" width="114" height="27" rx="5"></rect>
        <text id="Log-in" font-family="Inter-Regular, Inter" font-size="10" font-weight="normal" fill="#FFFFFF">
            <tspan x="136.639205" y="28">Log in</tspan>
        </text>
        <text id="Go-through-onboardin" font-family="Inter-Regular, Inter" font-size="10" font-weight="normal" fill="#FFFFFF">
            <tspan x="125.028409" y="103">Go through onboarding</tspan>
        </text>
        <text id="Log-in-basics" font-family="Inter-Regular, Inter" font-size="10" font-weight="normal" fill="#FFFFFF">
            <tspan x="326.105114" y="103">Log in basics</tspan>
        </text>
        <text id="Log-in-bottle-size" font-family="Inter-Regular, Inter" font-size="10" font-weight="normal" fill="#FFFFFF">
            <tspan x="476.588068" y="103">Log in bottle size</tspan>
        </text>
        <text id="WARNING" font-family="Inter-Regular, Inter" font-size="10" font-weight="normal" fill="#FFFFFF">
            <tspan x="687.115057" y="135">WARNING</tspan>
        </text>
        <text id="Involve-gamification" font-family="Inter-Regular_Italic, Inter" font-size="10" font-style="italic" font-weight="normal" fill="#5DA6FA">
            <tspan x="522.5" y="319">Involve gamification when rewarding users</tspan>
        </text>
        <text id="Allow-users-to-custo" font-family="Inter-Regular_Italic, Inter" font-size="10" font-style="italic" font-weight="normal" fill="#5DA6FA">
            <tspan x="495.5" y="51">Allow users to customize their water bottle size</tspan>
        </text>
        <text id="Get-daily-intake-rec" font-family="Inter-Regular, Inter" font-size="10" font-weight="normal" fill="#FFFFFF">
            <tspan x="124.956676" y="178">Get daily intake recommendation</tspan>
        </text>
        <text id="Adjust-the-goal" font-family="Inter-Regular, Inter" font-size="10" font-weight="normal" fill="#FFFFFF">
            <tspan x="509.460227" y="178">Adjust the goal</tspan>
        </text>
        <text id="Log-in-water-intake" font-family="Inter-Regular, Inter" font-size="10" font-weight="normal" fill="#FFFFFF">
            <tspan x="348.971591" y="247">Log in water intake</tspan>
        </text>
        <text id="Get-reward" font-family="Inter-Regular, Inter" font-size="10" font-weight="normal" fill="#FFFFFF">
            <tspan x="367.52983" y="319">Get reward</tspan>
        </text>
        <text id="Review-performance" font-family="Inter-Regular, Inter" font-size="10" font-weight="normal" fill="#FFFFFF">
            <tspan x="345.278409" y="391">Review performance</tspan>
        </text>
        <text id="Adjust-basics" font-family="Inter-Regular, Inter" font-size="10" font-weight="normal" fill="#FFFFFF">
            <tspan x="516.458807" y="391">Adjust basics</tspan>
        </text>
        <text id="Get-reminders" font-family="Inter-Regular, Inter" font-size="10" font-weight="normal" fill="#2C3440">
            <tspan x="129.427557" y="391">Get reminders</tspan>
        </text>
        <path id="Path-37" d="M151.5,38.4060555 L151.5,82.591 L155.064212,76.2548694 L155.935788,76.7451306 L151.435788,84.7451306 L151,85.5198644 L150.564212,84.7451306 L146.064212,76.7451306 L146.935788,76.2548694 L150.5,82.591 L150.5,38.4060555 L151.5,38.4060555 Z" fill="#2C3440" fill-rule="nonzero"></path>
        <path id="Path-38" d="M516.5,113 L516.5,138.068081 L203.5,138.068 L203.5,159.591 L207.064212,153.254869 L207.935788,153.745131 L203.435788,161.745131 L203,162.519864 L202.564212,161.745131 L198.064212,153.745131 L198.935788,153.254869 L202.5,159.591 L202.5,137.068081 L515.5,137.068 L515.5,113 L516.5,113 Z" fill="#2C3440" fill-rule="nonzero"></path>
        <polygon id="Rectangle" stroke="#EBEEF5" fill="#F4F2F2" stroke-linejoin="round" transform="translate(393.533502, 174.146447) rotate(-315.000000) translate(-393.533502, -174.146447) " points="384.237561 164.850505 423.533502 143.646447 403.329444 183.942388 363.533502 204.646447"></polygon>
        <polygon id="Rectangle-Copy-6" stroke="#EBEEF5" fill="#F4F2F2" stroke-linejoin="round" transform="translate(709.604570, 174.146447) rotate(-315.000000) translate(-709.604570, -174.146447) " points="700.322011 164.837123 744.60457 138.646447 719.413894 183.929006 674.60457 209.646447"></polygon>
        <text id="Satisfied?" font-family="Inter-Regular, Inter" font-size="8" font-weight="normal" fill="#2C3440">
            <tspan x="375.465909" y="178">Satisfied?</tspan>
        </text>
        <text id="Reasonable?" font-family="Inter-Regular, Inter" font-size="8" font-weight="normal" fill="#2C3440">
            <tspan x="685.994318" y="178">Reasonable?</tspan>
        </text>
        <path id="Path-39" d="M656.625,131 L656.625,132 L548.5,132 L548.5,159.591 L552.064212,153.254869 L552.935788,153.745131 L548.435788,161.745131 L548,162.519864 L547.564212,161.745131 L543.064212,153.745131 L543.935788,153.254869 L547.5,159.591 L547.5,131 L656.625,131 Z" fill="#2C3440" fill-rule="nonzero"></path>
        <text id="No" font-family="Inter-Regular_Italic, Inter" font-size="10" font-style="italic" font-weight="normal" fill="#2C3440">
            <tspan x="455.252841" y="165">No</tspan>
        </text>
        <path id="Path-40" d="M394.033502,188 L394.033,228.59 L397.597715,222.254869 L398.46929,222.745131 L393.96929,230.745131 L393.533502,231.519864 L393.097715,230.745131 L388.597715,222.745131 L389.46929,222.254869 L393.033,228.59 L393.033502,188 L394.033502,188 Z" fill="#2C3440" fill-rule="nonzero"></path>
        <path id="Path-40-Copy" d="M394.033502,257 L394.033,297.59 L397.597715,291.254869 L398.46929,291.745131 L393.96929,299.745131 L393.533502,300.519864 L393.097715,299.745131 L388.597715,291.745131 L389.46929,291.254869 L393.033,297.59 L393.033502,257 L394.033502,257 Z" fill="#2C3440" fill-rule="nonzero"></path>
        <path id="Path-40-Copy-2" d="M394.033502,329 L394.033,369.59 L397.597715,363.254869 L398.46929,363.745131 L393.96929,371.745131 L393.533502,372.519864 L393.097715,371.745131 L388.597715,363.745131 L389.46929,363.254869 L393.033,369.59 L393.033502,329 L394.033502,329 Z" fill="#2C3440" fill-rule="nonzero"></path>
        <path id="Path-41" d="M711,144.730136 L711.435788,145.504869 L715.935788,153.504869 L715.064212,153.995131 L711.5,147.658 L711.5,161 L710.5,161 L710.5,147.658 L706.935788,153.995131 L706.064212,153.504869 L710.564212,145.504869 L711,144.730136 Z" fill="#2C3440" fill-rule="nonzero"></path>
        <text id="No" font-family="Inter-Regular_Italic, Inter" font-size="10" font-style="italic" font-weight="normal" fill="#2C3440">
            <tspan x="721.252841" y="157">No</tspan>
        </text>
        <text id="Yes" font-family="Inter-Regular_Italic, Inter" font-size="10" font-style="italic" font-weight="normal" fill="#2C3440">
            <tspan x="719.143466" y="216">Yes</tspan>
        </text>
        <text id="Yes" font-family="Inter-Regular_Italic, Inter" font-size="10" font-style="italic" font-weight="normal" fill="#2C3440">
            <tspan x="408.143466" y="213">Yes</tspan>
        </text>
        <text id="Goal-achieved" font-family="Inter-Regular_Italic, Inter" font-size="10" font-style="italic" font-weight="normal" fill="#2C3440">
            <tspan x="408" y="282">Goal achieved</tspan>
        </text>
        <text id="Out-of-app" font-family="Inter-Regular_Italic, Inter" font-size="10" font-style="italic" font-weight="normal" fill="#2C3440">
            <tspan x="253" y="379">Out of app</tspan>
        </text>
        <path id="Path-42" d="M710.50008,187.991061 L711.49992,188.008939 L710.507554,243.508939 L710.498773,244 L452.408,244 L458.745131,247.564212 L458.254869,248.435788 L450.254869,243.935788 L449.480136,243.5 L450.254869,243.064212 L458.254869,238.564212 L458.745131,239.435788 L452.408,243 L709.516,243 L710.50008,187.991061 Z" fill="#2C3440" fill-rule="nonzero"></path>
        <line x1="449" y1="315.5" x2="490.625" y2="315.5" id="Path-43" stroke="#5DA6FA"></line>
        <path id="Path-43-Copy" d="M483.370131,382.564212 L491.370131,387.064212 L492.144864,387.5 L491.370131,387.935788 L483.370131,392.435788 L482.879869,391.564212 L489.216,388 L489,388 L489,387 L489.216,387 L482.879869,383.435788 L483.370131,382.564212 Z M451,387 L451,388 L449,388 L449,387 L451,387 Z M455,387 L455,388 L453,388 L453,387 L455,387 Z M459,387 L459,388 L457,388 L457,387 L459,387 Z M463,387 L463,388 L461,388 L461,387 L463,387 Z M467,387 L467,388 L465,388 L465,387 L467,387 Z M471,387 L471,388 L469,388 L469,387 L471,387 Z M475,387 L475,388 L473,388 L473,387 L475,387 Z M479,387 L479,388 L477,388 L477,387 L479,387 Z M483,387 L483,388 L481,388 L481,387 L483,387 Z M487,387 L487,388 L485,388 L485,387 L487,387 Z" fill="#2C3440" fill-rule="nonzero"></path>
        <path id="Path-43-Copy-2" d="M228.754869,382.564212 L229.245131,383.435788 L222.625,387.159 L222.625,387.841 L229.245131,391.564212 L228.754869,392.435788 L220.754869,387.935788 L219.980136,387.5 L220.754869,387.064212 L228.754869,382.564212 Z M338.625,387 L338.625,388 L336.625,388 L336.625,387 L338.625,387 Z M334.625,387 L334.625,388 L332.625,388 L332.625,387 L334.625,387 Z M330.625,387 L330.625,388 L328.625,388 L328.625,387 L330.625,387 Z M326.625,387 L326.625,388 L324.625,388 L324.625,387 L326.625,387 Z M322.625,387 L322.625,388 L320.625,388 L320.625,387 L322.625,387 Z M318.625,387 L318.625,388 L316.625,388 L316.625,387 L318.625,387 Z M314.625,387 L314.625,388 L312.625,388 L312.625,387 L314.625,387 Z M310.625,387 L310.625,388 L308.625,388 L308.625,387 L310.625,387 Z M306.625,387 L306.625,388 L304.625,388 L304.625,387 L306.625,387 Z M302.625,387 L302.625,388 L300.625,388 L300.625,387 L302.625,387 Z M298.625,387 L298.625,388 L296.625,388 L296.625,387 L298.625,387 Z M294.625,387 L294.625,388 L292.625,388 L292.625,387 L294.625,387 Z M290.625,387 L290.625,388 L288.625,388 L288.625,387 L290.625,387 Z M286.625,387 L286.625,388 L284.625,388 L284.625,387 L286.625,387 Z M282.625,387 L282.625,388 L280.625,388 L280.625,387 L282.625,387 Z M278.625,387 L278.625,388 L276.625,388 L276.625,387 L278.625,387 Z M274.625,387 L274.625,388 L272.625,388 L272.625,387 L274.625,387 Z M270.625,387 L270.625,388 L268.625,388 L268.625,387 L270.625,387 Z M266.625,387 L266.625,388 L264.625,388 L264.625,387 L266.625,387 Z M262.625,387 L262.625,388 L260.625,388 L260.625,387 L262.625,387 Z M258.625,387 L258.625,388 L256.625,388 L256.625,387 L258.625,387 Z M254.625,387 L254.625,388 L252.625,388 L252.625,387 L254.625,387 Z M250.625,387 L250.625,388 L248.625,388 L248.625,387 L250.625,387 Z M246.625,387 L246.625,388 L244.625,388 L244.625,387 L246.625,387 Z M242.625,387 L242.625,388 L240.625,388 L240.625,387 L242.625,387 Z M238.625,387 L238.625,388 L236.625,388 L236.625,387 L238.625,387 Z M234.625,387 L234.625,388 L232.625,388 L232.625,387 L234.625,387 Z M230.625,387 L230.625,388 L228.625,388 L228.625,387 L230.625,387 Z M226.625,387 L226.625,388 L224.625,388 L224.625,387 L226.625,387 Z" fill="#2C3440" fill-rule="nonzero"></path>
        <line x1="516" y1="86" x2="516" y2="61" id="Path-44" stroke="#7BB3F3"></line>
    </g>
</svg>