<?xml version="1.0" encoding="UTF-8"?>
<svg width="774px" height="430px" viewBox="0 0 774 430" version="1.1" xmlns="http://www.w3.org/2000/svg" xmlns:xlink="http://www.w3.org/1999/xlink">
    <title>Artboard</title>
    <g id="Artboard" stroke="none" stroke-width="1" fill="none" fill-rule="evenodd">
        <g id="Group-2" transform="translate(0.000000, 29.000000)">
            <circle id="Oval" stroke="#F4F2F2" stroke-width="0.714285714" fill="#F4F2F2" cx="25" cy="25" r="25"></circle>
            <g id="girl" transform="translate(12.857143, 6.428571)" fill-rule="nonzero">
                <path d="M24.7468944,18.5706475 C24.6055846,20.3190947 24.3920753,20.9883602 23.5784161,21.2166165 C22.709632,21.4914612 20.6956615,20.604028 20.0846273,20.4751568 C19.5745481,20.3656918 18.8035714,20.0652189 17.5861856,20.6343183 C16.9503207,20.9619581 16.1785668,21.229809 15.5155396,20.8501568 L9.3501545,20.0512438 C8.0085396,19.7926972 6.64597516,19.8812174 5.1847896,20.3237593 C4.79348525,20.4417717 4.15839208,20.6335419 3.53494488,20.6343183 C2.80745109,20.6343183 2.0947236,20.372663 1.79813432,19.4293494 C1.40915916,18.1925536 1.86413587,16.7329208 2.36024612,15.4681693 L2.48914053,15.1397531 C2.93712189,14.0046506 3.39985481,12.8307469 3.6273323,11.6444115 C3.74858888,11.0403583 3.77426376,10.4210137 3.70341925,9.80899689 C3.68944953,9.69564286 3.67081677,9.57842857 3.65140683,9.4541972 C3.59007143,9.06988043 3.52639829,8.67313665 3.59240062,8.2756118 C3.5923913,7.2849441 6.46040373,4.40838509 6.46040373,4.40838509 L22.9534301,7.5566809 L23.6024845,8.69875776 C24.0295031,9.68089286 24.6506211,11.7756118 24.8253106,13.4704969 C25.0714224,15.8059068 24.8788773,17.2989177 24.7468944,18.5706475 L24.7468944,18.5706475 Z" id="Path" fill="#FFC380"></path>
                <path d="M18.6518129,25.4377849 C19.3830978,24.4503043 19.733993,23.4292352 19.5903898,22.7064425 C19.5026661,22.2650939 19.2440435,21.9206436 18.7996623,21.6536056 C17.9080179,21.1180124 16.7252252,21.1180124 15.7748207,21.1180124 L9.68010016,21.1180124 C9.60397645,21.1180124 9.52469384,21.1178103 9.44225233,21.1174061 C8.66661335,21.1146002 7.60558696,21.1108067 6.74146584,21.3532818 C5.79705124,21.6182733 5.29504658,22.1195955 5.20679193,22.885757 C5.09761102,23.8322189 5.71728804,24.7955893 6.19290761,25.4377849 L18.6518129,25.4377849 Z" id="Path" fill="#29CCB1"></path>
                <path d="M7.27959783,23.4261491 C8.15447981,23.0947997 8.90642314,22.864462 9.38508385,22.565986 C9.73446273,22.3486102 9.9378882,22.0947267 9.9378882,21.7391304 C9.9378882,19.2546584 5.59006211,19.2546584 5.59006211,14.9068323 L5.59006211,8.69565217 C5.59006211,6.21118012 7.12034161,3.10559006 13.0434783,3.10559006 C21.7391304,3.10559006 19.8757764,9.31677019 19.8757764,11.8012422 L20.1110248,11.5659938 C20.487857,11.1891966 21.0545559,11.0764889 21.5468866,11.280423 C22.0392173,11.484357 22.3602485,11.9647744 22.3602485,12.4976708 L22.3602485,12.7725155 C22.3602485,13.3114271 22.032246,13.7960729 21.5318385,13.996118 L19.4705031,14.8206615 C18.2849379,18.7290373 14.9068323,19.1785714 14.9068323,21.7391304 C14.9068323,22.0947267 15.1102578,22.3486102 15.4596366,22.565986 C15.9427966,22.8672671 16.7044006,23.0991242 17.5898253,23.4355194 L12.4080823,26.7339542 L7.27959783,23.4261491 Z" id="Path" fill="#FAD6BC"></path>
                <path d="M11.521163,18.0693696 C11.0229577,18.0704189 10.5337406,17.9367156 10.1053245,17.6824138 C9.94297499,17.5832347 9.83532444,17.4148361 9.81346117,17.2258497 C9.79159789,17.0368633 9.85795652,16.8483341 9.99337345,16.7147073 C10.1958859,16.5152592 10.5071821,16.4768675 10.7520846,16.6211366 C11.0693172,16.8020877 11.4396969,16.8668187 11.7994992,16.8041925 C12.2010425,16.7362677 12.569412,16.5390495 12.8485738,16.2425373 C13.0362875,16.0398253 13.3351364,15.9850605 13.5825334,16.1080373 C13.7566324,16.1942506 13.8802314,16.3571116 13.9164216,16.5479871 C13.9526119,16.7388626 13.8972051,16.9356634 13.7667469,17.0796211 C13.2988471,17.5835964 12.6768967,17.9180062 11.9984503,18.0303975 C11.8406568,18.0561632 11.6810463,18.0691938 11.521163,18.0693696 L11.521163,18.0693696 Z" id="Path" fill="#EB5857"></path>
                <path d="M6.74031366,10.6501429 L7.18006522,10.2096925 C7.34636254,10.0431267 7.5925236,9.98486883 7.81583929,10.0592267 L9.24221429,10.5341786 C9.29124076,10.5505029 9.33577145,10.5780638 9.37225078,10.6146607 C9.46682878,10.7095404 9.49499369,10.8520243 9.44362814,10.9757527 C9.39226258,11.0994811 9.27146696,11.1801242 9.1375,11.1801242 L6.96009317,11.1801242 C6.83452811,11.1801242 6.72131657,11.1045157 6.67321745,10.9885284 C6.62511833,10.872541 6.65159693,10.7390019 6.74031366,10.6501429 L6.74031366,10.6501429 Z" id="Path" fill="#FFC380"></path>
                <path d="M15.6199348,10.6501429 L15.1801832,10.2096925 C15.0138859,10.0431267 14.7677248,9.98486883 14.5444092,10.0592267 L13.1180342,10.5341786 C13.0690077,10.5505029 13.024477,10.5780638 12.9879977,10.6146607 C12.8934192,10.7095409 12.8652545,10.8520257 12.9166211,10.9757545 C12.9679876,11.0994833 13.0887847,11.1801242 13.2227523,11.1801242 L15.4001592,11.1801242 C15.5257235,11.1801242 15.6389336,11.1045135 15.6870317,10.9885266 C15.7351299,10.8725396 15.708651,10.7390014 15.6199348,10.6501429 L15.6199348,10.6501429 Z" id="Path" fill="#FFC380"></path>
                <path d="M24.8447205,36.6459627 L0,36.6459627 C0,26.826087 4.3121118,24.5535714 7.25543478,23.4355668 C7.44409394,23.364125 7.62732919,23.2965916 7.80279503,23.2329185 C8.0318323,23.1498385 8.2492236,23.0714216 8.45109472,22.9953362 C8.77516491,22.8817403 9.08786446,22.7379946 9.38508385,22.5659884 C11.1741251,23.9479862 13.6705954,23.9479862 15.4596366,22.5659884 C15.756856,22.7379946 16.0695556,22.8817403 16.3936258,22.9953362 C16.5954969,23.0714231 16.8128921,23.1498393 17.0419255,23.2329185 C17.2173913,23.2965885 17.4006304,23.364125 17.5892857,23.4355668 C20.5326087,24.5535714 24.8447205,26.826087 24.8447205,36.6459627 Z" id="Path" fill="#F2ABBA"></path>
                <path d="M8.98757764,36.6459627 L-1.10332723e-15,36.6459627 C-1.10332723e-15,26.826087 4.3121118,24.5535714 7.25543478,23.4355668 C7.13432764,28.0015458 7.71507143,32.4347826 8.98757764,36.6459627 Z" id="Path" fill="#29CCB1"></path>
                <path d="M24.8447205,36.6459627 L15.8571429,36.6459627 C17.1296498,32.4347826 17.7103936,28.0015458 17.5892904,23.4355668 C20.5326087,24.5535714 24.8447205,26.826087 24.8447205,36.6459627 Z" id="Path" fill="#29CCB1"></path>
                <path d="M6.19313509,25.7483443 C6.09461877,25.7485026 6.00188789,25.7018418 5.94330745,25.6226343 C5.71509128,25.3202205 5.50956336,25.0013355 5.32840683,24.6685908 C5.27619495,24.5705664 5.28030545,24.4521214 5.33918719,24.3579524 C5.39806892,24.2637834 5.50275731,24.2082274 5.6137469,24.2122491 C5.72473649,24.2162709 5.82512941,24.2792581 5.87704115,24.3774418 C6.04373876,24.6827845 6.23274053,24.9754103 6.44250699,25.2529356 C6.51231264,25.3471635 6.52308678,25.4726772 6.47036112,25.5774233 C6.41763547,25.6821694 6.31040288,25.7482825 6.19313509,25.7483443 L6.19313509,25.7483443 Z" id="Path" fill="#0C6C71"></path>
                <path d="M18.6515854,25.7483443 C18.5343369,25.7482413 18.4271406,25.6821156 18.3744363,25.5773803 C18.3217321,25.4726451 18.3325049,25.3471556 18.4022888,25.2529356 C18.6055009,24.9807257 18.7845842,24.6913107 18.9375031,24.3879806 C19.0140898,24.2347012 19.2003582,24.1724247 19.3537335,24.2488193 C19.5071088,24.3252139 19.5696185,24.5114041 19.4934161,24.664875 C19.3243667,25.0007852 19.126251,25.3212603 18.9013354,25.6226343 C18.8427861,25.7018375 18.7500797,25.7485005 18.6515854,25.7483443 L18.6515854,25.7483443 Z" id="Path" fill="#0C6C71"></path>
                <path d="M8.07453416,11.8012422 C7.80648606,11.8013448 7.56874724,11.9734049 7.48488121,12.2279953 C7.44064053,12.2143859 7.39730901,12.1998665 7.35617702,12.1831669 C7.26097711,12.1478587 7.17502284,12.0914231 7.1047795,12.0181048 C7.05415681,11.9575622 7.02844695,11.8800368 7.03286102,11.8012422 L7.03288043,11.7995171 L7.03286102,11.7977927 C7.03237769,11.7260483 6.99360928,11.6600261 6.93119121,11.62465 C6.86877313,11.5892739 6.79221277,11.5899323 6.73041232,11.6263766 C6.66861188,11.662821 6.63098465,11.7295002 6.63172422,11.8012422 C6.6325378,11.8910116 6.65084916,11.9797617 6.68564286,12.0625179 C6.72167612,12.1459467 6.77521338,12.22066 6.84263043,12.2816002 C6.96222884,12.3850861 7.10653215,12.4559221 7.26155512,12.487243 C7.32752681,12.5028838 7.394475,12.5140736 7.4619472,12.5207368 C7.51442057,12.846607 7.81271615,13.0744414 8.14091025,13.0393202 C8.46910435,13.004199 8.71243451,12.7184032 8.69476422,12.3888086 C8.67709392,12.059214 8.40460209,11.8010726 8.07453416,11.8012422 L8.07453416,11.8012422 Z" id="Path" fill="#084C4F"></path>
                <path d="M14.2857143,11.8012422 C14.0176662,11.8013448 13.7799274,11.9734049 13.6960613,12.2279953 C13.6518207,12.2143859 13.6084891,12.1998665 13.5673571,12.1831669 C13.4721572,12.1478587 13.386203,12.0914231 13.3159596,12.0181048 C13.2653369,11.9575622 13.2396271,11.8800368 13.2440411,11.8012422 L13.2440606,11.7995171 L13.2440411,11.7977927 C13.2435578,11.7260483 13.2047894,11.6600261 13.1423713,11.62465 C13.0799533,11.5892739 13.0033929,11.5899323 12.9415924,11.6263766 C12.879792,11.662821 12.8421648,11.7295002 12.8429043,11.8012422 C12.8437179,11.8910116 12.8620293,11.9797617 12.896823,12.0625179 C12.9328562,12.1459467 12.9863935,12.22066 13.0538106,12.2816002 C13.173409,12.3850861 13.3177123,12.4559221 13.4727352,12.487243 C13.5387069,12.5028838 13.6056551,12.5140736 13.6731273,12.5207368 C13.7256007,12.846607 14.0238963,13.0744414 14.3520904,13.0393202 C14.6802845,13.004199 14.9236146,12.7184032 14.9059443,12.3888086 C14.888274,12.059214 14.6157822,11.8010726 14.2857143,11.8012422 L14.2857143,11.8012422 Z" id="Path" fill="#084C4F"></path>
                <path d="M4.37189907,34.6180031 C4.81832764,35.132764 5.27950311,35.665382 5.27950311,36.6459627 L4.65838509,36.6459627 C4.65838509,35.8967469 4.32531056,35.5116568 3.90295031,35.0240575 C3.38354658,34.4247003 2.79503106,33.7453525 2.79503106,32.2981366 C2.79503106,30.3299612 3.68244798,29.4316832 4.71039752,28.3912989 L4.7476646,28.3532554 C4.82558071,28.274058 4.93985057,28.2424827 5.04737552,28.2704389 C5.15490048,28.298395 5.23932035,28.3816289 5.26879488,28.4887476 C5.2982694,28.5958663 5.26831396,28.7105714 5.19022671,28.7896002 L5.1521646,28.82842 C4.14440062,29.8478214 3.41614907,30.5846219 3.41614907,32.2981366 C3.41614907,33.5139682 3.88043478,34.0496941 4.37189907,34.6180031 L4.37189907,34.6180031 Z" id="Path" fill="#0C6C71"></path>
                <path d="M22.0496894,32.2981366 C22.0496894,33.7453525 21.4611739,34.4247003 20.9417702,35.0240575 C20.5194099,35.5116568 20.1863354,35.8967469 20.1863354,36.6459627 L19.5652174,36.6459627 C19.5652174,35.665382 20.0263929,35.132764 20.4728214,34.6180031 C20.9642857,34.0496941 21.4285714,33.5139682 21.4285714,32.2981366 C21.4285714,30.5846219 20.7003199,29.8478214 19.6925575,28.8284208 L19.6544953,28.7896009 C19.5764081,28.7105722 19.5464526,28.5958671 19.5759272,28.4887484 C19.6054017,28.3816297 19.6898216,28.2983958 19.7973465,28.2704397 C19.9048715,28.2424835 20.0191413,28.2740587 20.0970575,28.3532562 L20.1343245,28.3912997 C21.1622725,29.4316832 22.0496894,30.3299612 22.0496894,32.2981366 L22.0496894,32.2981366 Z" id="Path" fill="#0C6C71"></path>
                <path d="M4.82685714,28.8586957 C4.15905929,27.5164157 3.57689332,26.1332119 3.08385093,24.7173804 C3.86879762,24.4526356 4.65373758,24.1881501 5.43867081,23.9239239 C5.8951764,25.2239821 6.43058965,26.4949718 7.04192547,27.7298067 C6.30356832,28.1063672 5.56521222,28.4826636 4.82685714,28.8586957 L4.82685714,28.8586957 Z" id="Path" fill="#082F40"></path>
                <path d="M5.55668245,26.7422314 L5.00310093,27.0256087 C4.5760823,26.0667697 4.19357712,25.0890321 3.8555854,24.092396 C3.81979903,23.9871928 3.84294463,23.8708863 3.91628133,23.7873993 C3.98961803,23.7039122 4.10197045,23.6659667 4.21090899,23.6878929 C4.31984754,23.709819 4.40877165,23.7882755 4.44409938,23.8936335 C4.77173602,24.8594674 5.14259705,25.809 5.55668245,26.7422314 L5.55668245,26.7422314 Z" id="Path" fill="#084C4F"></path>
                <path d="M12.2445652,36.6459627 L11.385104,36.6459627 C8.87699119,33.9708345 6.80957844,30.9144056 5.26009317,27.5908478 L5.81445186,27.3090054 C7.41989073,30.7594155 9.59350243,33.915646 12.2445652,36.6459627 L12.2445652,36.6459627 Z" id="Path" fill="#084C4F"></path>
                <path d="M17.009722,9.3741382 C17.009722,9.3741382 18.1935815,10.7660458 17.9326025,12.8709884 C17.5983439,15.55383 14.9068323,16.5890272 14.6581242,19.1187888 C14.6286211,19.9501809 15.0208657,20.5551242 15.51517,20.8503882 C16.1781832,21.2296196 16.9503773,20.9619852 17.5859053,20.6339767 C18.8033742,20.0650233 19.5749224,20.3658773 20.0846522,20.4750186 C20.6958463,20.6036491 22.7096273,21.4916537 23.578146,21.2163106 C24.3918222,20.9886126 24.6053315,20.3189697 24.7469387,18.5703152 C24.8786879,17.2991071 25.07117,15.8061592 24.8254682,13.4704783 C24.6506211,11.7753626 24.0295031,9.68070652 23.6024845,8.69868478 L18.8470497,6.38586957 L17.009722,9.3741382 Z" id="Path" fill="#FFC380"></path>
                <path d="M16.3936258,22.9953362 C14.1436349,25.0471031 10.7010856,25.0471031 8.45109472,22.9953362 C8.77516491,22.8817403 9.08786446,22.7379946 9.38508385,22.5659884 C11.1741251,23.9479862 13.6705954,23.9479862 15.4596366,22.5659884 C15.756856,22.7379946 16.0695556,22.8817403 16.3936258,22.9953362 L16.3936258,22.9953362 Z" id="Path" fill="#EF6171"></path>
                <path d="M16.3936258,22.9953362 C14.1436349,25.0471031 10.7010856,25.0471031 8.45109472,22.9953362 C8.2492236,23.0714231 8.03182842,23.1498393 7.80279503,23.2329185 C9.02518836,24.4633504 10.6879416,25.1552796 12.4223602,25.1552796 C14.1567789,25.1552796 15.8195321,24.4633504 17.0419255,23.2329185 C16.8128921,23.1498385 16.5954969,23.0714216 16.3936258,22.9953362 Z" id="Path" fill="#F67A88"></path>
                <path d="M23.6024845,8.69875776 C22.7422298,8.9673913 22.246118,8.77329193 21.4720543,8.54270186 C20.6830794,8.35414766 19.8608996,8.35308404 19.0714394,8.53959627 C18.6358696,8.64130823 18.2608696,8.82530435 17.8975155,9.00388199 C17.6614928,9.12524984 17.4188761,9.2333418 17.1707989,9.32765295 C16.6902135,9.5007896 16.0333843,9.39130357 15.4534177,9.29503106 C15.3338525,9.27484472 15.2173929,9.25543478 15.1055916,9.23913043 C13.7080761,9.03339286 12.3369457,8.64363975 10.9386724,8.22826087 C10.6467267,8.14129503 10.3470481,8.04813121 10.0566762,7.95729814 C8.98524767,7.6242236 7.87810016,7.27950311 6.75310481,7.1288882 C6.09218853,7.0429922 5.42182215,7.06264713 4.76707376,7.18711801 C4.72361025,7.19564752 4.6809045,7.20575155 4.64053028,7.2166118 L4.97205202,5.57842469 C5.4441087,3.72981366 6.5341545,1.34161491 9.04736025,0.464285714 C10.5721964,-0.0675543478 12.3183137,-0.024068323 13.498434,0.0551242236 C15.069104,0.159945652 16.5062166,0.437902174 17.7694169,0.881979814 C19.5046537,1.49145963 20.8633494,2.36179814 21.806684,3.4681646 C22.9712826,4.83307453 23.5924006,6.64208463 23.6024845,8.69875776 L23.6024845,8.69875776 Z" id="Path" fill="#29CCB1"></path>
                <g id="Group" transform="translate(1.552795, 2.484472)" fill="#0C6C71">
                    <polygon id="Path" points="6.52173913 1.24223602 7.76397516 0 10.2484472 0.621118012 9.00621118 1.86335404"></polygon>
                    <path d="M15.4285714,6.89519099 C14.9735939,6.98913509 14.4076165,6.8944146 13.9006266,6.81055668 C13.7810613,6.79037034 13.6646017,6.7709604 13.5528005,6.75465606 C12.1552849,6.54891848 10.7841545,6.15916537 9.38588121,5.74378649 C9.09393556,5.65682065 8.79425699,5.56365683 8.50388509,5.47282376 C7.43245652,5.13974922 6.32530901,4.79502873 5.20031366,4.64441382 C4.53939738,4.55851782 3.869031,4.57817275 3.21428261,4.70264363 C2.36568323,4.87267081 2.10715373,5.38819099 2.03959627,5.79113665 C2.0224935,5.89483825 2.01340605,5.99970345 2.0124146,6.10480124 L1.66537267,6.19409938 C1.0931778,6.33696351 0.538819876,5.95263121 0.266304348,5.53571429 C0.135097826,5.33462034 -0.129646739,4.81288354 0.25,4.32219488 C0.540372671,3.94718866 1.48679581,3.08151165 3.97360248,3.14440606 C5.02484472,3.17079115 6.08231056,3.43866071 7.29969643,3.98525078 C7.86180823,4.23833773 8.42702562,4.52562345 8.97361413,4.80433463 C9.52406211,5.08462733 10.0931677,5.375 10.6731366,5.63665373 C12.246118,6.38586957 14.6863284,7.01862578 15.4285714,6.89519099 Z" id="Path"></path>
                    <path d="M5.71372438,20.9255054 C5.7100854,20.9255054 5.70652174,20.9254278 5.70288199,20.9253502 C5.53146215,20.9194589 5.39725728,20.7757503 5.40309006,20.6043284 C5.4119604,20.3453269 5.42340994,20.0793502 5.43705745,19.8138284 C5.44614586,19.6427202 5.59208878,19.5112963 5.76321073,19.5201222 C5.93433268,19.5289481 6.06598033,19.6746892 6.05741693,19.8458245 C6.04392081,20.1077811 6.03262422,20.3701203 6.0239045,20.6255606 C6.01816364,20.7927618 5.88102413,20.925376 5.71372438,20.9255054 L5.71372438,20.9255054 Z" id="Path"></path>
                    <path d="M16.0254061,20.9255054 C15.8581066,20.9253761 15.7209672,20.7927623 15.7152259,20.6255613 C15.7065062,20.3701266 15.6952096,20.1077818 15.6817135,19.8458253 C15.6758219,19.7349042 15.7296141,19.6292806 15.8227907,19.568813 C15.9159673,19.5083455 16.0343424,19.5022401 16.1332454,19.5528008 C16.2321485,19.6033615 16.2965217,19.7028905 16.302073,19.8138292 C16.3157205,20.0793509 16.32717,20.3453276 16.3360404,20.6043292 C16.3418731,20.775751 16.2076683,20.9194596 16.0362484,20.9253509 C16.0326863,20.9254293 16.029045,20.9255054 16.0254061,20.9255054 L16.0254061,20.9255054 Z" id="Path"></path>
                </g>
                <path d="M11.1801242,15.2173913 L10.8695652,15.2173913 C10.1834972,15.2173913 9.62732919,14.6612233 9.62732919,13.9751553 C9.62732919,13.2890873 10.1834972,12.7329193 10.8695652,12.7329193 L11.1801242,12.7329193 C11.3516412,12.7329193 11.4906832,12.8719613 11.4906832,13.0434783 C11.4906832,13.2149953 11.3516412,13.3540373 11.1801242,13.3540373 L10.8695652,13.3540373 C10.5265312,13.3540373 10.2484472,13.6321213 10.2484472,13.9751553 C10.2484472,14.3181893 10.5265312,14.5962733 10.8695652,14.5962733 L11.1801242,14.5962733 C11.3516412,14.5962733 11.4906832,14.7353153 11.4906832,14.9068323 C11.4906832,15.0783493 11.3516412,15.2173913 11.1801242,15.2173913 Z" id="Path" fill="#2C3440"></path>
            </g>
        </g>
        <text id="User" font-family="Inter-Regular, Inter" font-size="10" font-weight="normal" fill="#2C3440">
            <tspan x="13.40625" y="93">User</tspan>
        </text>
        <path id="Line-10" d="M113.809343,49.3190816 L114.245131,49.5642122 L122.245131,54.0642122 L123.019864,54.5 L122.245131,54.9357878 L114.245131,59.4357878 L113.809343,59.6809184 L113.319082,58.8093429 L113.754869,58.5642122 L120.089,55 L50,55 L50,54 L120.093,54 L113.754869,50.4357878 L113.319082,50.1906571 L113.809343,49.3190816 Z" fill="#2C3440" fill-rule="nonzero"></path>
        <path id="Line-10-Copy-2" d="M305.934343,124.319082 L306.370131,124.564212 L314.370131,129.064212 L315.144864,129.5 L314.370131,129.935788 L306.370131,134.435788 L305.934343,134.680918 L305.444082,133.809343 L305.879869,133.564212 L312.216,130 L259.875,130 L259.875,129 L312.216,129 L305.879869,125.435788 L305.444082,125.190657 L305.934343,124.319082 Z" fill="#2C3440" fill-rule="nonzero"></path>
        <path id="Line-10-Copy-3" d="M465.934343,124.319082 L466.370131,124.564212 L474.370131,129.064212 L475.144864,129.5 L474.370131,129.935788 L466.370131,134.435788 L465.934343,134.680918 L465.444082,133.809343 L465.879869,133.564212 L472.216,130 L419.875,130 L419.875,129 L472.216,129 L465.879869,125.435788 L465.444082,125.190657 L465.934343,124.319082 Z" fill="#2C3440" fill-rule="nonzero"></path>
        <path id="Line-10-Copy-4" d="M351.934343,198.319082 L352.370131,198.564212 L360.370131,203.064212 L361.144864,203.5 L360.370131,203.935788 L352.370131,208.435788 L351.934343,208.680918 L351.444082,207.809343 L351.879869,207.564212 L358.216,204 L305.875,204 L305.875,203 L358.216,203 L351.879869,199.435788 L351.444082,199.190657 L351.934343,198.319082 Z" fill="#2C3440" fill-rule="nonzero"></path>
        <path id="Line-10-Copy-6" d="M660.934343,198.319082 L661.370131,198.564212 L669.370131,203.064212 L670.144864,203.5 L669.370131,203.935788 L661.370131,208.435788 L660.934343,208.680918 L660.444082,207.809343 L660.879869,207.564212 L667.216,204 L614.875,204 L614.875,203 L667.216,203 L660.879869,199.435788 L660.444082,199.190657 L660.934343,198.319082 Z" fill="#2C3440" fill-rule="nonzero"></path>
        <path id="Line-10-Copy-5" d="M494.934343,198.319082 L495.370131,198.564212 L503.370131,203.064212 L504.144864,203.5 L503.370131,203.935788 L495.370131,208.435788 L494.934343,208.680918 L494.444082,207.809343 L494.879869,207.564212 L501.216,204 L448.875,204 L448.875,203 L501.216,203 L494.879869,199.435788 L494.444082,199.190657 L494.934343,198.319082 Z" fill="#2C3440" fill-rule="nonzero"></path>
        <rect id="Rectangle" stroke="#2C3440" fill="#2C3440" x="123" y="40" width="80" height="27" rx="5"></rect>
        <rect id="Rectangle-Copy" stroke="#2C3440" fill="#2C3440" x="121" y="115" width="139" height="27" rx="5"></rect>
        <rect id="Rectangle-Copy-2" stroke="#2C3440" fill="#2C3440" x="316" y="115" width="104" height="27" rx="5"></rect>
        <rect id="Rectangle-Copy-3" stroke="#2C3440" fill="#2C3440" x="476" y="115" width="104" height="27" rx="5"></rect>
        <rect id="Rectangle-Copy-7" stroke="#FC4A4A" fill="#FB8282" x="670" y="147" width="101" height="27" rx="5"></rect>
        <rect id="Rectangle-Copy-10" stroke="#5DA6FA" fill="#D8EAFF" x="503" y="331" width="268" height="27" rx="5"></rect>
        <rect id="Rectangle-Copy-11" stroke="#5DA6FA" fill="#D8EAFF" x="476" y="63" width="295" height="27" rx="5"></rect>
        <rect id="Rectangle-Copy-4" stroke="#2C3440" fill="#2C3440" x="119" y="190" width="186" height="27" rx="5"></rect>
        <rect id="Rectangle-Copy-5" stroke="#2C3440" fill="#2C3440" x="505" y="190" width="110" height="27" rx="5"></rect>
        <rect id="Rectangle-Copy-8" stroke="#2C3440" fill="#2C3440" x="351" y="259" width="110" height="27" rx="5"></rect>
        <rect id="Rectangle-Copy-9" stroke="#2C3440" fill="#2C3440" x="351" y="331" width="110" height="27" rx="5"></rect>
        <rect id="Rectangle-Copy-12" stroke="#2C3440" fill="#2C3440" x="351" y="403" width="110" height="27" rx="5"></rect>
        <rect id="Rectangle-Copy-13" stroke="#2C3440" fill="#2C3440" x="505" y="403" width="110" height="27" rx="5"></rect>
        <rect id="Rectangle-Copy-14" stroke="#2C3440" fill="#2C3440" x="198" y="403" width="110" height="27" rx="5"></rect>
        <text id="Log-in" font-family="Inter-Regular, Inter" font-size="10" font-weight="normal" fill="#FFFFFF">
            <tspan x="148.639205" y="57">Log in</tspan>
        </text>
        <text id="Go-through-onboardin" font-family="Inter-Regular, Inter" font-size="10" font-weight="normal" fill="#FFFFFF">
            <tspan x="137.028409" y="132">Go through onboarding</tspan>
        </text>
        <text id="Log-in-basics" font-family="Inter-Regular, Inter" font-size="10" font-weight="normal" fill="#FFFFFF">
            <tspan x="338.105114" y="132">Log in basics</tspan>
        </text>
        <text id="Log-in-bottle-size" font-family="Inter-Regular, Inter" font-size="10" font-weight="normal" fill="#FFFFFF">
            <tspan x="488.588068" y="132">Log in bottle size</tspan>
        </text>
        <text id="WARNING" font-family="Inter-Regular, Inter" font-size="10" font-weight="normal" fill="#FFFFFF">
            <tspan x="699.115057" y="164">WARNING</tspan>
        </text>
        <text id="Involve-gamification" font-family="Inter-Regular_Italic, Inter" font-size="10" font-style="italic" font-weight="normal" fill="#5DA6FA">
            <tspan x="534.5" y="348">Involve gamification when rewarding users</tspan>
        </text>
        <text id="Allow-users-to-custo" font-family="Inter-Regular_Italic, Inter" font-size="10" font-style="italic" font-weight="normal" fill="#5DA6FA">
            <tspan x="507.5" y="80">Allow users to customize their water bottle size</tspan>
        </text>
        <text id="Get-daily-intake-rec" font-family="Inter-Regular, Inter" font-size="10" font-weight="normal" fill="#FFFFFF">
            <tspan x="136.956676" y="207">Get daily intake recommendation</tspan>
        </text>
        <text id="Adjust-the-goal" font-family="Inter-Regular, Inter" font-size="10" font-weight="normal" fill="#FFFFFF">
            <tspan x="521.460227" y="207">Adjust the goal</tspan>
        </text>
        <text id="Log-in-water-intake" font-family="Inter-Regular, Inter" font-size="10" font-weight="normal" fill="#FFFFFF">
            <tspan x="360.971591" y="276">Log in water intake</tspan>
        </text>
        <text id="Get-reward" font-family="Inter-Regular, Inter" font-size="10" font-weight="normal" fill="#FFFFFF">
            <tspan x="379.52983" y="348">Get reward</tspan>
        </text>
        <text id="Review-performance" font-family="Inter-Regular, Inter" font-size="10" font-weight="normal" fill="#FFFFFF">
            <tspan x="357.278409" y="420">Review performance</tspan>
        </text>
        <text id="Adjust-basics" font-family="Inter-Regular, Inter" font-size="10" font-weight="normal" fill="#FFFFFF">
            <tspan x="528.458807" y="420">Adjust basics</tspan>
        </text>
        <text id="Get-remindrs" font-family="Inter-Regular, Inter" font-size="10" font-weight="normal" fill="#FFFFFF">
            <tspan x="219.339489" y="420">Get remindrs</tspan>
        </text>
        <path id="Path-37" d="M163.5,67.4060555 L163.5,111.591 L167.064212,105.254869 L167.935788,105.745131 L163.435788,113.745131 L163,114.519864 L162.564212,113.745131 L158.064212,105.745131 L158.935788,105.254869 L162.5,111.591 L162.5,67.4060555 L163.5,67.4060555 Z" fill="#2C3440" fill-rule="nonzero"></path>
        <path id="Path-38" d="M528.5,142 L528.5,167.068081 L215.5,167.068 L215.5,188.591 L219.064212,182.254869 L219.935788,182.745131 L215.435788,190.745131 L215,191.519864 L214.564212,190.745131 L210.064212,182.745131 L210.935788,182.254869 L214.5,188.591 L214.5,166.068081 L527.5,166.068 L527.5,142 L528.5,142 Z" fill="#2C3440" fill-rule="nonzero"></path>
        <polygon id="Rectangle" stroke="#F4F2F2" fill="#F4F2F2" stroke-linejoin="round" transform="translate(405.533502, 203.146447) rotate(-315.000000) translate(-405.533502, -203.146447) " points="396.237561 193.850505 435.533502 172.646447 415.329444 212.942388 375.533502 233.646447"></polygon>
        <polygon id="Rectangle-Copy-6" stroke="#F4F2F2" fill="#F4F2F2" stroke-linejoin="round" transform="translate(721.604570, 203.146447) rotate(-315.000000) translate(-721.604570, -203.146447) " points="712.322011 193.837123 756.60457 167.646447 731.413894 212.929006 686.60457 238.646447"></polygon>
        <text id="Satisfied?" font-family="Inter-Regular, Inter" font-size="8" font-weight="normal" fill="#2C3440">
            <tspan x="387.465909" y="207">Satisfied?</tspan>
        </text>
        <text id="Reasonable?" font-family="Inter-Regular, Inter" font-size="8" font-weight="normal" fill="#2C3440">
            <tspan x="697.994318" y="207">Reasonable?</tspan>
        </text>
        <path id="Path-39" d="M668.625,160 L668.625,161 L560.5,161 L560.5,188.591 L564.064212,182.254869 L564.935788,182.745131 L560.435788,190.745131 L560,191.519864 L559.564212,190.745131 L555.064212,182.745131 L555.935788,182.254869 L559.5,188.591 L559.5,160 L668.625,160 Z" fill="#2C3440" fill-rule="nonzero"></path>
        <text id="No" font-family="Inter-Regular_Italic, Inter" font-size="10" font-style="italic" font-weight="normal" fill="#2C3440">
            <tspan x="467.252841" y="194">No</tspan>
        </text>
        <path id="Path-40" d="M406.033502,217 L406.033,257.589 L409.597715,251.254869 L410.46929,251.745131 L405.96929,259.745131 L405.533502,260.519864 L405.097715,259.745131 L400.597715,251.745131 L401.46929,251.254869 L405.033,257.589 L405.033502,217 L406.033502,217 Z" fill="#2C3440" fill-rule="nonzero"></path>
        <path id="Path-40-Copy" d="M406.033502,286 L406.033,326.59 L409.597715,320.254869 L410.46929,320.745131 L405.96929,328.745131 L405.533502,329.519864 L405.097715,328.745131 L400.597715,320.745131 L401.46929,320.254869 L405.033,326.59 L405.033502,286 L406.033502,286 Z" fill="#2C3440" fill-rule="nonzero"></path>
        <path id="Path-40-Copy-2" d="M406.033502,358 L406.033,398.59 L409.597715,392.254869 L410.46929,392.745131 L405.96929,400.745131 L405.533502,401.519864 L405.097715,400.745131 L400.597715,392.745131 L401.46929,392.254869 L405.033,398.59 L405.033502,358 L406.033502,358 Z" fill="#2C3440" fill-rule="nonzero"></path>
        <path id="Path-41" d="M723,173.730136 L723.435788,174.504869 L727.935788,182.504869 L727.064212,182.995131 L723.5,176.658 L723.5,190 L722.5,190 L722.5,176.658 L718.935788,182.995131 L718.064212,182.504869 L722.564212,174.504869 L723,173.730136 Z" fill="#2C3440" fill-rule="nonzero"></path>
        <text id="No" font-family="Inter-Regular_Italic, Inter" font-size="10" font-style="italic" font-weight="normal" fill="#2C3440">
            <tspan x="733.252841" y="186">No</tspan>
        </text>
        <text id="Yes" font-family="Inter-Regular_Italic, Inter" font-size="10" font-style="italic" font-weight="normal" fill="#2C3440">
            <tspan x="731.143466" y="245">Yes</tspan>
        </text>
        <text id="Yes" font-family="Inter-Regular_Italic, Inter" font-size="10" font-style="italic" font-weight="normal" fill="#2C3440">
            <tspan x="420.143466" y="242">Yes</tspan>
        </text>
        <text id="Goal-achieved" font-family="Inter-Regular_Italic, Inter" font-size="10" font-style="italic" font-weight="normal" fill="#2C3440">
            <tspan x="420" y="311">Goal achieved</tspan>
        </text>
        <path id="Path-42" d="M722.50008,216.991061 L723.49992,217.008939 L722.507554,272.508939 L722.498773,273 L464.408,273 L470.745131,276.564212 L470.254869,277.435788 L462.254869,272.935788 L461.480136,272.5 L462.254869,272.064212 L470.254869,267.564212 L470.745131,268.435788 L464.408,272 L721.516,272 L722.50008,216.991061 Z" fill="#2C3440" fill-rule="nonzero"></path>
        <line x1="461" y1="344.5" x2="502.625" y2="344.5" id="Path-43" stroke="#5DA6FA"></line>
        <path id="Path-43-Copy" d="M495.370131,411.564212 L503.370131,416.064212 L504.144864,416.5 L503.370131,416.935788 L495.370131,421.435788 L494.879869,420.564212 L501.216,417 L501,417 L501,416 L501.216,416 L494.879869,412.435788 L495.370131,411.564212 Z M463,416 L463,417 L461,417 L461,416 L463,416 Z M467,416 L467,417 L465,417 L465,416 L467,416 Z M471,416 L471,417 L469,417 L469,416 L471,416 Z M475,416 L475,417 L473,417 L473,416 L475,416 Z M479,416 L479,417 L477,417 L477,416 L479,416 Z M483,416 L483,417 L481,417 L481,416 L483,416 Z M487,416 L487,417 L485,417 L485,416 L487,416 Z M491,416 L491,417 L489,417 L489,416 L491,416 Z M495,416 L495,417 L493,417 L493,416 L495,416 Z M499,416 L499,417 L497,417 L497,416 L499,416 Z" fill="#2C3440" fill-rule="nonzero"></path>
        <path id="Path-43-Copy-2" d="M343.370131,411.564212 L351.370131,416.064212 L352.144864,416.5 L351.370131,416.935788 L343.370131,421.435788 L342.879869,420.564212 L349.216,417 L349,417 L349,416 L349.216,416 L342.879869,412.435788 L343.370131,411.564212 Z M311,416 L311,417 L309,417 L309,416 L311,416 Z M315,416 L315,417 L313,417 L313,416 L315,416 Z M319,416 L319,417 L317,417 L317,416 L319,416 Z M323,416 L323,417 L321,417 L321,416 L323,416 Z M327,416 L327,417 L325,417 L325,416 L327,416 Z M331,416 L331,417 L329,417 L329,416 L331,416 Z M335,416 L335,417 L333,417 L333,416 L335,416 Z M339,416 L339,417 L337,417 L337,416 L339,416 Z M343,416 L343,417 L341,417 L341,416 L343,416 Z M347,416 L347,417 L345,417 L345,416 L347,416 Z" fill="#2C3440" fill-rule="nonzero"></path>
        <line x1="528" y1="115" x2="528" y2="90" id="Path-44" stroke="#7BB3F3"></line>
    </g>
</svg>