<?xml version="1.0" encoding="UTF-8"?>
<svg width="50px" height="50px" viewBox="0 0 50 50" version="1.1" xmlns="http://www.w3.org/2000/svg" xmlns:xlink="http://www.w3.org/1999/xlink">
    <title>Group 29</title>
    <g id="Portfolio_2" stroke="none" stroke-width="1" fill="none" fill-rule="evenodd">
        <g id="Goal-Setter" transform="translate(-716.000000, -5656.000000)">
            <g id="Group-29" transform="translate(716.000000, 5656.000000)">
                <circle id="Oval-Copy-12" fill="#F6F9FC" cx="25" cy="25" r="25"></circle>
                <g id="woman-(1)" transform="translate(11.000000, 7.000000)" fill-rule="nonzero">
                    <path d="M21.9491525,16.0169492 C21.9491525,17.2033898 23.7288136,17.7966102 23.1355932,19.5762712 C22.5423729,21.3559322 20.7627119,20.7627119 20.1694915,20.1694915 C20.7627119,21.3559322 18.9830508,23.7288136 17.2033898,22.5423729 L10.6779661,22.5423729 C9.49152542,23.1355932 8.19311441,22.5423729 8.30508475,21.3559322 C7.11864407,21.9491525 6.11980932,21.4300847 5.81058284,20.6388771 C5.50137267,19.8484051 5.93220339,18.9830508 6.52542373,18.3898305 C7.11864407,17.7966102 7.71186441,17.7966102 7.71186441,15.4237288 L7.26991525,13.2147246 C7.18826984,13.3764371 7.08306153,13.5251282 6.95773305,13.6559322 C6.83638541,13.7812259 6.69182153,13.8817154 6.53209746,13.9518008 C6.3758053,14.0185138 6.20813195,14.0545164 6.03822966,14.0578434 C5.86827731,14.0645448 5.69867686,14.0375801 5.53918305,13.9785002 C5.36052186,13.9114977 5.20500184,13.7943427 5.09130169,13.6411061 C4.86537083,13.3305214 4.85069925,12.9138502 5.05422542,12.5881438 C5.15154788,12.434803 5.29330746,12.314778 5.46059841,12.244076 C5.60979492,12.1822644 5.77093854,12.1546439 5.93220339,12.1632415 C6.08801231,12.1702291 6.21136551,12.2974622 6.21352602,12.4534128 C6.21568654,12.6093634 6.09590534,12.7399648 5.94034979,12.751266 L5.93220339,12.7520127 C5.86158552,12.7557098 5.79279239,12.7757639 5.73125,12.8105932 C5.66848979,12.8465066 5.62604672,12.909612 5.61644957,12.9812815 C5.60685242,13.0529509 5.63119716,13.1249998 5.68229746,13.1761601 C5.71457795,13.2033722 5.75392129,13.2208596 5.79575085,13.2265882 C5.85696031,13.2365657 5.91943937,13.235813 5.98039068,13.2243637 C6.10041946,13.2077904 6.20745438,13.1402179 6.27403475,13.0389823 C6.36126241,12.9033855 6.42097845,12.7519614 6.44978517,12.5933255 C6.49088834,12.3975228 6.51519979,12.1985684 6.52245466,11.9986296 C6.5328464,11.7895142 6.53136186,11.572994 6.52467924,11.352755 L6.52458951,11.3492839 C6.51874686,11.1151207 6.42655739,10.8913804 6.26574227,10.7210717 C5.58540604,10.0025803 4.74576271,9.36374354 4.74576271,8.30508475 C4.74576271,6.52542373 6.52542373,5.93220339 6.52542373,5.93220339 C6.52542373,4.15254237 8.30508475,8.43016805e-15 13.6440678,8.43016805e-15 C18.9830508,8.43016805e-15 19.5762712,2.96610169 19.5762712,2.96610169 C20.7627119,2.96610169 23.1355932,4.74576271 23.1355932,7.11864407 C24.9152542,7.71186441 24.9152542,10.0847458 24.9152542,10.0847458 C24.9152542,13.0508475 21.9491525,12.4576271 21.9491525,16.0169492 L21.9491525,16.0169492 Z" id="Path" fill="#F57A08"></path>
                    <path d="M27.2881356,35 L0,35 C0,26.6259586 4.24597458,24.2849576 7.52574153,23.040678 C9.59015424,22.2576204 11.2711864,21.9083686 11.2711864,20.7627119 C11.2711864,18.3898305 7.11864407,18.3898305 7.11864407,14.2372881 L7.11864407,8.89830508 C7.34258475,5.44353146 8.58019068,2.96610169 14.2372881,2.96610169 C22.5423729,2.96610169 20.7627119,8.89830508 20.7627119,11.2711864 L20.9873941,11.0465042 C21.347286,10.6865884 21.8885537,10.5789162 22.3587894,10.773698 C22.8290251,10.9684798 23.1356171,11.4273538 23.1355932,11.9363347 L23.1355932,12.1988347 C23.1357031,12.713541 22.8223231,13.1764188 22.3443915,13.3674788 L20.3756415,14.1549788 C19.2433263,17.8878178 16.0169492,18.317161 16.0169492,20.7627119 C16.0169492,21.9083686 17.6979814,22.2576204 19.7623941,23.040678 C23.042161,24.2849576 27.2881356,26.6259586 27.2881356,35 L27.2881356,35 Z" id="Path" fill="#FFD9B3"></path>
                    <path d="M8.21723178,9.57856864 L8.63723178,9.15790127 C8.79605982,8.99881675 9.03116449,8.94317557 9.24444989,9.01419364 L10.6067589,9.46781292 C10.6535833,9.483404 10.6961139,9.50972701 10.7309548,9.54468019 C10.8212848,9.6352983 10.8481847,9.7713825 10.7991262,9.88955364 C10.7500677,10.0077248 10.6346977,10.0847458 10.5067479,10.0847458 L8.42713983,10.0847458 C8.30721456,10.0847458 8.19908794,10.0125332 8.15314921,9.90175548 C8.10721048,9.79097775 8.13249978,9.66343654 8.21723178,9.57856864 L8.21723178,9.57856864 Z" id="Path" fill="#F57A08"></path>
                    <path d="M16.6980225,9.57856864 L16.2780225,9.15790127 C16.1191944,8.99881675 15.8840897,8.94317557 15.6708043,9.01419364 L14.3084953,9.46781292 C14.2616709,9.483404 14.2191403,9.50972701 14.1842995,9.54468019 C14.093969,9.63529878 14.0670693,9.77138388 14.1161288,9.88955535 C14.1651882,10.0077268 14.2805596,10.0847458 14.4085101,10.0847458 L16.4881181,10.0847458 C16.6080427,10.0847458 16.716168,10.0125312 16.7621057,9.90175376 C16.8080435,9.79097638 16.782754,9.66343606 16.6980225,9.57856864 L16.6980225,9.57856864 Z" id="Path" fill="#F57A08"></path>
                    <path d="M20.1694915,11.5677966 L17.2033898,11.5677966 C17.0395766,11.5677966 16.9067797,11.4349997 16.9067797,11.2711864 C16.9067797,11.1073732 17.0395766,10.9745763 17.2033898,10.9745763 L20.1694915,10.9745763 C20.3333048,10.9745763 20.4661017,11.1073732 20.4661017,11.2711864 C20.4661017,11.4349997 20.3333048,11.5677966 20.1694915,11.5677966 Z" id="Path" fill="#082F40"></path>
                    <path d="M13.7456657,11.5677966 L11.1695166,11.5677966 C11.0057034,11.5677966 10.8729065,11.4349997 10.8729065,11.2711864 C10.8729065,11.1073732 11.0057034,10.9745763 11.1695166,10.9745763 L13.7456657,10.9745763 C13.909479,10.9745763 14.0422758,11.1073732 14.0422758,11.2711864 C14.0422758,11.4349997 13.909479,11.5677966 13.7456657,11.5677966 Z" id="Path" fill="#082F40"></path>
                    <path d="M7.81331695,11.5677966 L7.11864407,11.5677966 C6.95483079,11.5677966 6.8220339,11.4349997 6.8220339,11.2711864 C6.8220339,11.1073732 6.95483079,10.9745763 7.11864407,10.9745763 L7.81331695,10.9745763 C7.97713022,10.9745763 8.10992712,11.1073732 8.10992712,11.2711864 C8.10992712,11.4349997 7.97713022,11.5677966 7.81331695,11.5677966 Z" id="Path" fill="#082F40"></path>
                    <g id="Group" transform="translate(7.415254, 9.788136)" fill="#084C4F">
                        <path d="M2.07627119,4.15254237 C0.929578274,4.15254237 0,3.2229641 0,2.07627119 C0,0.929578274 0.929578274,0 2.07627119,0 C3.2229641,0 4.15254237,0.929578274 4.15254237,2.07627119 C4.15125675,3.22243115 3.22243115,4.15125675 2.07627119,4.15254237 L2.07627119,4.15254237 Z M2.07627119,0.593220339 C1.25720482,0.593220339 0.593220339,1.25720482 0.593220339,2.07627119 C0.593220339,2.89533755 1.25720482,3.55932203 2.07627119,3.55932203 C2.89533755,3.55932203 3.55932203,2.89533755 3.55932203,2.07627119 C3.55839849,1.25758767 2.8949547,0.594143887 2.07627119,0.593220339 Z" id="Shape"></path>
                        <path d="M8.00847458,4.15254237 C6.86178166,4.15254237 5.93220339,3.2229641 5.93220339,2.07627119 C5.93220339,0.929578274 6.86178166,0 8.00847458,0 C9.15516749,0 10.0847458,0.929578274 10.0847458,2.07627119 C10.0834601,3.22243115 9.15463454,4.15125675 8.00847458,4.15254237 L8.00847458,4.15254237 Z M8.00847458,0.593220339 C7.18940821,0.593220339 6.52542373,1.25720482 6.52542373,2.07627119 C6.52542373,2.89533755 7.18940821,3.55932203 8.00847458,3.55932203 C8.82754094,3.55932203 9.49152542,2.89533755 9.49152542,2.07627119 C9.49060188,1.25758767 8.82715809,0.594143887 8.00847458,0.593220339 Z" id="Shape"></path>
                        <path d="M2.07627119,1.48305085 C1.82026254,1.48314876 1.59320181,1.6474808 1.51310265,1.89063623 C1.47084905,1.87762913 1.42946377,1.86375222 1.39017924,1.84781239 C1.29925271,1.8141001 1.2171577,1.76020187 1.15007331,1.69017447 C1.10172147,1.63235214 1.07716601,1.55830722 1.08138506,1.48305085 L1.0814036,1.48139428 L1.08138506,1.47976292 C1.08093214,1.41123618 1.04390799,1.34817105 0.984291265,1.31437806 C0.924674536,1.28058507 0.85154722,1.28121224 0.792518863,1.31602278 C0.733490506,1.35083331 0.697553473,1.41452419 0.698265261,1.48304862 C0.699044266,1.56878886 0.716533063,1.65355561 0.749762288,1.73259862 C0.784179503,1.81227863 0.835311792,1.88363548 0.899698729,1.94184004 C1.01392623,2.04067303 1.15174839,2.10832141 1.29980731,2.1382286 C1.36281344,2.15317691 1.4267555,2.16386129 1.49119873,2.17020911 C1.5413058,2.48144614 1.82619987,2.6990562 2.1396555,2.66551853 C2.45311113,2.63198085 2.6855177,2.35902305 2.66864373,2.0442303 C2.65176976,1.72943755 2.39151582,1.48288804 2.07627119,1.48305085 L2.07627119,1.48305085 Z" id="Path"></path>
                        <path d="M8.00847458,1.48305085 C7.75246593,1.48314876 7.5254052,1.6474808 7.44530604,1.89063623 C7.40305244,1.87762913 7.36166716,1.86375222 7.32238263,1.84781239 C7.2314561,1.8141001 7.14936109,1.76020187 7.08227669,1.69017447 C7.03392486,1.63235214 7.0093694,1.55830722 7.01358845,1.48305085 L7.01360699,1.48139428 L7.01358845,1.47976292 C7.01313553,1.41123618 6.97611138,1.34817105 6.91649465,1.31437806 C6.85687793,1.28058507 6.78375061,1.28121224 6.72472225,1.31602278 C6.6656939,1.35083331 6.62975686,1.41452419 6.63046865,1.48304862 C6.63124766,1.56878886 6.64873645,1.65355561 6.68196568,1.73259862 C6.71638289,1.81227863 6.76751518,1.88363548 6.83190212,1.94184004 C6.94612962,2.04067303 7.08395178,2.10832141 7.2320107,2.1382286 C7.29501683,2.15317691 7.35895889,2.16386129 7.42340212,2.17020911 C7.47350919,2.48144614 7.75840326,2.6990562 8.07185889,2.66551853 C8.38531452,2.63198085 8.61772109,2.35902305 8.60084712,2.0442303 C8.58397315,1.72943755 8.32371921,1.48288804 8.00847458,1.48305085 L8.00847458,1.48305085 Z" id="Path"></path>
                    </g>
                    <path d="M12.4576271,16.3135593 C12.2938138,16.3135593 12.1610169,16.1807624 12.1610169,16.0169492 C12.1610169,15.8531359 12.2938138,15.720339 12.4576271,15.720339 C13.4931555,15.720339 14.007806,15.2331338 14.0291686,15.2123867 C14.1457064,15.0985589 14.3322353,15.1000183 14.4469777,15.2156556 C14.56172,15.331293 14.5617302,15.5178276 14.4470004,15.6334774 C14.4192659,15.6612483 13.7520376,16.3135593 12.4576271,16.3135593 L12.4576271,16.3135593 Z" id="Path" fill="#FF7C8C"></path>
                    <path d="M27.2881356,35 L0,35 C0,26.6259586 4.24597458,24.2849576 7.52574153,23.040678 C8.89162468,24.4347458 11.5084746,24.9152542 13.6440678,24.9152542 C15.779661,24.9152542 18.3965109,24.4347458 19.7623941,23.040678 C23.042161,24.2849576 27.2881356,26.6259586 27.2881356,35 Z" id="Path" fill="#B1CDB4"></path>
                    <path d="M6.8220339,35 C6.8220339,34.1801947 6.5491036,33.634297 6.26009703,33.0563922 C5.95305879,32.4422801 5.63559322,31.8073133 5.63559322,30.8474576 C5.63559322,28.9665613 6.8569375,27.7236008 6.90893178,27.6716073 C7.02471524,27.5559329 7.21231285,27.5559042 7.32813169,27.6715432 C7.44395053,27.7871822 7.44421334,27.9747796 7.32871896,28.0907427 C7.31329449,28.1063844 6.22881356,29.2222934 6.22881356,30.8474576 C6.22881356,31.6672629 6.50174386,32.2131606 6.79075042,32.7910655 C7.09778867,33.4051775 7.41525424,34.0401443 7.41525424,35 L6.8220339,35 Z" id="Path" fill="#E7F2DA"></path>
                    <path d="M19.8728811,35 C19.8728811,34.0401443 20.1903469,33.4051775 20.4973852,32.7910655 C20.7863917,32.2131606 21.059322,31.6672629 21.059322,30.8474576 C21.059322,29.2095844 19.9707857,28.1020754 19.9597792,28.0911046 C19.8848433,28.0161816 19.8555705,27.906972 19.8829877,27.8046141 C19.910405,27.7022561 19.9903468,27.6223004 20.0927,27.5948654 C20.1950532,27.5674305 20.3042678,27.5966843 20.3792038,27.6716073 C20.4311981,27.7236008 21.6525424,28.9665613 21.6525424,30.8474576 C21.6525424,31.8073133 21.3350768,32.4422801 21.0280386,33.0563922 C20.739032,33.634297 20.4661017,34.1801947 20.4661017,35 L19.8728811,35 Z" id="Path" fill="#E7F2DA"></path>
                    <path d="M21.9491525,7.39077797 L20.7627119,11.2711864 L20.7625406,11.2720807 C20.7481698,11.3472813 20.7370669,11.422997 20.729232,11.4992278 C20.7128369,11.6576717 20.6810736,11.9478276 20.6514831,12.1217139 C20.6111223,12.3809022 20.5478446,12.6359984 20.4623941,12.884002 C20.3686199,13.1710499 20.2138051,13.4343902 20.0085901,13.6559233 C19.8872425,13.781217 19.7426786,13.8817065 19.5829546,13.9517919 C19.4266624,14.0185049 19.2589891,14.0545075 19.0890868,14.0578345 C18.9191344,14.0645359 18.749534,14.0375712 18.5900401,13.9784913 C18.411379,13.9114888 18.2558589,13.7943338 18.1421588,13.6410972 C17.9162279,13.3305125 17.9015563,12.9138413 18.1050825,12.5881349 C18.202405,12.4347941 18.3441646,12.3147691 18.5114555,12.2440671 C18.6606497,12.1822599 18.8217899,12.1546425 18.9830508,12.1632415 C19.1388598,12.1702291 19.262213,12.2974622 19.2643735,12.4534128 C19.266534,12.6093634 19.1467528,12.7399648 18.9911972,12.751266 L18.9830508,12.7520127 C18.912433,12.7557098 18.8436399,12.7757639 18.7820975,12.8105932 C18.7193372,12.8465066 18.6768942,12.909612 18.667297,12.9812815 C18.6576999,13.0529509 18.6820446,13.1249998 18.7331449,13.1761601 C18.7654254,13.2033722 18.8047687,13.2208596 18.8465983,13.2265882 C18.9078078,13.2365657 18.9702868,13.235813 19.0312381,13.2243637 C19.1512669,13.2077904 19.2583018,13.1402179 19.3248822,13.0389823 C19.4121099,12.9033855 19.4718259,12.7519614 19.5006326,12.5933255 C19.5417358,12.3975228 19.5660472,12.1985684 19.5733021,11.9986296 C19.5836939,11.7895142 19.5822093,11.572994 19.5755267,11.352755 C19.5695886,11.1325219 19.5599547,10.9085812 19.5762682,10.6779668 L19.5777513,10.6564626 C19.5784928,10.6453471 19.5799758,10.6342168 19.5814589,10.6238399 C19.1966013,10.170756 18.7079449,9.5345339 18.3898305,8.89830508 C17.2033898,9.49152542 15.4237288,8.30508475 15.4237288,7.11864407 C13.0508475,8.30508475 10.0847458,6.52542373 10.0847458,5.33898305 C10.0847458,6.52542373 8.89830508,7.71186441 7.11864407,8.89830508 L7.11864407,5.33898305 L12.4576271,1.21091102 L20.7649364,4.3253178 L21.9491525,7.39077797 Z" id="Path" fill="#F57A08"></path>
                    <path d="M19.5762712,29.9576271 L16.0169492,29.9576271 C15.8531359,29.9576271 15.720339,29.8248302 15.720339,29.6610169 C15.720339,29.4972037 15.8531359,29.3644068 16.0169492,29.3644068 L19.5762712,29.3644068 C19.7400845,29.3644068 19.8728814,29.4972037 19.8728814,29.6610169 C19.8728814,29.8248302 19.7400845,29.9576271 19.5762712,29.9576271 Z" id="Path" fill="#E7F2DA"></path>
                    <path d="M7.11864407,25.8050847 C6.95483419,25.8050847 6.82204209,25.6722845 6.8220339,25.5084746 C6.79912072,24.9229786 6.68560315,24.3445707 6.48552299,23.7938453 C6.44930331,23.6942669 6.46895942,23.5829297 6.53708704,23.5017733 C6.60521466,23.4206169 6.71146358,23.381971 6.81581087,23.4003931 C6.92015816,23.4188151 7.00675098,23.4915064 7.04297066,23.5910849 C7.2681612,24.2063723 7.39383247,24.853623 7.41525424,25.5084746 C7.41525424,25.6722845 7.28245395,25.8050847 7.11864407,25.8050847 L7.11864407,25.8050847 Z" id="Path" fill="#E7F2DA"></path>
                    <path d="M20.1694915,25.8049038 L20.1691297,25.8049038 C20.0055053,25.8047598 19.8729255,25.672099 19.8728814,25.5084746 C19.8943014,24.8536334 20.0199728,24.2063932 20.2451649,23.5911175 C20.3011557,23.4371826 20.4713341,23.3577831 20.625269,23.4137739 C20.7792039,23.4697647 20.8586034,23.639943 20.8026126,23.793878 C20.6024836,24.3447162 20.4889651,24.9232521 20.4661017,25.5088728 C20.465663,25.6724102 20.3330295,25.8047847 20.1694915,25.8049038 L20.1694915,25.8049038 Z" id="Path" fill="#E7F2DA"></path>
                    <path d="M12.4576271,14.5338983 L12.1610169,14.5338983 C11.5057639,14.5338983 10.9745763,14.0027107 10.9745763,13.3474576 C10.9745763,12.6922045 11.5057639,12.1610169 12.1610169,12.1610169 L12.4576271,12.1610169 C12.6214404,12.1610169 12.7542373,12.2938138 12.7542373,12.4576271 C12.7542373,12.6214404 12.6214404,12.7542373 12.4576271,12.7542373 L12.1610169,12.7542373 C11.8333904,12.7542373 11.5677966,13.0198311 11.5677966,13.3474576 C11.5677966,13.6750842 11.8333904,13.940678 12.1610169,13.940678 L12.4576271,13.940678 C12.6214404,13.940678 12.7542373,14.0734749 12.7542373,14.2372881 C12.7542373,14.4011014 12.6214404,14.5338983 12.4576271,14.5338983 Z" id="Path" fill="#FFC68D"></path>
                </g>
            </g>
        </g>
    </g>
</svg>