<?xml version="1.0" encoding="UTF-8"?>
<svg width="824px" height="375px" viewBox="0 0 824 375" version="1.1" xmlns="http://www.w3.org/2000/svg" xmlns:xlink="http://www.w3.org/1999/xlink">
    <title>Artboard Copy 6</title>
    <g id="Artboard-Copy-6" stroke="none" stroke-width="1" fill="none" fill-rule="evenodd">
        <rect id="Rectangle" fill-opacity="0.4" fill="#FFFFFF" x="0" y="0" width="824" height="375" rx="5"></rect>
        <rect id="Rectangle" fill-opacity="0.4" fill="#FFFFFF" x="0" y="36" width="61" height="339"></rect>
        <rect id="Rectangle-Copy-13" fill-opacity="0.4" fill="#FFFFFF" x="116" y="36" width="61" height="339"></rect>
        <rect id="Rectangle-Copy-14" fill-opacity="0.4" fill="#FFFFFF" x="233" y="36" width="61" height="339"></rect>
        <rect id="Rectangle-Copy-15" fill-opacity="0.4" fill="#FFFFFF" x="348" y="36" width="61" height="339"></rect>
        <rect id="Rectangle-Copy-16" fill-opacity="0.4" fill="#FFFFFF" x="470" y="36" width="61" height="339"></rect>
        <rect id="Rectangle-Copy-17" fill-opacity="0.4" fill="#FFFFFF" x="589" y="36" width="61" height="339"></rect>
        <path d="M5,0 L819,0 C821.761424,6.32612962e-14 824,2.23857625 824,5 L824,36 L824,36 L0,36 L0,5 C-3.38176876e-16,2.23857625 2.23857625,5.07265313e-16 5,0 Z" id="Rectangle" fill-opacity="0.5" fill="#FFFFFF"></path>
        <line x1="469.5" y1="0.49867374" x2="469.5" y2="374.5" id="Line-10-Copy" stroke="#FAFAFA" stroke-linecap="square"></line>
        <line x1="233.5" y1="0.49867374" x2="233.5" y2="374.5" id="Line-10-Copy-9" stroke="#FAFAFA" stroke-linecap="square"></line>
        <line x1="701.5" y1="0.498684211" x2="701.5" y2="375.5" id="Line-10-Copy-2" stroke="#FAFAFA" stroke-linecap="square"></line>
        <text id="July" font-family="Inter-Regular_Medium, Inter" font-size="10" font-weight="400" fill="#2C3440">
            <tspan x="21" y="23">July</tspan>
        </text>
        <text id="August" font-family="Inter-Regular_Medium, Inter" font-size="10" font-weight="400" fill="#2C3440">
            <tspan x="256" y="23">August</tspan>
        </text>
        <text id="September" font-family="Inter-Regular_Medium, Inter" font-size="10" font-weight="400" fill="#2C3440">
            <tspan x="489" y="23">September</tspan>
        </text>
        <text id="October" font-family="Inter-Regular_Medium, Inter" font-size="10" font-weight="400" fill="#2C3440">
            <tspan x="716" y="23">October</tspan>
        </text>
        <path d="M3,52 L95.5,52 C99.6421356,52 103,55.3578644 103,59.5 C103,63.6421356 99.6421356,67 95.5,67 L3,67 C1.8954305,67 1,66.1045695 1,65 L1,54 C1,52.8954305 1.8954305,52 3,52 Z" id="Rectangle" fill="#F67A88"></path>
        <path d="M16,71 L103.5,71 C107.642136,71 111,74.3578644 111,78.5 C111,82.6421356 107.642136,86 103.5,86 L16,86 C14.8954305,86 14,85.1045695 14,84 L14,73 C14,71.8954305 14.8954305,71 16,71 Z" id="Rectangle-Copy" fill="#F67A88"></path>
        <path d="M63,92 L134.5,92 C138.642136,92 142,95.3578644 142,99.5 C142,103.642136 138.642136,107 134.5,107 L63,107 C61.8954305,107 61,106.104569 61,105 L61,94 C61,92.8954305 61.8954305,92 63,92 Z" id="Rectangle-Copy-2" fill="#F1A759"></path>
        <path d="M103,112 L192.5,112 C196.642136,112 200,115.357864 200,119.5 C200,123.642136 196.642136,127 192.5,127 L103,127 C101.895431,127 101,126.104569 101,125 L101,114 C101,112.895431 101.895431,112 103,112 Z" id="Rectangle-Copy-3" fill="#F1A759"></path>
        <path d="M121,131 L208.5,131 C212.642136,131 216,134.357864 216,138.5 C216,142.642136 212.642136,146 208.5,146 L121,146 C119.895431,146 119,145.104569 119,144 L119,133 C119,131.895431 119.895431,131 121,131 Z" id="Rectangle-Copy-4" fill="#F1A759"></path>
        <path d="M155,151 L212.5,151 C216.642136,151 220,154.357864 220,158.5 C220,162.642136 216.642136,166 212.5,166 L155,166 C153.895431,166 153,165.104569 153,164 L153,153 C153,151.895431 153.895431,151 155,151 Z" id="Rectangle-Copy-5" fill="#80BBB2"></path>
        <path d="M163,171 L225.5,171 C229.642136,171 233,174.357864 233,178.5 C233,182.642136 229.642136,186 225.5,186 L163,186 C161.895431,186 161,185.104569 161,184 L161,173 C161,171.895431 161.895431,171 163,171 Z" id="Rectangle-Copy-6" fill="#80BBB2"></path>
        <path d="M236,191 L340.5,191 C344.642136,191 348,194.357864 348,198.5 C348,202.642136 344.642136,206 340.5,206 L236,206 C234.895431,206 234,205.104569 234,204 L234,193 C234,191.895431 234.895431,191 236,191 Z" id="Rectangle-Copy-7" fill="#80BBB2"></path>
        <path d="M472,227 L543.5,227 C547.642136,227 551,230.357864 551,234.5 C551,238.642136 547.642136,242 543.5,242 L472,242 C470.895431,242 470,241.104569 470,240 L470,229 C470,227.895431 470.895431,227 472,227 Z" id="Rectangle-Copy-9" fill="#80BBB2"></path>
        <path d="M472,247 L568.5,247 C572.642136,247 576,250.357864 576,254.5 C576,258.642136 572.642136,262 568.5,262 L472,262 C470.895431,262 470,261.104569 470,260 L470,249 C470,247.895431 470.895431,247 472,247 Z" id="Rectangle-Copy-10" fill="#80BBB2"></path>
        <path d="M578,267 L693.5,267 C697.642136,267 701,270.357864 701,274.5 C701,278.642136 697.642136,282 693.5,282 L578,282 C576.895431,282 576,281.104569 576,280 L576,269 C576,267.895431 576.895431,267 578,267 Z" id="Rectangle-Copy-11" fill="#80BBB2"></path>
        <path d="M704,287 L816.5,287 C820.642136,287 824,290.357864 824,294.5 C824,298.642136 820.642136,302 816.5,302 L704,302 C702.895431,302 702,301.104569 702,300 L702,289 C702,287.895431 702.895431,287 704,287 Z" id="Rectangle-Copy-12" fill="#4C9CFF"></path>
        <path d="M350,209 L461.5,209 C465.642136,209 469,212.357864 469,216.5 C469,220.642136 465.642136,224 461.5,224 L350,224 C348.895431,224 348,223.104569 348,222 L348,211 C348,209.895431 348.895431,209 350,209 Z" id="Rectangle-Copy-8" fill="#80BBB2"></path>
        <text id="Background-Research" font-family="Inter-Regular_Medium, Inter" font-size="8" font-weight="400" fill="#FFFFFF">
            <tspan x="11" y="62">Background Research</tspan>
        </text>
        <text id="Competitive-Analysis" font-family="Inter-Regular_Medium, Inter" font-size="8" font-weight="400" fill="#FFFFFF">
            <tspan x="21" y="81">Competitive Analysis</tspan>
        </text>
        <text id="Perona-Workshop" font-family="Inter-Regular_Medium, Inter" font-size="8" font-weight="400" fill="#FFFFFF">
            <tspan x="68" y="102">Perona Workshop</tspan>
        </text>
        <text id="Brainstorming-Sessio" font-family="Inter-Regular_Medium, Inter" font-size="8" font-weight="400" fill="#FFFFFF">
            <tspan x="109" y="122">Brainstorming Session</tspan>
        </text>
        <text id="Lightning-Design-Jam" font-family="Inter-Regular_Medium, Inter" font-size="8" font-weight="400" fill="#FFFFFF">
            <tspan x="126" y="141">Lightning Design Jam</tspan>
        </text>
        <text id="Sketch" font-family="Inter-Regular_Medium, Inter" font-size="8" font-weight="400" fill="#FFFFFF">
            <tspan x="174" y="161">Sketch</tspan>
        </text>
        <text id="Wireframe" font-family="Inter-Regular_Medium, Inter" font-size="8" font-weight="400" fill="#FFFFFF">
            <tspan x="182" y="181">Wireframe</tspan>
        </text>
        <text id="Wireframe-Iteration" font-family="Inter-Regular_Medium, Inter" font-size="8" font-weight="400" fill="#FFFFFF">
            <tspan x="246" y="201">Wireframe Iteration</tspan>
        </text>
        <text id="User-Testing" font-family="Inter-Regular_Medium, Inter" font-size="8" font-weight="400" fill="#FFFFFF">
            <tspan x="480" y="237">User Testing</tspan>
        </text>
        <text id="Design-Library" font-family="Inter-Regular_Medium, Inter" font-size="8" font-weight="400" fill="#FFFFFF">
            <tspan x="493" y="257">Design Library</tspan>
        </text>
        <text id="Hi-fi-Prototype" font-family="Inter-Regular_Medium, Inter" font-size="8" font-weight="400" fill="#FFFFFF">
            <tspan x="593" y="277">Hi-fi Prototype</tspan>
        </text>
        <text id="Frontend-Development" font-family="Inter-Regular_Medium, Inter" font-size="8" font-weight="400" fill="#FFFFFF">
            <tspan x="719" y="297">Frontend Development</tspan>
        </text>
        <text id="Mid-fi-Prototype" font-family="Inter-Regular_Medium, Inter" font-size="8" font-weight="400" fill="#FFFFFF">
            <tspan x="361" y="219">Mid-fi Prototype</tspan>
        </text>
        <path d="M0,326 L693.5,326 C697.642136,326 701,329.357864 701,333.5 C701,337.642136 697.642136,341 693.5,341 L0,341 L0,341 L0,326 Z" id="Rectangle" fill="#FFFFFF" opacity="0.628974382"></path>
        <text id="Case-Study-Paper-for" font-family="Inter-Regular_Medium, Inter" font-size="8" font-weight="400" fill="#2C3440">
            <tspan x="21" y="336">Case Study Paper for CHI Conference 2020</tspan>
        </text>
    </g>
</svg>