<?xml version="1.0" encoding="UTF-8"?>
<svg width="824px" height="297px" viewBox="0 0 824 297" version="1.1" xmlns="http://www.w3.org/2000/svg" xmlns:xlink="http://www.w3.org/1999/xlink">
    <title>Artboard Copy 6</title>
    <g id="Artboard-Copy-6" stroke="none" stroke-width="1" fill="none" fill-rule="evenodd">
        <rect id="Rectangle" fill-opacity="0.4" fill="#FFFFFF" x="0" y="0" width="824" height="375" rx="5"></rect>
        <rect id="Rectangle" fill-opacity="0.4" fill="#FFFFFF" x="0" y="36" width="69" height="261"></rect>
        <rect id="Rectangle-Copy-13" fill-opacity="0.4" fill="#FFFFFF" x="133" y="36" width="69" height="261"></rect>
        <rect id="Rectangle-Copy-14" fill-opacity="0.4" fill="#FFFFFF" x="272" y="36" width="69" height="261"></rect>
        <rect id="Rectangle-Copy-15" fill-opacity="0.4" fill="#FFFFFF" x="407" y="36" width="69" height="261"></rect>
        <rect id="Rectangle-Copy-16" fill-opacity="0.4" fill="#FFFFFF" x="545" y="36" width="69" height="261"></rect>
        <rect id="Rectangle-Copy-17" fill-opacity="0.4" fill="#FFFFFF" x="685" y="36" width="69" height="261"></rect>
        <path d="M5,0 L819,0 C821.761424,6.32612962e-14 824,2.23857625 824,5 L824,36 L824,36 L0,36 L0,5 C-3.38176876e-16,2.23857625 2.23857625,5.07265313e-16 5,0 Z" id="Rectangle" fill-opacity="0.5" fill="#FFFFFF"></path>
        <text id="Week-1" font-family="Inter-Regular_Medium, Inter" font-size="10" font-weight="400" fill="#2C3440">
            <tspan x="14" y="23">Week 1</tspan>
        </text>
        <text id="Week-2" font-family="Inter-Regular_Medium, Inter" font-size="10" font-weight="400" fill="#2C3440">
            <tspan x="80.9545455" y="23">Week 2</tspan>
        </text>
        <text id="Week-3" font-family="Inter-Regular_Medium, Inter" font-size="10" font-weight="400" fill="#2C3440">
            <tspan x="148.909091" y="23">Week 3</tspan>
        </text>
        <text id="Week-4" font-family="Inter-Regular_Medium, Inter" font-size="10" font-weight="400" fill="#2C3440">
            <tspan x="217.863636" y="23">Week 4</tspan>
        </text>
        <text id="Week-5" font-family="Inter-Regular_Medium, Inter" font-size="10" font-weight="400" fill="#2C3440">
            <tspan x="286.818182" y="23">Week 5</tspan>
        </text>
        <text id="Week-6" font-family="Inter-Regular_Medium, Inter" font-size="10" font-weight="400" fill="#2C3440">
            <tspan x="354.772727" y="23">Week 6</tspan>
        </text>
        <text id="Week-7" font-family="Inter-Regular_Medium, Inter" font-size="10" font-weight="400" fill="#2C3440">
            <tspan x="423.727273" y="23">Week 7</tspan>
        </text>
        <text id="Week-8" font-family="Inter-Regular_Medium, Inter" font-size="10" font-weight="400" fill="#2C3440">
            <tspan x="491.681818" y="23">Week 8</tspan>
        </text>
        <text id="Week-9" font-family="Inter-Regular_Medium, Inter" font-size="10" font-weight="400" fill="#2C3440">
            <tspan x="560.636364" y="23">Week 9</tspan>
        </text>
        <text id="Week-10" font-family="Inter-Regular_Medium, Inter" font-size="10" font-weight="400" fill="#2C3440">
            <tspan x="629.590909" y="23">Week 10</tspan>
        </text>
        <text id="Week-11" font-family="Inter-Regular_Medium, Inter" font-size="10" font-weight="400" fill="#2C3440">
            <tspan x="702.545455" y="23">Week 11</tspan>
        </text>
        <text id="Week-12" font-family="Inter-Regular_Medium, Inter" font-size="10" font-weight="400" fill="#2C3440">
            <tspan x="774.5" y="23">Week 12</tspan>
        </text>
        <path d="M3,52 L125.5,52 C129.642136,52 133,55.3578644 133,59.5 C133,63.6421356 129.642136,67 125.5,67 L3,67 C1.8954305,67 1,66.1045695 1,65 L1,54 C1,52.8954305 1.8954305,52 3,52 Z" id="Rectangle" fill="#F67A88"></path>
        <path d="M16,71 L125.5,71 C129.642136,71 133,74.3578644 133,78.5 C133,82.6421356 129.642136,86 125.5,86 L16,86 C14.8954305,86 14,85.1045695 14,84 L14,73 C14,71.8954305 14.8954305,71 16,71 Z" id="Rectangle-Copy" fill="#F67A88"></path>
        <path d="M70,90 L194.5,90 C198.642136,90 202,93.3578644 202,97.5 C202,101.642136 198.642136,105 194.5,105 L70,105 C68.8954305,105 68,104.104569 68,103 L68,92 C68,90.8954305 68.8954305,90 70,90 Z" id="Rectangle-Copy-2" fill="#F67A88"></path>
        <path d="M135,112 L228.5,112 C232.642136,112 236,115.357864 236,119.5 C236,123.642136 232.642136,127 228.5,127 L135,127 C133.895431,127 133,126.104569 133,125 L133,114 C133,112.895431 133.895431,112 135,112 Z" id="Rectangle-Copy-3" fill="#F1A759"></path>
        <path d="M171,134 L264.5,134 C268.642136,134 272,137.357864 272,141.5 C272,145.642136 268.642136,149 264.5,149 L171,149 C169.895431,149 169,148.104569 169,147 L169,136 C169,134.895431 169.895431,134 171,134 Z" id="Rectangle-Copy-5" fill="#80BBB2"></path>
        <path d="M274,153 L333.5,153 C337.642136,153 341,156.357864 341,160.5 C341,164.642136 337.642136,168 333.5,168 L274,168 C272.895431,168 272,167.104569 272,166 L272,155 C272,153.895431 272.895431,153 274,153 Z" id="Rectangle-Copy-6" fill="#80BBB2"></path>
        <path d="M343,175 L468.5,175 C472.642136,175 476,178.357864 476,182.5 C476,186.642136 472.642136,190 468.5,190 L343,190 C341.895431,190 341,189.104569 341,188 L341,177 C341,175.895431 341.895431,175 343,175 Z" id="Rectangle-Copy-7" fill="#80BBB2"></path>
        <path d="M478,220 L606.5,220 C610.642136,220 614,223.357864 614,227.5 C614,231.642136 610.642136,235 606.5,235 L478,235 C476.895431,235 476,234.104569 476,233 L476,222 C476,220.895431 476.895431,220 478,220 Z" id="Rectangle-Copy-9" fill="#80BBB2"></path>
        <path d="M547,242 L677.5,242 C681.642136,242 685,245.357864 685,249.5 C685,253.642136 681.642136,257 677.5,257 L547,257 C545.895431,257 545,256.104569 545,255 L545,244 C545,242.895431 545.895431,242 547,242 Z" id="Rectangle-Copy-11" fill="#80BBB2"></path>
        <path d="M687,264 L808.5,264 C812.642136,264 816,267.357864 816,271.5 C816,275.642136 812.642136,279 808.5,279 L687,279 C685.895431,279 685,278.104569 685,277 L685,266 C685,264.895431 685.895431,264 687,264 Z" id="Rectangle-Copy-12" fill="#7BB3F3"></path>
        <path d="M409,198 L537.5,198 C541.642136,198 545,201.357864 545,205.5 C545,209.642136 541.642136,213 537.5,213 L409,213 C407.895431,213 407,212.104569 407,211 L407,200 C407,198.895431 407.895431,198 409,198 Z" id="Rectangle-Copy-8" fill="#80BBB2"></path>
        <text id="Background-Research" font-family="Inter-Regular_Medium, Inter" font-size="8" font-weight="400" fill="#FFFFFF">
            <tspan x="11" y="62">Background Research</tspan>
        </text>
        <text id="Competitive-Analysis" font-family="Inter-Regular_Medium, Inter" font-size="8" font-weight="400" fill="#FFFFFF">
            <tspan x="21" y="81">Competitive Analysis</tspan>
        </text>
        <text id="Interview-Stakeholde" font-family="Inter-Regular_Medium, Inter" font-size="8" font-weight="400" fill="#FFFFFF">
            <tspan x="75" y="100">Interview Stakeholders</tspan>
        </text>
        <text id="Brainstorming-Sessio" font-family="Inter-Regular_Medium, Inter" font-size="8" font-weight="400" fill="#FFFFFF">
            <tspan x="141" y="122">Brainstorming Session</tspan>
        </text>
        <text id="Sketch" font-family="Inter-Regular_Medium, Inter" font-size="8" font-weight="400" fill="#FFFFFF">
            <tspan x="178" y="144">Sketch</tspan>
        </text>
        <text id="Wireframe" font-family="Inter-Regular_Medium, Inter" font-size="8" font-weight="400" fill="#FFFFFF">
            <tspan x="280" y="163">Wireframe</tspan>
        </text>
        <text id="Usability-Test-and-I" font-family="Inter-Regular_Medium, Inter" font-size="8" font-weight="400" fill="#FFFFFF">
            <tspan x="353" y="185">Usability Test and Iteration</tspan>
        </text>
        <text id="Design-Library" font-family="Inter-Regular_Medium, Inter" font-size="8" font-weight="400" fill="#FFFFFF">
            <tspan x="486" y="230">Design Library</tspan>
        </text>
        <text id="Hi-fi-Prototype" font-family="Inter-Regular_Medium, Inter" font-size="8" font-weight="400" fill="#FFFFFF">
            <tspan x="562" y="252">Hi-fi Prototype</tspan>
        </text>
        <text id="Write-up-and-Wrap-up" font-family="Inter-Regular_Medium, Inter" font-size="8" font-weight="400" fill="#FFFFFF">
            <tspan x="702" y="274">Write up and Wrap up</tspan>
        </text>
        <text id="Usability-Test-and-I" font-family="Inter-Regular_Medium, Inter" font-size="8" font-weight="400" fill="#FFFFFF">
            <tspan x="420" y="208">Usability Test and Iteration</tspan>
        </text>
    </g>
</svg>