<?xml version="1.0" encoding="UTF-8"?>
<svg width="827px" height="640px" viewBox="0 0 827 640" version="1.1" xmlns="http://www.w3.org/2000/svg" xmlns:xlink="http://www.w3.org/1999/xlink">
    <title>Artboard Copy 2</title>
    <defs>
        <path d="M5,0 L394,0 C396.761424,-5.07265313e-16 399,2.23857625 399,5 L399,75 C399,77.7614237 396.761424,80 394,80 L0,80 L0,80 L0,5 C-3.38176876e-16,2.23857625 2.23857625,5.07265313e-16 5,0 Z" id="path-1"></path>
        <filter x="-4.0%" y="-17.5%" width="108.0%" height="140.0%" filterUnits="objectBoundingBox" id="filter-2">
            <feOffset dx="0" dy="2" in="SourceAlpha" result="shadowOffsetOuter1"></feOffset>
            <feGaussianBlur stdDeviation="5" in="shadowOffsetOuter1" result="shadowBlurOuter1"></feGaussianBlur>
            <feColorMatrix values="0 0 0 0 0   0 0 0 0 0   0 0 0 0 0  0 0 0 0.05 0" type="matrix" in="shadowBlurOuter1"></feColorMatrix>
        </filter>
        <path d="M5,165 L394,165 C396.761424,165 399,167.238576 399,170 L399,240 C399,242.761424 396.761424,245 394,245 L0,245 L0,245 L0,170 C-3.38176876e-16,167.238576 2.23857625,165 5,165 Z" id="path-3"></path>
        <filter x="-4.0%" y="-17.5%" width="108.0%" height="140.0%" filterUnits="objectBoundingBox" id="filter-4">
            <feOffset dx="0" dy="2" in="SourceAlpha" result="shadowOffsetOuter1"></feOffset>
            <feGaussianBlur stdDeviation="5" in="shadowOffsetOuter1" result="shadowBlurOuter1"></feGaussianBlur>
            <feColorMatrix values="0 0 0 0 0   0 0 0 0 0   0 0 0 0 0  0 0 0 0.05 0" type="matrix" in="shadowBlurOuter1"></feColorMatrix>
        </filter>
        <rect id="path-5" x="0" y="341" width="399" height="80" rx="5"></rect>
        <filter x="-4.0%" y="-17.5%" width="108.0%" height="140.0%" filterUnits="objectBoundingBox" id="filter-6">
            <feOffset dx="0" dy="2" in="SourceAlpha" result="shadowOffsetOuter1"></feOffset>
            <feGaussianBlur stdDeviation="5" in="shadowOffsetOuter1" result="shadowBlurOuter1"></feGaussianBlur>
            <feColorMatrix values="0 0 0 0 0   0 0 0 0 0   0 0 0 0 0  0 0 0 0.05 0" type="matrix" in="shadowBlurOuter1"></feColorMatrix>
        </filter>
        <rect id="path-7" x="0" y="514" width="399" height="80" rx="5"></rect>
        <filter x="-4.0%" y="-17.5%" width="108.0%" height="140.0%" filterUnits="objectBoundingBox" id="filter-8">
            <feOffset dx="0" dy="2" in="SourceAlpha" result="shadowOffsetOuter1"></feOffset>
            <feGaussianBlur stdDeviation="5" in="shadowOffsetOuter1" result="shadowBlurOuter1"></feGaussianBlur>
            <feColorMatrix values="0 0 0 0 0   0 0 0 0 0   0 0 0 0 0  0 0 0 0.05 0" type="matrix" in="shadowBlurOuter1"></feColorMatrix>
        </filter>
        <rect id="path-9" x="496" y="0" width="330" height="222" rx="5"></rect>
        <filter x="-7.1%" y="-9.7%" width="114.2%" height="121.2%" filterUnits="objectBoundingBox" id="filter-10">
            <feOffset dx="0" dy="2" in="SourceAlpha" result="shadowOffsetOuter1"></feOffset>
            <feGaussianBlur stdDeviation="7.5" in="shadowOffsetOuter1" result="shadowBlurOuter1"></feGaussianBlur>
            <feColorMatrix values="0 0 0 0 0   0 0 0 0 0   0 0 0 0 0  0 0 0 0.05 0" type="matrix" in="shadowBlurOuter1"></feColorMatrix>
        </filter>
        <rect id="path-11" x="496" y="286" width="330" height="285" rx="5"></rect>
        <filter x="-7.1%" y="-7.5%" width="114.2%" height="116.5%" filterUnits="objectBoundingBox" id="filter-12">
            <feOffset dx="0" dy="2" in="SourceAlpha" result="shadowOffsetOuter1"></feOffset>
            <feGaussianBlur stdDeviation="7.5" in="shadowOffsetOuter1" result="shadowBlurOuter1"></feGaussianBlur>
            <feColorMatrix values="0 0 0 0 0   0 0 0 0 0   0 0 0 0 0  0 0 0 0.05 0" type="matrix" in="shadowBlurOuter1"></feColorMatrix>
        </filter>
    </defs>
    <g id="Artboard-Copy-2" stroke="none" stroke-width="1" fill="none" fill-rule="evenodd">
        <g id="Group-11" transform="translate(1.000000, 15.000000)">
            <path d="M0,76 L207,76 L193.358174,100.461205 C192.828366,101.411206 191.825832,102 190.738083,102 L3,102 C1.34314575,102 2.02906125e-16,100.656854 0,99 L0,76 L0,76 Z" id="Rectangle" fill="#F2F3F5"></path>
            <path d="M0,241 L232,241 L216.630057,265.590082 C216.081831,266.467177 215.120449,267 214.086115,267 L3,267 C1.34314575,267 1.09108455e-15,265.656854 0,264 L0,241 L0,241 Z" id="Rectangle-Copy-26" fill="#F2F3F5"></path>
            <path d="M0,416 L207,416 L193.358174,440.461205 C192.828366,441.411206 191.825832,442 190.738083,442 L3,442 C1.34314575,442 2.02906125e-16,440.656854 0,439 L0,416 L0,416 Z" id="Rectangle-Copy-27" fill="#F2F3F5"></path>
            <path d="M0,589 L207,589 L193.358174,613.461205 C192.828366,614.411206 191.825832,615 190.738083,615 L3,615 C1.34314575,615 2.02906125e-16,613.656854 0,612 L0,589 L0,589 Z" id="Rectangle-Copy-28" fill="#F2F3F5"></path>
            <g id="Rectangle">
                <use fill="black" fill-opacity="1" filter="url(#filter-2)" xlink:href="#path-1"></use>
                <use fill="#FFFFFF" fill-rule="evenodd" xlink:href="#path-1"></use>
            </g>
            <g id="Rectangle-Copy-19">
                <use fill="black" fill-opacity="1" filter="url(#filter-4)" xlink:href="#path-3"></use>
                <use fill="#FFFFFF" fill-rule="evenodd" xlink:href="#path-3"></use>
            </g>
            <g id="Rectangle-Copy-20">
                <use fill="black" fill-opacity="1" filter="url(#filter-6)" xlink:href="#path-5"></use>
                <use fill="#FFFFFF" fill-rule="evenodd" xlink:href="#path-5"></use>
            </g>
            <g id="Rectangle-Copy-21">
                <use fill="black" fill-opacity="1" filter="url(#filter-8)" xlink:href="#path-7"></use>
                <use fill="#FFFFFF" fill-rule="evenodd" xlink:href="#path-7"></use>
            </g>
            <path d="M391,0 L394,0 C396.761424,-5.07265313e-16 399,2.23857625 399,5 L399,75 C399,77.7614237 396.761424,80 394,80 L391,80 L391,80 L391,0 Z" id="Rectangle" fill="#F67A88"></path>
            <path d="M390,165 L394,165 C396.761424,165 399,167.238576 399,170 L399,240 C399,242.761424 396.761424,245 394,245 L390,245 L390,245 L390,165 Z" id="Rectangle-Copy-24" fill="#FFC380"></path>
            <path d="M390,341 L394,341 C396.761424,341 399,343.238576 399,346 L399,416 C399,418.761424 396.761424,421 394,421 L390,421 L390,421 L390,341 Z" id="Rectangle-Copy-25" fill="#80BBB2"></path>
            <path d="M390,514 L394,514 C396.761424,514 399,516.238576 399,519 L399,589 C399,591.761424 396.761424,594 394,594 L390,594 L390,594 L390,514 Z" id="Rectangle-Copy-29" fill="#0072FF"></path>
            <text id="01/" font-family="Inter-Regular_Medium, Inter" font-size="14" font-weight="400" fill="#F67A88">
                <tspan x="8" y="27">01/</tspan>
            </text>
            <text id="02/" font-family="Inter-Regular_Medium, Inter" font-size="14" font-weight="400" fill="#F7D08A">
                <tspan x="7.89417238" y="191.420806">02/</tspan>
            </text>
            <text id="03/" font-family="Inter-Regular_Medium, Inter" font-size="14" font-weight="400" fill="#5CCBB0">
                <tspan x="8" y="371">03/</tspan>
            </text>
            <text id="04/" font-family="Inter-Regular_Medium, Inter" font-size="14" font-weight="400" fill="#4A89FF">
                <tspan x="8" y="542">04/</tspan>
            </text>
            <text id="Goal-setting-is-impo" font-family="Inter-Regular, Inter" font-size="12" font-weight="normal" fill="#3C4454">
                <tspan x="8" y="58">Goal-setting is important for MOOC study.</tspan>
            </text>
            <text id="Users-can-be-divided" font-family="Inter-Regular, Inter" font-size="12" font-weight="normal" fill="#454D60">
                <tspan x="8" y="219">Users can be divided into self-motivated and social intervened.</tspan>
            </text>
            <text id="Goals-can-be-convert" font-family="Inter-Regular, Inter" font-size="12" font-weight="normal" fill="#454D60">
                <tspan x="10" y="402">Goals can be converted into social objects to increase motivation.</tspan>
            </text>
            <text id="The-goal-setting-pro" font-family="Inter-Regular, Inter" font-size="12" font-weight="normal" fill="#5B6279">
                <tspan x="10" y="573">The goal-setting process should be simple and light-weight.</tspan>
            </text>
            <text id="Background-Research" font-family="Inter-Regular, Inter" font-size="10" font-weight="normal" fill="#A8ADB5">
                <tspan x="52.4375" y="95">Background Research</tspan>
            </text>
            <text id="Persona-and-User-Jou" font-family="Inter-Regular, Inter" font-size="10" font-weight="normal" fill="#A8ADB5">
                <tspan x="42.3558239" y="260">Persona and User Journey Map</tspan>
            </text>
            <text id="Background-Research" font-family="Inter-Regular, Inter" font-size="10" font-weight="normal" fill="#B2B6BE">
                <tspan x="52.4375" y="436">Background Research</tspan>
            </text>
            <text id="Lightning-Design-Jam" font-family="Inter-Regular, Inter" font-size="10" font-weight="normal" fill="#BBBEC6">
                <tspan x="53.1264205" y="609">Lightning Design Jam</tspan>
            </text>
            <g id="Rectangle">
                <use fill="black" fill-opacity="1" filter="url(#filter-10)" xlink:href="#path-9"></use>
                <use fill="#FFFFFF" fill-rule="evenodd" xlink:href="#path-9"></use>
            </g>
            <g id="Rectangle-Copy-22">
                <use fill="black" fill-opacity="1" filter="url(#filter-12)" xlink:href="#path-11"></use>
                <use fill="#FFFFFF" fill-rule="evenodd" xlink:href="#path-11"></use>
            </g>
            <text id="Create-a-private-goa" font-family="Inter-Regular_Medium, Inter" font-size="14" font-weight="400" fill="#0072FF">
                <tspan x="522" y="50">Create a private goal</tspan>
            </text>
            <text id="Create-or-join-a-gro" font-family="Inter-Regular_Medium, Inter" font-size="14" font-weight="400" fill="#0072FF">
                <tspan x="522" y="324">Create or join a group goal</tspan>
            </text>
            <text id="For-learners-who-are" font-family="Inter-Regular, Inter" font-size="12" font-weight="normal" line-spacing="20" fill="#3C4454">
                <tspan x="522" y="82">For learners who are more self-motivated,  the </tspan>
                <tspan x="522" y="102">tool allows them to set up a private goal by </tspan>
                <tspan x="522" y="122">following a scaffolded experience. We would </tspan>
                <tspan x="522" y="142">send email reminders at each launch points to </tspan>
                <tspan x="522" y="162">remind learners of reflecting on their own </tspan>
                <tspan x="522" y="182">performance.</tspan>
            </text>
            <text id="For-learners-who-are" font-family="Inter-Regular, Inter" font-size="12" font-weight="normal" line-spacing="20" fill="#454D60">
                <tspan x="522" y="356">For learners who are more socially intervened, </tspan>
                <tspan x="522" y="376">the tool allows them to create or join a group </tspan>
                <tspan x="522" y="396">goal to achieve the goal with other learners </tspan>
                <tspan x="522" y="416">within the course. In the group goal, learners </tspan>
                <tspan x="522" y="436">could share their thoughts through a discussion </tspan>
                <tspan x="522" y="456">forum and check the performance of other </tspan>
                <tspan x="522" y="476">learners. We would send out email reminders at </tspan>
                <tspan x="522" y="496">each launch points to reflect on their </tspan>
                <tspan x="522" y="516">performance and check the discussion forum if </tspan>
                <tspan x="522" y="536">they want to.</tspan>
            </text>
            <line x1="399" y1="34.5" x2="496" y2="34.5" id="Path-6" stroke="#F67A88" stroke-width="2" stroke-dasharray="5,3"></line>
            <path d="M399,54 L447.5,54 L447.5,369 L496,369" id="Path-7" stroke="#F67A88" stroke-width="2" stroke-dasharray="5,3"></path>
            <path d="M399,207 L460.86175,206.5 L460.86175,114 L496,114" id="Path-8" stroke="#F8BD7F" stroke-width="2" stroke-dasharray="5,3"></path>
            <path d="M399,224 L432.368,224 L432.368,339 L496,339" id="Path-9" stroke="#F8BD7F" stroke-width="2" stroke-dasharray="5,3"></path>
            <line x1="399" y1="387" x2="496" y2="387.25" id="Path-10" stroke="#0CBD9E" stroke-width="2" stroke-dasharray="5,3"></line>
            <path d="M399,551 L476.476903,551 L476.476903,143 L496,143" id="Path-11" stroke="#0072FF" stroke-width="2" stroke-dasharray="5,3"></path>
            <line x1="399" y1="537.5" x2="496" y2="537.5" id="Path-12" stroke="#0072FF" stroke-width="2" stroke-dasharray="5,3"></line>
        </g>
    </g>
</svg>