<?xml version="1.0" encoding="UTF-8"?>
<svg width="50px" height="50px" viewBox="0 0 50 50" version="1.1" xmlns="http://www.w3.org/2000/svg" xmlns:xlink="http://www.w3.org/1999/xlink">
    <title>Group 28</title>
    <g id="Portfolio_2" stroke="none" stroke-width="1" fill="none" fill-rule="evenodd">
        <g id="Goal-Setter" transform="translate(-420.000000, -5656.000000)">
            <g id="Group-28" transform="translate(420.000000, 5656.000000)">
                <circle id="Oval-Copy-7" fill="#F6F9FC" cx="25" cy="25" r="25"></circle>
                <g id="woman" transform="translate(13.000000, 8.000000)" fill-rule="nonzero">
                    <path d="M19.4350962,18.8461538 C20.0240385,20.0240385 21.7908654,20.0240385 22.3798077,19.4350962 C22.3798077,20.6129808 21.7908654,21.7908654 21.2019231,21.7908654 C22.3798077,22.96875 22.3798077,24.7355769 21.2019231,25.9134615 L12.2228571,23.4472656 L13.9505709,18.0363582 L19.4350962,18.8461538 Z" id="Path" fill="#5D6168"></path>
                    <polygon id="Path" fill="#B1CDB4" points="14.1346154 21.7908654 19.4350962 18.8461538 18.2572115 16.4903846 12.6623332 19.2878606"></polygon>
                    <path d="M14.1346154,20.6129808 C14.1346154,18.2572115 21.2019231,18.2572115 21.2019231,12.3677885 C21.2019231,10.6009615 21.7908654,5.30048077 19.4350962,2.94471154 C17.0793269,0.588942308 14.1346154,0 11.1899038,0 C8.24519231,0 6.47836538,1.17788462 5.88942308,2.94471154 C2.94471154,4.12259615 2.94471154,8.24519231 5.30048077,11.1899038 L14.1346154,20.6129808 Z" id="Path" fill="#5D6168"></path>
                    <path d="M23.5576923,34.7475962 L0,34.7475962 C0,23.5672626 5.89531839,22.7044555 8.36004047,21.6664557 C9.01154686,21.391857 9.42307692,21.1054794 9.42307692,20.6129808 C9.42423589,20.4127038 9.39188858,20.2136434 9.3273738,20.0240385 C8.70751202,18.2233474 5.30048077,17.8824904 5.30048077,14.1346154 L5.30048077,8.24519231 C5.30048077,5.88942308 6.75148738,2.94471154 12.3677885,2.94471154 C20.6129808,2.94471154 18.8461538,8.83413462 18.8461538,11.1899038 L19.0692157,10.9668419 C19.4265269,10.609564 19.9638692,10.5026949 20.4306958,10.6960645 C20.8975223,10.8894341 21.2019065,11.3449646 21.2019231,11.8502554 L21.2019231,12.1108624 C21.2020322,12.6218568 20.8909121,13.0813965 20.4164272,13.2710787 L18.4618749,14.0528996 C17.4349104,17.4378456 14.6735035,18.0864124 14.2038154,20.0240385 C14.157094,20.2168456 14.1338587,20.414595 14.1346154,20.6129808 C14.1346154,21.1054794 14.5461454,21.391857 15.1976518,21.6664557 C17.6623739,22.7044555 23.5576923,23.5672626 23.5576923,34.7475962 L23.5576923,34.7475962 Z" id="Path" fill="#FFD9B3"></path>
                    <path d="M6.39114597,10.0984347 L6.80811713,9.68080102 C6.96579977,9.52286375 7.19920898,9.46762382 7.41095627,9.53812975 L8.76344093,9.98847773 C8.80992769,10.0039564 8.85215156,10.0300896 8.88674115,10.0647907 C8.97641974,10.1547553 9.00312563,10.2898581 8.95442096,10.4071771 C8.90571629,10.524496 8.79117823,10.6009615 8.66415114,10.6009615 L6.59954026,10.6009615 C6.48047984,10.6009615 6.37313298,10.5292697 6.32752554,10.4192909 C6.28191809,10.309312 6.30702502,10.1826906 6.39114597,10.0984347 L6.39114597,10.0984347 Z" id="Path" fill="#5D6168"></path>
                    <path d="M14.8107771,10.0984347 L14.3938059,9.68080102 C14.2361233,9.52286375 14.0027141,9.46762382 13.7909668,9.53812975 L12.4384822,9.98847773 C12.3919954,10.0039564 12.3497715,10.0300896 12.3151819,10.0647907 C12.2255029,10.1547558 12.1987972,10.2898595 12.2475028,10.4071788 C12.2962084,10.524498 12.4107479,10.6009615 12.5377756,10.6009615 L14.6023865,10.6009615 C14.7214463,10.6009615 14.8287917,10.5292677 14.8743982,10.4192892 C14.9200047,10.3093107 14.8948976,10.1826901 14.8107771,10.0984347 L14.8107771,10.0984347 Z" id="Path" fill="#5D6168"></path>
                    <path d="M7.65625,11.1899038 C7.40208757,11.1900011 7.1766643,11.353148 7.09714277,11.5945499 C7.05519389,11.5816366 7.01410706,11.5678598 6.97510583,11.5520349 C6.88483502,11.5185657 6.80333205,11.4650562 6.73673143,11.3955338 C6.68872829,11.3381284 6.66434991,11.2646175 6.66853854,11.1899038 L6.66855694,11.1882592 L6.66853854,11.1866396 C6.66808888,11.1186071 6.63133173,11.0559967 6.57214493,11.0224474 C6.51295813,10.9888982 6.44035818,10.9895208 6.38175551,11.0240803 C6.32315283,11.0586398 6.28747496,11.1218714 6.28818162,11.1899016 C6.288955,11.2750236 6.30631768,11.359179 6.33930727,11.437652 C6.37347629,11.5167574 6.42423983,11.5875997 6.48816244,11.6453845 C6.60156619,11.7435047 6.73839444,11.8106652 6.88538562,11.8403568 C6.94793738,11.8551973 7.01141833,11.8658046 7.07539681,11.8721066 C7.12514253,12.1810992 7.40798209,12.3971399 7.71917722,12.3638441 C8.03037235,12.3305483 8.26110291,12.0595589 8.24435063,11.7470363 C8.22759834,11.4345137 7.96922124,11.1897422 7.65625,11.1899038 L7.65625,11.1899038 Z" id="Path" fill="#084C4F"></path>
                    <path d="M13.5456731,11.1899038 C13.2915106,11.1900011 13.0660874,11.353148 12.9865659,11.5945499 C12.944617,11.5816366 12.9035301,11.5678598 12.8645289,11.5520349 C12.7742581,11.5185657 12.6927551,11.4650562 12.6261545,11.3955338 C12.5781514,11.3381284 12.553773,11.2646175 12.5579616,11.1899038 L12.55798,11.1882592 L12.5579616,11.1866396 C12.557512,11.1186071 12.5207548,11.0559967 12.461568,11.0224474 C12.4023812,10.9888982 12.3297813,10.9895208 12.2711786,11.0240803 C12.2125759,11.0586398 12.176898,11.1218714 12.1776047,11.1899016 C12.1783781,11.2750236 12.1957408,11.359179 12.2287303,11.437652 C12.2628994,11.5167574 12.3136629,11.5875997 12.3775855,11.6453845 C12.4909893,11.7435047 12.6278175,11.8106652 12.7748087,11.8403568 C12.8373605,11.8551973 12.9008414,11.8658046 12.9648199,11.8721066 C13.0145656,12.1810992 13.2974052,12.3971399 13.6086003,12.3638441 C13.9197954,12.3305483 14.150526,12.0595589 14.1337737,11.7470363 C14.1170214,11.4345137 13.8586443,11.1897422 13.5456731,11.1899038 L13.5456731,11.1899038 Z" id="Path" fill="#084C4F"></path>
                    <path d="M10.0120192,15.9014423 L12.9567308,15.3125 L13.5456731,15.9014423 C13.5456731,15.9014423 11.1899038,18.2572115 10.0120192,15.9014423 Z" id="Path" fill="#FF7C8C"></path>
                    <path d="M23.5576923,34.7475962 L0,34.7475962 C0,23.5672626 5.89531839,22.7044555 8.36004047,21.6664557 C8.69793434,21.5236328 8.97180871,21.3778696 9.15657169,21.2019231 L8.83413462,21.2019231 C7.65625,21.2019231 7.65625,20.0240385 8.83413462,20.0240385 L14.7235577,20.0240385 C15.9014423,20.0240385 15.9014423,21.2019231 14.7235577,21.2019231 L14.4011206,21.2019231 C14.5858836,21.3778696 14.8597594,21.5236328 15.1976518,21.6664557 C17.6623739,22.7044555 23.5576923,23.5672626 23.5576923,34.7475962 Z" id="Path" fill="#F5AC34"></path>
                    <path d="M10.0834285,34.7475962 L0,34.7475962 C0,27.0169922 2.81882512,24.21878 5.3726262,22.8855619 C6.51296575,22.2907302 7.5995643,21.9866821 8.36004195,21.6664557 C9.87141588,27.8599114 10.0613373,31.6917218 10.0834285,34.7475962 L10.0834285,34.7475962 Z" id="Path" fill="#69B3A8"></path>
                    <path d="M23.5576923,34.7475962 L13.4742638,34.7475962 C13.4963492,31.6917218 13.6862742,27.8599114 15.1976496,21.6664557 C15.958128,21.9866821 17.0447266,22.2907302 18.1850661,22.8855619 C20.7388672,24.21878 23.5576923,27.0169922 23.5576923,34.7475962 Z" id="Path" fill="#69B3A8"></path>
                    <path d="M8.36004047,21.6664557 C9.87141588,27.8599114 10.0613373,31.6917218 10.0834285,34.7475962 L8.24519231,34.7475962 C8.24519231,32.9807692 6.47836538,30.0360577 6.47836538,30.0360577 L7.65625,26.5024038 L5.88942308,26.5024038 L5.3726262,22.8855619 C6.51296575,22.2907302 7.5995643,21.9866821 8.36004047,21.6664557 Z" id="Path" fill="#3E9588"></path>
                    <path d="M17.6682692,26.5024038 L15.9014423,26.5024038 L17.0793269,30.0360577 C17.0793269,30.0360577 15.3125,32.9807692 15.3125,34.7475962 L13.4742638,34.7475962 C13.4963492,31.6917218 13.6862742,27.8599114 15.1976496,21.6664557 C15.958128,21.9866821 17.0447266,22.2907302 18.1850661,22.8855619 L17.6682692,26.5024038 Z" id="Path" fill="#3E9588"></path>
                    <path d="M5.30048077,11.1899038 C5.30048077,9.42307692 5.30048077,5.88942308 7.65625,5.88942308 C7.65625,4.12259615 10.3801082,3.2023738 12.9567308,4.12259615 C15.5333534,5.04281851 17.0793269,7.06730769 17.0793269,11.1899038 C17.0793269,12.3677885 18.8461538,12.3677885 18.8461538,11.1899038 L20.0240385,6.06119767 L16.1960173,1.44781675 L9.42307692,1.44781675 L4.71164226,5.86847661 L5.30048077,11.1899038 Z" id="Path" fill="#5D6168"></path>
                    <path d="M11.1899038,21.4963942 L9.45104285,21.4963942 C9.28841092,21.4963942 9.15657169,21.364555 9.15657169,21.2019231 C9.15657169,21.0392911 9.28841092,20.9074519 9.45104285,20.9074519 L11.1899038,20.9074519 C11.3525358,20.9074519 11.484375,21.0392911 11.484375,21.2019231 C11.484375,21.364555 11.3525358,21.4963942 11.1899038,21.4963942 Z" id="Path" fill="#FFC96F"></path>
                    <path d="M14.1066495,21.4963942 L12.9567308,21.4963942 C12.7940988,21.4963942 12.6622596,21.364555 12.6622596,21.2019231 C12.6622596,21.0392911 12.7940988,20.9074519 12.9567308,20.9074519 L14.1066495,20.9074519 C14.2692814,20.9074519 14.4011206,21.0392911 14.4011206,21.2019231 C14.4011206,21.364555 14.2692814,21.4963942 14.1066495,21.4963942 Z" id="Path" fill="#FFC96F"></path>
                    <circle id="Oval" fill="#F3B73F" cx="18.8461538" cy="14.7235577" r="1.17788462"></circle>
                    <path d="M10.6009615,14.4290865 L10.3064904,14.4290865 C9.65596267,14.4290865 9.12860577,13.9017296 9.12860577,13.2512019 C9.12860577,12.6006742 9.65596267,12.0733173 10.3064904,12.0733173 L10.6009615,12.0733173 C10.7635935,12.0733173 10.8954327,12.2051565 10.8954327,12.3677885 C10.8954327,12.5304204 10.7635935,12.6622596 10.6009615,12.6622596 L10.3064904,12.6622596 C9.98122653,12.6622596 9.71754808,12.9259381 9.71754808,13.2512019 C9.71754808,13.5764658 9.98122653,13.8401442 10.3064904,13.8401442 L10.6009615,13.8401442 C10.7635935,13.8401442 10.8954327,13.9719835 10.8954327,14.1346154 C10.8954327,14.2972473 10.7635935,14.4290865 10.6009615,14.4290865 Z" id="Path" fill="#FFC68D"></path>
                    <g id="Group" transform="translate(2.650240, 26.723257)" fill="#3E9588">
                        <path d="M1.4951817,6.10144231 C1.91848398,6.58952825 2.35576923,7.09454627 2.35576923,8.02433894 L1.76682692,8.02433894 C1.76682692,7.31392728 1.45100661,6.94878305 1.05052584,6.48646334 C0.558028726,5.91813401 0,5.27397837 0,3.90174279 C0,2.03552449 0.841446169,1.18377404 1.81614495,0.19729052 L1.85148149,0.161217803 C1.92536133,0.0861229824 2.03371167,0.0561834577 2.13566653,0.0826913838 C2.23762138,0.10919931 2.31766806,0.18812144 2.34561572,0.289691075 C2.37356338,0.391260709 2.34515971,0.500023778 2.27111761,0.574958609 L2.23502722,0.611031325 C1.27946833,1.57836097 0.588942308,2.27699304 0.588942308,3.90174279 C0.588942308,5.05459073 1.02917668,5.56256451 1.4951817,6.10144231 L1.4951817,6.10144231 Z" id="Path"></path>
                        <path d="M18.2572115,3.90174279 C18.2572115,5.27397837 17.6991828,5.91813401 17.2066857,6.48646334 C16.8062049,6.94878305 16.4903846,7.31392728 16.4903846,8.02433894 L15.9014423,8.02433894 C15.9014423,7.09454627 16.3387276,6.58952825 16.7620298,6.10144231 C17.2280349,5.56256451 17.6682692,5.05459073 17.6682692,3.90174279 C17.6682692,2.27699304 16.9777432,1.57836097 16.0221858,0.611031325 L15.9860954,0.574958609 C15.9120533,0.500023778 15.8836496,0.391260709 15.9115973,0.289691075 C15.939545,0.18812144 16.0195916,0.10919931 16.1215465,0.0826913838 C16.2235013,0.0561834577 16.3318517,0.0861229824 16.4057315,0.161217803 L16.4410681,0.19729052 C17.4157654,1.18377404 18.2572115,2.03552449 18.2572115,3.90174279 Z" id="Path"></path>
                    </g>
                </g>
            </g>
        </g>
    </g>
</svg>