<?xml version="1.0" encoding="UTF-8"?>
<svg width="50px" height="50px" viewBox="0 0 50 50" version="1.1" xmlns="http://www.w3.org/2000/svg" xmlns:xlink="http://www.w3.org/1999/xlink">
    <title>Group 27</title>
    <g id="Portfolio_2" stroke="none" stroke-width="1" fill="none" fill-rule="evenodd">
        <g id="Goal-Setter" transform="translate(-123.000000, -5656.000000)">
            <g id="Group-27" transform="translate(123.000000, 5656.000000)">
                <circle id="Oval" fill="#F6F9FC" cx="25" cy="25" r="25"></circle>
                <g id="businessman" transform="translate(12.000000, 8.000000)" fill-rule="nonzero">
                    <path d="M20.7188161,3.55179704 C22.4947146,3.55179704 23.6786469,4.14376321 23.6786469,7.69556025 C23.6786469,11.2473573 23.0866808,15.9830867 20.1268499,16.5750529 C17.167019,17.167019 14.7991543,19.5348837 14.7991543,20.7188161 L14.7991543,3.55179704 L20.7188161,3.55179704 Z" id="Path" fill="#F6A829"></path>
                    <path d="M25.4545565,31.359334 C25.457316,32.1465455 25.1468463,32.9025312 24.5915978,33.4605712 C24.0363493,34.0186113 23.2819301,34.3328682 22.4947146,34.3340381 L21.3107822,34.3340381 L21.3107822,34.9260042 L3.55179704,34.9260042 L3.55179704,33.1501057 C3.55179704,33.1501057 5.14937241,23.380444 8.31121025,22.1040169 C8.8794926,21.87463 9.34567114,21.6607822 9.65348541,21.420296 C9.91543044,21.2153277 10.063422,20.9911205 10.063422,20.7188161 C10.063422,18.3509514 5.91965877,18.3509514 5.91965877,14.2071882 C5.91965877,8.28752643 4.73572643,2.95983087 13.0232529,2.95983087 C21.3107793,2.95983087 19.5348808,8.8794926 19.5348808,11.2473573 L19.7364689,11.0457677 C19.9646229,10.8121051 20.2724755,10.6730369 20.5986233,10.6563013 C20.9398119,10.6431181 21.2716566,10.769449 21.5177018,11.0061878 C21.763747,11.2429266 21.9027728,11.5696561 21.9027484,11.9110994 L21.9027484,12.1730444 C21.9027497,12.686631 21.5900666,13.148476 21.1132135,13.3392178 L19.1486258,14.1250529 C18.0187104,17.85 14.7991543,18.2784355 14.7991543,20.7188161 C14.7987871,21.003523 14.9144915,21.2760779 15.1195619,21.4735729 C15.4799117,21.8442918 16.1192448,22.1165962 16.9154319,22.4066596 C19.2186147,23.2468816 22.8282121,24.2388956 24.746161,28.2229803 C25.2093521,29.1884008 25.4513178,30.2450002 25.4545565,31.3157816 C25.4545565,31.3302729 25.4545565,31.3447904 25.4545565,31.359334 Z" id="Path" fill="#FFD9B3"></path>
                    <path d="M25.4545565,31.359334 C25.457316,32.1465455 25.1468463,32.9025312 24.5915978,33.4605712 C24.0363493,34.0186113 23.2819301,34.3328682 22.4947146,34.3340381 L21.3107822,34.3340381 L21.3107822,34.9260042 L3.55179704,34.9260042 L3.55179704,33.1501057 C3.55179704,33.1501057 4.84524313,25.2384778 7.40919662,22.7241015 C7.66639138,22.4603692 7.97285702,22.249691 8.31121025,22.1040169 C8.8794926,21.87463 9.34567114,21.6607822 9.65348541,21.420296 L12.4312896,23.0866808 L15.1195619,21.4735729 C15.4799117,21.8442918 16.1192448,22.1165962 16.9154319,22.4066596 C17.1255799,22.4836152 17.3468236,22.5613108 17.5769586,22.6427061 C19.8799356,23.4588943 23.0485123,24.6193248 24.7834186,28.3011029 C25.2241831,29.244386 25.4532054,30.27269 25.4545565,31.3138696 C25.4545565,31.3289958 25.4545565,31.3441506 25.4545565,31.359334 L25.4545565,31.359334 Z" id="Path" fill="#E7F2DA"></path>
                    <path d="M17.5769556,22.6427061 L13.615222,25.4545455 L12.4357338,23.0866808 L11.2569767,25.4545455 L7.40919662,22.7241015 C7.66639138,22.4603692 7.97285702,22.249691 8.31121025,22.1040169 C8.8794926,21.87463 9.34567114,21.6607822 9.65348541,21.420296 L12.4312896,23.0866808 L15.1195619,21.4735729 C15.4799117,21.8442918 16.1192448,22.1165962 16.9154319,22.4066596 C17.125577,22.4836152 17.3468236,22.5613108 17.5769556,22.6427061 Z" id="Path" fill="#B1CDB4"></path>
                    <path d="M25.4545565,31.359334 C25.457316,32.1465455 25.1468463,32.9025312 24.5915978,33.4605712 C24.0363493,34.0186113 23.2819301,34.3328682 22.4947146,34.3340381 L21.3107822,34.3340381 L21.3107822,34.9260042 L3.55179704,34.9260042 L3.55179704,33.1501057 C3.55179704,33.1501057 4.03276956,27.7232558 5.68879493,24.5125793 C5.80866245,24.2772168 5.94029464,24.0480335 6.08319239,23.8258985 C6.54123066,23.1199789 7.07473573,22.5872093 7.69556025,22.3459831 C7.91088129,22.2623679 8.11733615,22.1824524 8.31121025,22.1040169 L12.4312896,31.3742072 L16.9154334,22.4066596 C17.534778,22.6323467 18.2480973,22.8691332 18.9976744,23.1717759 C19.1782197,23.2450317 19.3602537,23.3212474 19.5437632,23.4033827 C21.4577112,24.2500105 23.5102533,25.5950405 24.7860529,28.3067635 C25.2252535,29.2485566 25.4533621,30.2749435 25.4545565,31.3141115 C25.4545565,31.3291563 25.4545565,31.3442305 25.4545565,31.359334 L25.4545565,31.359334 Z" id="Path" fill="#69B3A8"></path>
                    <path d="M19.5437632,23.4033827 L18.6313953,26.1404863 C18.5911848,26.2612 18.4781862,26.3425948 18.3509514,26.3424947 L17.1278013,26.3424947 L18.0053993,27.6581395 C18.0772885,27.7663913 18.0703888,27.9088231 17.9883728,28.0096195 L12.6606773,34.5212474 C12.6044125,34.5900917 12.520202,34.6300253 12.4312904,34.6300253 C12.3423788,34.6300253 12.2581683,34.5900917 12.2019035,34.5212474 L6.87420793,28.0096195 C6.792192,27.9088231 6.7852923,27.7663913 6.8571815,27.6581395 L7.73477801,26.3424947 L6.51162791,26.3424947 C6.38439309,26.3425948 6.27139451,26.2612 6.23118393,26.1404863 L5.68879493,24.5125793 C5.80866245,24.2772168 5.94029464,24.0480335 6.08319239,23.8258985 L6.72473573,25.7505285 L8.28752643,25.7505285 C8.39677431,25.750373 8.49721736,25.8104329 8.54878178,25.9067461 C8.6003462,26.0030593 8.59463942,26.11995 8.53393827,26.2107822 L7.47135307,27.8046512 L12.4312896,33.8663848 L17.3912262,27.8046512 L16.3286388,26.2107822 C16.2679374,26.1199497 16.2622308,26.0030585 16.3137958,25.9067451 C16.3653608,25.8104318 16.4658046,25.7503722 16.5750529,25.7505285 L18.1378436,25.7505285 L18.9976744,23.1717759 C19.1782189,23.2450317 19.3602537,23.3212474 19.5437632,23.4033827 L19.5437632,23.4033827 Z" id="Path" fill="#3E9588"></path>
                    <path d="M11.2473573,14.5031712 L10.9513742,14.5031712 C10.2975064,14.5031712 9.76744186,13.9731067 9.76744186,13.3192389 C9.76744186,12.6653711 10.2975064,12.1353066 10.9513742,12.1353066 L11.2473573,12.1353066 C11.4108242,12.1353066 11.5433404,12.2678227 11.5433404,12.4312896 C11.5433404,12.5947566 11.4108242,12.7272727 11.2473573,12.7272727 L10.9513742,12.7272727 C10.6244403,12.7272727 10.359408,12.992305 10.359408,13.3192389 C10.359408,13.6461728 10.6244403,13.9112051 10.9513742,13.9112051 L11.2473573,13.9112051 C11.4108242,13.9112051 11.5433404,14.0437212 11.5433404,14.2071882 C11.5433404,14.3706551 11.4108242,14.5031712 11.2473573,14.5031712 Z" id="Path" fill="#FFC68D"></path>
                    <path d="M11.8393235,29.0063425 L8.28752643,29.0063425 C8.28752643,29.0063425 7.69556025,29.5983087 7.69556025,31.9661734 C7.69556025,34.3340381 8.28752643,34.3340381 8.28752643,34.3340381 L11.8393235,34.3340381 L11.8393235,29.0063425 Z" id="Path" fill="#E7F2DA"></path>
                    <path d="M11.2473573,16.27907 C11.1276349,16.27907 11.0196963,16.2069666 10.973879,16.0963582 C10.9280618,15.9857497 10.9533901,15.8584325 11.0380521,15.7737815 C12.3577275,14.4541779 13.6914576,15.098317 13.7476049,15.1263925 C13.8421839,15.1736883 13.9043464,15.2678488 13.9106765,15.3734045 C13.9170066,15.4789603 13.8665426,15.5798749 13.7782937,15.6381348 C13.6900448,15.6963947 13.5774181,15.7031488 13.4828391,15.655853 C13.4436369,15.6369922 12.4660832,15.1829371 11.4566625,16.1923963 C11.4012003,16.247978 11.3258771,16.2791694 11.2473573,16.27907 Z" id="Path" fill="#FFC68D"></path>
                    <path d="M20.7188161,34.3340381 L11.8393235,34.3340381 C10.6553911,34.3340381 10.0634249,33.7420719 10.0634249,31.9661734 C10.0634249,30.1902748 10.6553911,29.0063425 11.8393235,29.0063425 L20.7188161,29.0063425 L20.7188161,34.3340381 Z" id="Path" fill="#69B3A8"></path>
                    <path d="M21.0147992,34.6300211 L11.8393235,34.6300211 C10.4064501,34.6300211 9.76744186,33.8084461 9.76744186,31.9661734 C9.76744186,29.9274959 10.5419771,28.7103594 11.8393235,28.7103594 L20.7188161,28.7103594 C20.882283,28.7103594 21.0147992,28.8428755 21.0147992,29.0063425 C21.0147992,29.1698094 20.882283,29.3023256 20.7188161,29.3023256 L11.8393235,29.3023256 C10.5036058,29.3023256 10.359408,31.1652268 10.359408,31.9661734 C10.359408,33.6914529 10.9256851,34.038055 11.8393235,34.038055 L21.0147992,34.038055 C21.1782661,34.038055 21.3107822,34.1705711 21.3107822,34.3340381 C21.3107822,34.497505 21.1782661,34.6300211 21.0147992,34.6300211 Z" id="Path" fill="#3E9588"></path>
                    <path d="M19.5348837,11.2473573 C17.7589852,11.2473573 17.7589852,7.10359408 17.7589852,5.91966173 C17.167019,7.10359408 15.3911205,7.10359408 13.615222,7.10359408 C11.8393235,7.10359408 8.8794926,6.51162791 8.8794926,4.73572939 C8.8794926,6.51162791 7.69556025,7.10359408 5.91966173,7.10359408 C4.14376321,7.10359408 2.95983087,2.95983087 5.91966173,1.18393235 C8.28752643,0 9.47145877,1.18393235 9.47145877,1.18393235 C10.6553911,0 13.0232558,0 16.5750529,0 C20.1268499,0 20.7188161,3.55179704 20.7188161,3.55179704 L20.7188161,9.55676924 L19.5348837,11.2473573 Z" id="Path" fill="#F5AC34"></path>
                    <g id="Group" transform="translate(6.215645, 1.257928)" fill="#FFC96F">
                        <path d="M0.295766279,1.99795989 C0.19322993,1.99782517 0.0980608154,1.94465404 0.0441946441,1.85740636 C-0.00967152727,1.77015869 -0.014567384,1.66125341 0.0312528541,1.56952431 C0.404664376,0.822733087 0.984888161,0.665961945 1.40591966,0.665961945 C1.68181311,0.667735309 1.95409325,0.728867653 2.20426448,0.845206342 C2.35025717,0.918205702 2.40959414,1.09561631 2.33689606,1.24175925 C2.26419797,1.3879022 2.08691013,1.44760496 1.94061755,1.37520846 C1.84490772,1.3286 1.00262717,0.950563742 0.560712579,1.83428562 C0.510559326,1.93465215 0.40796603,1.99803057 0.295766279,1.99795989 L0.295766279,1.99795989 Z" id="Path"></path>
                        <path d="M0.88794926,3.77378436 C0.7244857,3.77378436 0.591966173,3.64126483 0.591966173,3.47780127 C0.591966173,2.71710476 1.3111851,1.99788584 2.07188161,1.99788584 C2.23534855,1.99788584 2.36786469,2.13040198 2.36786469,2.29386892 C2.36786469,2.45733587 2.23534855,2.58985201 2.07188161,2.58985201 C1.6403723,2.58985201 1.18393235,3.04629197 1.18393235,3.47780127 C1.18392417,3.64126483 1.05141282,3.77378436 0.88794926,3.77378436 L0.88794926,3.77378436 Z" id="Path"></path>
                        <path d="M3.84778013,1.40591989 C3.72805773,1.40591989 3.62011912,1.33381652 3.57430186,1.22320806 C3.5284846,1.11259961 3.55381296,0.985282437 3.63847495,0.900631395 C4.93686913,-0.397763531 6.82159323,0.210642283 6.901226,0.237162368 C7.05624172,0.288916122 7.13998295,0.4565064 7.08829673,0.611544641 C7.03661051,0.766582883 6.86905672,0.850397117 6.71399598,0.798778436 C6.69849609,0.793648309 5.09382156,0.282469979 4.05708531,1.31924175 C4.00162389,1.37482506 3.92630059,1.40601811 3.84778013,1.40591989 L3.84778013,1.40591989 Z" id="Path"></path>
                        <path d="M12.7272727,3.18181818 C12.5638092,3.18181818 12.4312978,3.04929865 12.4312896,2.8858351 C12.4312896,1.88793996 11.9681656,0.813953488 10.9513742,0.813953488 C10.7879073,0.813953488 10.6553911,0.681437347 10.6553911,0.517970402 C10.6553911,0.354503457 10.7879073,0.221987315 10.9513742,0.221987315 C11.6036425,0.221987315 12.1493613,0.52342611 12.5295649,1.09375 C12.8479132,1.57128985 13.0232558,2.2077334 13.0232558,2.8858351 C13.0232558,3.04929865 12.8907363,3.18181818 12.7272727,3.18181818 L12.7272727,3.18181818 Z" id="Path"></path>
                        <path d="M11.5433404,3.77378436 C11.3798768,3.77378436 11.2473655,3.64126483 11.2473573,3.47780127 C11.2473573,2.45432579 10.7909173,1.99788584 9.76744186,1.99788584 C9.60397492,1.99788584 9.47145877,1.86536969 9.47145877,1.70190275 C9.47145877,1.5384358 9.60397492,1.40591966 9.76744186,1.40591966 C11.1228868,1.40591966 11.8393235,2.12235634 11.8393235,3.47780127 C11.8393235,3.64126483 11.7068039,3.77378436 11.5433404,3.77378436 Z" id="Path"></path>
                        <path d="M13.9112051,5.54968288 C13.7477415,5.54968288 13.6152302,5.41716335 13.615222,5.25369979 C13.6071907,5.08856494 13.5648105,4.92691964 13.4907877,4.77908647 C13.3453979,4.5009519 13.0956237,4.36575053 12.7272727,4.36575053 C12.5638058,4.36575053 12.4312896,4.23323439 12.4312896,4.06976744 C12.4312896,3.9063005 12.5638058,3.77378436 12.7272727,3.77378436 C13.8978725,3.77378436 14.2071882,4.74183552 14.2071882,5.25369979 C14.2071882,5.41716335 14.0746686,5.54968288 13.9112051,5.54968288 L13.9112051,5.54968288 Z" id="Path"></path>
                        <path d="M15.0951374,4.9577167 C14.9316739,4.9577167 14.7991625,4.82519717 14.7991543,4.66173362 C14.7991543,4.23022431 14.3427144,3.77378436 13.9112051,3.77378436 C13.7477381,3.77378436 13.615222,3.64126821 13.615222,3.47780127 C13.615222,3.31433432 13.7477381,3.18181818 13.9112051,3.18181818 C14.6719016,3.18181818 15.3911205,3.9010371 15.3911205,4.66173362 C15.3911205,4.82519717 15.258601,4.9577167 15.0951374,4.9577167 L15.0951374,4.9577167 Z" id="Path"></path>
                    </g>
                    <path d="M13.615222,18.0712474 C13.6149087,18.2472237 13.5322078,18.4128995 13.3917548,18.5189218 L13.1845666,18.6743129 L13.3096246,18.9236786 C13.4922647,19.2886596 13.4207162,19.7295773 13.1320348,20.0180761 C13.0984164,20.0518835 13.0620319,20.0828227 13.023261,20.1105708 L13.023261,20.1268499 C13.023015,20.8159343 12.6145351,21.439401 11.982876,21.7147992 C11.4848837,21.9323467 10.9365788,22.2135307 10.6553911,22.4947146 C10.0634249,23.0866808 9.47145877,24.8625793 9.47145877,24.8625793 L2.36786469,28.4143763 L5.91966173,21.9027484 L6.51162791,21.9027484 C6.51162791,21.9027484 7.10359408,21.3107822 7.10359408,20.1268499 C7.10359408,18.9429175 6.51162791,18.9429175 7.10359408,17.7589852 C7.69556025,16.5750529 8.8794926,16.5750529 8.8794926,17.7589852 L8.8794926,18.9429175 C8.8794926,18.9429175 10.0634249,18.9429175 10.6553911,18.3509514 L11.846723,17.1596195 C11.9821667,17.0241442 12.1744706,16.9620246 12.3635734,16.9926622 C12.5526762,17.0232998 12.7155289,17.1429602 12.8012685,17.3142706 C12.8375216,17.3867064 12.8586709,17.465756 12.8634316,17.5466173 C13.0348955,17.4835227 13.2263746,17.5082326 13.3762034,17.6127893 C13.5260323,17.717346 13.615222,17.8885433 13.615222,18.0712474 L13.615222,18.0712474 Z" id="Path" fill="#FFD9B3"></path>
                    <path d="M5.91966173,21.9027484 C5.91966173,23.0866808 6.51162791,24.8625793 7.69556025,25.4545455 C8.8794926,26.0465116 10.0634249,25.4545455 10.0634249,25.4545455 C10.0634249,25.4545455 8.28752643,31.9661734 7.10359408,33.1501057 L2.36786469,28.4143763 L5.91966173,21.9027484 Z" id="Path" fill="#69B3A8"></path>
                    <path d="M10.0634249,25.4545455 C10.0634249,25.4545455 8.28752643,31.9661734 7.10359408,33.1501057 C5.91966173,34.3340381 0,34.9260042 0,30.782241 C0,26.6384778 4.14376321,24.8625793 4.14376321,24.8625793 L4.62473573,24.6359672 L10.0634249,25.4545455 Z" id="Path" fill="#69B3A8"></path>
                    <circle id="Oval" fill="#084C4F" cx="14.2071882" cy="11.8393235" r="1"></circle>
                    <circle id="Oval" fill="#084C4F" cx="8.28752643" cy="11.8393235" r="1"></circle>
                    <path d="M7.01592685,10.1502841 L7.4350389,9.73050613 C7.59353115,9.57175794 7.82813877,9.51623439 8.04097326,9.58710233 L9.40040211,10.0397626 C9.44712756,10.0553207 9.48956822,10.0815881 9.52433541,10.1164673 C9.61447445,10.2068939 9.64131745,10.3426904 9.59236271,10.4606117 C9.54340797,10.578533 9.42828183,10.6553911 9.30060254,10.6553911 L7.22539112,10.6553911 C7.10571939,10.6553911 6.99782137,10.5833312 6.95197976,10.4727877 C6.90613815,10.3622442 6.93137398,10.2349726 7.01592685,10.1502841 L7.01592685,10.1502841 Z" id="Path" fill="#F5AC34"></path>
                    <path d="M15.4787877,10.1502841 L15.0596757,9.73050613 C14.9011834,9.57175794 14.6665758,9.51623439 14.4537413,9.58710233 L13.0943125,10.0397626 C13.047587,10.0553207 13.0051464,10.0815881 12.9703792,10.1164673 C12.8802397,10.2068943 12.8533969,10.3426917 12.9023526,10.4606134 C12.9513083,10.578535 13.0664358,10.6553911 13.1941158,10.6553911 L15.2693272,10.6553911 C15.3889982,10.6553911 15.4968949,10.5833292 15.5427355,10.472786 C15.5885762,10.3622428 15.5633401,10.2349721 15.4787877,10.1502841 L15.4787877,10.1502841 Z" id="Path" fill="#F5AC34"></path>
                    <path d="M6.51162791,21.9027484 C7.10359408,23.6786469 7.91362579,24.2706131 9.68952431,24.2706131 L9.94194979,23.6730492 L10.0634249,25.4545455 C10.0634249,25.4545455 8.8794926,26.0465116 7.69556025,25.4545455 C6.51162791,24.8625793 5.91966173,23.0866808 5.91966173,21.9027484 L6.51162791,21.9027484 Z" id="Path" fill="#E7F2DA"></path>
                    <path d="M3.98728066,34.3181763 C3.93817928,34.3181763 3.88925846,34.3176709 3.8401926,34.3166594 C3.76171081,34.3150533 3.68708191,34.2823343 3.6327253,34.225701 C3.57836869,34.1690677 3.54873756,34.0931599 3.55028855,34.0146782 C3.55535652,33.851981 3.68956602,33.7231665 3.85233161,33.7248368 C5.23870455,33.753633 6.48658848,33.3485683 6.89428816,32.9407998 C7.81175581,32.0233677 9.26374228,27.2520855 9.76473214,25.424737 L9.71545095,24.7023022 L9.48627421,24.4857351 C9.36768554,24.3734271 9.36248982,24.1862837 9.47466453,24.067569 C9.58683923,23.9488543 9.77397669,23.9434483 9.89281734,24.0554896 L10.2061428,24.3515467 C10.2602517,24.4026579 10.2931103,24.4722841 10.2981677,24.5465441 L10.3587228,25.4344193 C10.3609694,25.4673972 10.3576721,25.5005183 10.348968,25.532406 C10.2756226,25.8013992 8.53831142,32.1339632 7.31290074,33.3594094 C6.74893235,33.9233763 5.36751195,34.3181763 3.98728066,34.3181763 L3.98728066,34.3181763 Z" id="Path" fill="#3E9588"></path>
                    <path d="M13.5599057,18.7624219 L13.5692292,18.7554352 C13.8602145,18.5376663 13.9815642,18.1596336 13.8716933,17.8131886 C13.7618225,17.4667436 13.444787,17.2277395 13.0814823,17.2174708 C13.0761887,17.205616 13.0714929,17.1936161 13.0656384,17.1819048 C12.9374414,16.9255523 12.6938357,16.7464468 12.4109166,16.7005356 C12.1279974,16.6546244 11.8402548,16.7475044 11.637571,16.9501626 L10.4460911,18.1416425 C10.0951891,18.4925438 9.44479958,18.5996023 9.12934154,18.6314671 C8.96061121,18.4947481 8.78418457,18.3613892 8.59912336,18.2214913 C8.20129245,17.9341231 7.82323399,17.6203304 7.46750603,17.2822364 C7.39251845,17.2072214 7.28312318,17.1780667 7.18074883,17.2058134 C7.07837449,17.2335601 6.99867354,17.3139658 6.97182919,17.4165804 C6.94498484,17.5191951 6.97510145,17.6283294 7.05077368,17.7026537 C7.42496194,18.059647 7.82300636,18.3907671 8.24214926,18.6937198 C8.45625973,18.8555855 8.65848351,19.0084549 8.84473753,19.1637809 C8.90312593,19.2124922 8.97802617,19.2368553 9.05389841,19.2318155 C9.50957992,19.2015742 10.3507757,19.0741409 10.8646993,18.5602529 L12.0561792,17.3687692 C12.1242972,17.3006347 12.221019,17.2694048 12.3161198,17.2848386 C12.4112207,17.3002725 12.493102,17.3604877 12.5361764,17.4466675 C12.6010161,17.5762136 12.5638687,17.7335957 12.4479453,17.8204757 L10.4778079,19.2980788 C10.3470262,19.3961548 10.3205131,19.5816807 10.4185891,19.7124625 C10.5166652,19.8432442 10.7021911,19.8697574 10.8329728,19.7716813 L12.8031473,18.2940486 C12.960503,18.1759787 13.0742428,18.0090414 13.1265443,17.8193946 C13.1550868,17.8269954 13.1821702,17.8392795 13.2066913,17.8557465 C13.2777395,17.9044748 13.3199214,17.9853297 13.3192389,18.0714797 C13.3190509,18.1541982 13.280124,18.2320519 13.2140621,18.2818334 L11.0697748,19.8900486 C10.9389931,19.9881247 10.9124799,20.1736506 11.010556,20.3044323 C11.1086321,20.4352141 11.294158,20.4617272 11.4249397,20.3636512 L13.0736395,19.1271256 C13.1866405,19.4375428 13.0488034,19.7833456 12.7532497,19.9309128 L11.7069399,20.4540858 C11.5607334,20.5271989 11.5014795,20.7049925 11.5745925,20.8511989 C11.6477055,20.9974054 11.8254991,21.0566593 11.9717056,20.9835463 L12.6251845,20.6567928 C12.4852101,21.0089304 12.2119108,21.291593 11.8646863,21.4433457 C11.1852119,21.7402685 10.7079244,22.0235695 10.4460852,22.2854094 C10.046804,22.6847261 9.66450486,23.5263925 9.41411871,24.1621486 C9.37536808,24.2605355 9.39204979,24.3721219 9.45788,24.4548744 C9.52371021,24.5376268 9.62868775,24.5789733 9.73326859,24.5633389 C9.83784943,24.5477045 9.92614525,24.4774645 9.96489588,24.3790776 C10.2897469,23.5542852 10.6092873,22.9593947 10.8646956,22.7040198 C11.008641,22.5600751 11.3400681,22.3186135 12.1017406,21.9857768 C12.799223,21.6811032 13.26752,21.0116936 13.3146134,20.2520293 C13.323447,20.2437055 13.3327513,20.2359604 13.3413503,20.2273658 C13.7204507,19.8489522 13.8143595,19.2701789 13.5743571,18.7913128 L13.5599057,18.7624219 Z" id="Path" fill="#FFC68D"></path>
                    <path d="M2.1077592,28.5686909 C2.00334261,28.5685544 1.90671713,28.513431 1.85346025,28.423617 C1.80020337,28.333803 1.79818938,28.222578 1.84815983,28.1308948 L3.38848837,25.3069513 C3.46683011,25.1635617 3.64654183,25.1107741 3.78998496,25.1890177 C3.93342809,25.2672613 3.98633866,25.4469369 3.90819323,25.5904335 L2.36786469,28.4143763 C2.31597568,28.5095767 2.21618236,28.5687818 2.1077592,28.5686909 L2.1077592,28.5686909 Z" id="Path" fill="#3E9588"></path>
                </g>
            </g>
        </g>
    </g>
</svg>