<?xml version="1.0" encoding="UTF-8"?>
<svg width="10px" height="10px" viewBox="0 0 10 10" version="1.1" xmlns="http://www.w3.org/2000/svg" xmlns:xlink="http://www.w3.org/1999/xlink">
    <!-- Generator: Sketch 63.1 (92452) - https://sketch.com -->
    <title>Shape</title>
    <desc>Created with Sketch.</desc>
    <g id="Page-1" stroke="none" stroke-width="1" fill="none" fill-rule="evenodd">
        <g id="Landing" transform="translate(-527.000000, -1620.000000)" fill="#677581" fill-rule="nonzero">
            <g id="Footer" transform="translate(406.000000, 1620.000000)">
                <g id="dribbble-icon" transform="translate(121.000000, 0.000000)">
                    <path d="M0,5 C0,4.09333 0.22334,3.25667 0.67,2.49 C1.11667,1.72333 1.72334,1.11667 2.49,0.67 C3.25667,0.22333 4.09334,0 5,0 C5.90667,0 6.74334,0.22333 7.51,0.67 C8.27667,1.11667 8.88334,1.72333 9.33,2.49 C9.77667,3.25667 10,4.09333 10,5 C10,5.90667 9.77667,6.74333 9.33,7.51 C8.88334,8.27667 8.27667,8.88333 7.51,9.33 C6.74334,9.77667 5.90667,10 5,10 C4.09334,10 3.25667,9.77667 2.49,9.33 C1.72334,8.88333 1.11667,8.27667 0.67,7.51 C0.22334,6.74333 0,5.90667 0,5 Z M0.83,5 C0.83,6.04 1.18,6.95667 1.88,7.75 C2.2,7.12333 2.70667,6.52667 3.4,5.96 C4.09334,5.39333 4.77,5.03667 5.43,4.89 C5.33,4.65667 5.23334,4.44667 5.14,4.26 C3.99334,4.62667 2.75334,4.81 1.42,4.81 C1.16,4.81 0.96667,4.80667 0.84,4.8 C0.84,4.82667 0.83834,4.86 0.835,4.9 C0.83167,4.94 0.83,4.97333 0.83,5 Z M0.96,3.97 C1.10667,3.98333 1.32334,3.99 1.61,3.99 C2.72334,3.99 3.78,3.84 4.78,3.54 C4.27334,2.64 3.71667,1.89 3.11,1.29 C2.58334,1.55667 2.13167,1.92667 1.755,2.4 C1.37834,2.87333 1.11334,3.39667 0.96,3.97 Z M2.45,8.29 C3.20334,8.87667 4.05334,9.17 5,9.17 C5.49334,9.17 5.98334,9.07667 6.47,8.89 C6.33667,7.75 6.07667,6.64667 5.69,5.58 C5.07667,5.71333 4.45834,6.05 3.835,6.59 C3.21167,7.13 2.75,7.69667 2.45,8.29 Z M3.98,0.97 C4.56667,1.57667 5.11,2.33333 5.61,3.24 C6.51667,2.86 7.2,2.37667 7.66,1.79 C6.88667,1.15 6,0.83 5,0.83 C4.66,0.83 4.32,0.87667 3.98,0.97 Z M5.97,3.95 C6.07,4.16333 6.18334,4.43333 6.31,4.76 C6.80334,4.71333 7.34,4.69 7.92,4.69 C8.33334,4.69 8.74334,4.7 9.15,4.72 C9.09667,3.81333 8.77,3.00667 8.17,2.3 C7.73667,2.94667 7.00334,3.49667 5.97,3.95 Z M6.56,5.46 C6.9,6.44667 7.13,7.46 7.25,8.5 C7.77667,8.16 8.20667,7.72333 8.54,7.19 C8.87334,6.65667 9.07334,6.08 9.14,5.46 C8.65334,5.42667 8.21,5.41 7.81,5.41 C7.44334,5.41 7.02667,5.42667 6.56,5.46 Z" id="Shape"></path>
                </g>
            </g>
        </g>
    </g>
</svg>