<?xml version="1.0" encoding="UTF-8"?>
<svg width="10px" height="10px" viewBox="0 0 10 10" version="1.1" xmlns="http://www.w3.org/2000/svg" xmlns:xlink="http://www.w3.org/1999/xlink">
    <!-- Generator: Sketch 63.1 (92452) - https://sketch.com -->
    <title>Shape</title>
    <desc>Created with Sketch.</desc>
    <g id="Page-1" stroke="none" stroke-width="1" fill="none" fill-rule="evenodd">
        <g id="Landing" transform="translate(-507.000000, -1620.000000)" fill="#868C97" fill-rule="nonzero">
            <g id="Footer" transform="translate(406.000000, 1620.000000)">
                <g id="linkedin-icon-1" transform="translate(101.000000, 0.000000)">
                    <path d="M0,1.11003861 C0,0.788281853 0.11261583,0.522837838 0.337837838,0.313706564 C0.563059846,0.104565637 0.855859073,0 1.21621622,0 C1.57014479,0 1.85649614,0.102953668 2.07528958,0.308880309 C2.30051158,0.521235521 2.41312741,0.797934363 2.41312741,1.13899614 C2.41312741,1.44787645 2.30373552,1.70527027 2.08494208,1.91119691 C1.85972008,2.12355212 1.56370656,2.22972973 1.1969112,2.22972973 L1.18725869,2.22972973 C0.833330116,2.22972973 0.546978764,2.12355212 0.328185328,1.91119691 C0.109391892,1.6988417 0,1.43178571 0,1.11003861 Z M0.125482625,9.55598456 L0.125482625,3.10810811 L2.26833977,3.10810811 L2.26833977,9.55598456 L0.125482625,9.55598456 Z M3.45559846,9.55598456 L5.5984556,9.55598456 L5.5984556,5.95559846 C5.5984556,5.7303668 5.62419884,5.55662162 5.67567568,5.43436293 C5.76576255,5.2155695 5.90250965,5.03055985 6.08590734,4.87934363 C6.26930502,4.72811776 6.49935328,4.65250965 6.77606178,4.65250965 C7.49678571,4.65250965 7.85714286,5.13834942 7.85714286,6.11003861 L7.85714286,9.55598456 L10,9.55598456 L10,5.85907336 C10,4.90668919 9.77477799,4.18436293 9.32432432,3.69208494 C8.87387066,3.19980695 8.278639,2.95366795 7.53861004,2.95366795 C6.70849421,2.95366795 6.06177606,3.31081081 5.5984556,4.02509653 L5.5984556,4.04440154 L5.58880309,4.04440154 L5.5984556,4.02509653 L5.5984556,3.10810811 L3.45559846,3.10810811 C3.46846525,3.3140251 3.47490347,3.95430502 3.47490347,5.02895753 C3.47490347,6.10360039 3.46846525,7.61260618 3.45559846,9.55598456 Z" id="Shape"></path>
                </g>
            </g>
        </g>
    </g>
</svg>