<?xml version="1.0" encoding="UTF-8"?>
<svg width="10px" height="10px" viewBox="0 0 10 10" version="1.1" xmlns="http://www.w3.org/2000/svg" xmlns:xlink="http://www.w3.org/1999/xlink">
    <!-- Generator: Sketch 63.1 (92452) - https://sketch.com -->
    <title>Shape</title>
    <desc>Created with Sketch.</desc>
    <g id="Page-1" stroke="none" stroke-width="1" fill="none" fill-rule="evenodd">
        <g id="Landing" transform="translate(-487.000000, -1620.000000)" fill="#677581" fill-rule="nonzero">
            <g id="Footer" transform="translate(406.000000, 1620.000000)">
                <g id="instagram-glyph-1" transform="translate(81.000000, 0.000000)">
                    <path d="M3.33373723,5 C3.33373723,4.07956381 4.07972858,3.33319871 5.00020195,3.33319871 C5.92067531,3.33319871 6.66707056,4.07956381 6.66707056,5 C6.66707056,5.92043619 5.92067531,6.66680129 5.00020195,6.66680129 C4.07972858,6.66680129 3.33373723,5.92043619 3.33373723,5 M2.43265075,5 C2.43265075,6.41801292 3.58213175,7.5674475 5.00020195,7.5674475 C6.41827214,7.5674475 7.56775314,6.41801292 7.56775314,5 C7.56775314,3.58198708 6.41827214,2.4325525 5.00020195,2.4325525 C3.58213175,2.4325525 2.43265075,3.58198708 2.43265075,5 M7.06934852,2.33077544 C7.06934852,2.66195477 7.33793772,2.930937 7.66953431,2.930937 C8.00072701,2.930937 8.2697201,2.66195477 8.2697201,2.33077544 C8.2697201,1.99959612 8.0011309,1.73101777 7.66953431,1.73101777 C7.33793772,1.73101777 7.06934852,1.99959612 7.06934852,2.33077544 M2.97992649,9.06987076 C2.492427,9.04765751 2.22747284,8.96647819 2.05137526,8.89781906 C1.8179248,8.80694669 1.65152066,8.69870759 1.47623087,8.52382876 C1.30134497,8.34894992 1.1926976,8.1825525 1.10222545,7.94911147 C1.03356355,7.773021 0.952380952,7.50807754 0.930166808,7.02059774 C0.905933196,6.49353796 0.901086474,6.33521809 0.901086474,5 C0.901086474,3.66478191 0.90633709,3.50686591 0.930166808,2.97940226 C0.952380952,2.49192246 1.03396745,2.22738288 1.10222545,2.05088853 C1.1931015,1.8174475 1.30134497,1.65105008 1.47623087,1.47576737 C1.65111677,1.30088853 1.8175209,1.19224556 2.05137526,1.10177706 C2.22747284,1.03311793 2.492427,0.951938611 2.97992649,0.929725363 C3.50700755,0.90549273 3.66533382,0.900646204 5.00020195,0.900646204 C6.33547397,0.900646204 6.49339634,0.905896607 7.0208813,0.929725363 C7.50838079,0.951938611 7.77293106,1.03352181 7.94943253,1.10177706 C8.18288299,1.19224556 8.34928713,1.30088853 8.52457692,1.47576737 C8.69946282,1.6506462 8.80770629,1.8174475 8.89858233,2.05088853 C8.96724423,2.226979 9.04842683,2.49192246 9.07064098,2.97940226 C9.09487459,3.50686591 9.09972131,3.66478191 9.09972131,5 C9.09972131,6.33481422 9.09487459,6.49313409 9.07064098,7.02059774 C9.04842683,7.50807754 8.96684034,7.773021 8.89858233,7.94911147 C8.80770629,8.1825525 8.69946282,8.34894992 8.52457692,8.52382876 C8.34969102,8.69870759 8.18288299,8.80694669 7.94943253,8.89781906 C7.77333495,8.96647819 7.50838079,9.04765751 7.0208813,9.06987076 C6.49380023,9.09410339 6.33547397,9.09894992 5.00020195,9.09894992 C3.66533382,9.09894992 3.50700755,9.09410339 2.97992649,9.06987076 M2.93872935,0.0302907916 C2.40639767,0.0545234249 2.04289349,0.138933764 1.72502928,0.262520194 C1.39625995,0.390145396 1.11757341,0.561389338 0.839290763,0.839256866 C0.561412012,1.11712439 0.390161154,1.39579968 0.262530797,1.72495961 C0.138939376,2.04281099 0.054525627,2.40630048 0.030292015,2.93861066 C0.00565450947,3.47172859 0,3.64216478 0,5 C0,6.35783522 0.00565450947,6.52827141 0.030292015,7.06138934 C0.054525627,7.59369952 0.138939376,7.95718901 0.262530797,8.27504039 C0.390161154,8.60379645 0.561008118,8.88287561 0.839290763,9.16074313 C1.11716951,9.43861066 1.39585605,9.60945073 1.72502928,9.73747981 C2.04329739,9.86106624 2.40639767,9.94547658 2.93872935,9.96970921 C3.47227271,9.99394184 3.64231189,10 5.00020195,10 C6.3584959,10 6.52853508,9.99434572 7.06167454,9.96970921 C7.59400622,9.94547658 7.9575104,9.86106624 8.27537461,9.73747981 C8.60414395,9.60945073 8.88283049,9.43861066 9.16111313,9.16074313 C9.43899188,8.88287561 9.60983885,8.60379645 9.7378731,8.27504039 C9.86146452,7.95718901 9.94628216,7.59369952 9.97011188,7.06138934 C9.99434549,6.52786753 10,6.35783522 10,5 C10,3.64216478 9.99434549,3.47172859 9.97011188,2.93861066 C9.94587827,2.40630048 9.86146452,2.04281099 9.7378731,1.72495961 C9.60983885,1.39620355 9.43899188,1.11752827 9.16111313,0.839256866 C8.88323438,0.561389338 8.60414395,0.390145396 8.2757785,0.262520194 C7.9575104,0.138933764 7.59400622,0.0541195477 7.06207844,0.0302907916 C6.52893897,0.00605815832 6.3584959,0 5.00060584,0 C3.64231189,0 3.47227271,0.0056542811 2.93872935,0.0302907916" id="Shape"></path>
                </g>
            </g>
        </g>
    </g>
</svg>